<svg xmlns="http://www.w3.org/2000/svg" width="732.92" height="625.19" viewBox="0 0 732.92 625.19"><path d="M672.59,481.12c-5.6,11.3-17.15,20.32-17.54,32.92-.28,8.72,5,16.52,10.12,23.61.77,1.06,1.67,2.21,3,2.42,2.23.36,3.72-2.17,4.53-4.28,6-15.73,12.18-31.77,13.1-48.59a5.93,5.93,0,0,0-.49-3.32,6.13,6.13,0,0,0-3.11-2.18,21.07,21.07,0,0,0-7.45-2.1" fill="#f1567b"/><path d="M603.9,287.93c3.08-5.3-.15-13.12-6.07-14.69-2.57-.68-5.33-.32-7.92-1-7.06-1.79-10.06-10-12-17a8.18,8.18,0,0,1-.36-4.3c.79-2.78,4.08-3.83,6.87-4.59,10.42-2.85,21.18-8.49,25.13-18.55,1-2.45,1.55-5.19,3.42-7.05,4.09-4.07,11.75-.76,13.86,4.61s.42,11.42-1.48,16.87c-.75,2.15-1.47,4.74-.07,6.54,2.33,3,7.08.36,9.69-2.41,23.23-24.65,38.88-56.67,66.3-76.56,10.39-7.54,23.63-15.39,23.93-28.23.2-8.38-5.54-15.77-6.74-24.06-1.35-9.34,3.17-18.42,7.43-26.85s8.49-17.74,6.54-27-13.29-16.75-21.09-11.42c-6.79,4.65-8.52,16.72-16.75,16.92-8.68.22-10.25-12.63-16.72-18.41-6.16-5.49-15.67-3.63-23.72-5.46-16.93-3.83-24.91-22.87-37.89-34.4-15.07-13.39-40.62-15.24-54.83-1a14.75,14.75,0,0,0-4.18,6.58,18.94,18.94,0,0,0,0,6.88l3,24.44c.42,3.34.82,6.79-.12,10-2.67,9.12-13.9,11.9-21.65,17.4a30.18,30.18,0,0,0-11.82,29.69c.35,1.83,1,3.77,2.46,4.87,2.6,1.92,6.2.43,9.21-.72a38.33,38.33,0,0,1,35.84,4.86c2,1.48,4.06,3.66,3.6,6.11-.33,1.72-1.81,3-3.28,3.92-12.74,8.29-30.92,6.15-42,16.52-7.41,6.91-10.45,18.47-19.62,22.8-7.64,3.61-18.41,1.55-23.27,8.47-3.39,4.83-1.77,11.37-1.86,17.27-.19,13.53-11.5,26-24.94,27.53-5.44.62-11.07-.35-16.36,1-4.93,1.29-9.09,4.51-13.63,6.81-7.33,3.72-15.65,5.06-23.87,5.43a110.7,110.7,0,0,1-36.5-4.49c-10.61-3.16-20.8-7.93-31.73-9.71-15.77-2.56-33.52.87-46.59-8.34-9.7-6.83-14.56-19.4-25-25.06-11.93-6.45-30.33-3.82-35.86-16.21-4.76-10.68,5.43-22.7,3.62-34.26-1.46-9.32-11.95-16.11-21-13.63l-1.32-.27c-4.76-4.72-2.1-13.29-5.71-18.94-4.35-6.8-15.37-5.29-21.08.41s-8,13.88-11.52,21.12c-1,2.1-2.31,4.27-4.45,5.22-4,1.82-8.33-1.55-12.34-3.44-9.5-4.47-22.28.62-26.1,10.4-1.74,4.45-2.15,10-6.16,12.62-3.41,2.22-8,1.23-11.86,2.54-7,2.38-9.28,11.18-9.38,18.59s.63,15.62-4,21.42c-2.55,3.2-6.33,5.1-10,6.9L70.81,205c-9.08,4.46-18.67,9-28.77,8.5-7-.38-13.62-3.19-20.54-4.25s-15,.22-19,6C-1.08,220.49-.09,227.47,1,233.7q4.11,22.55,8.21,45.1c1.17,6.4,2.49,13.15,6.78,18,5.45,6.24,15.94,11,13.85,19l1.55,1.8c8.1,4.28,10.31,15,9.44,24.09S37,359.88,38.35,368.93c3.23,21.59,27.65,31.58,44.39,45.58,6.87,5.75,12.72,12.61,19.34,18.63a106.75,106.75,0,0,0,80.26,27c10.2-.91,22.18-2.71,29.18,4.76,3.51,3.75,5,9.24,9,12.42,6.54,5.15,16.42,1.67,22.66-3.86s11-12.92,18.28-16.9c15.71-8.53,34.58,2.17,49.18,12.51,9.41,6.66,20,16.24,17.33,27.46-1.93,8-10,12.75-16.22,18.16s-11.27,15.17-6,21.53c3.54,4.28,10,4.64,14.57,7.75,6.2,4.21,7.91,12.38,11.18,19.12a39.86,39.86,0,0,0,32,21.89,13.7,13.7,0,0,0,7.48-1c7.08-3.69,6.1-15.43,13-19.49,6.44-3.81,14.55,1.82,22,.9,7.76-1,13.15-8.83,20.83-10.29,13.06-2.48,21.88,13.81,34.65,17.51,6.9,2,14.24.08,21.42-.16s15.58,2.18,18,8.93c2.61,7.2-2.93,14.49-7.28,20.78s-7.38,16-1.39,20.74a11.92,11.92,0,0,0,6.86,2.27A19.82,19.82,0,0,0,516,593.51l-3-.89c2-13.4,16.3-20.77,28.77-26.08,26.07-11.08,52.76-22.94,72.29-43.44,28.13-29.53,37-71.87,53.72-109,2.31-5.11,4.45-12,.17-15.6-3-2.57-8.42-2.38-9.92-6.06-1-2.34.32-4.93,1.25-7.29,4-10.34,1-22.47-5.62-31.4s-16.27-15.08-26.24-20c-5.53-2.71-12.26-6.9-11.2-13,.42-2.39,2.05-4.35,3.65-6.17A213.2,213.2,0,0,1,641.72,293c5.47-4.65,11.58-12.68,6.66-17.91a10.3,10.3,0,0,0-5-2.62,26.29,26.29,0,0,0-28.21,11.19c-1.49,2.38-2.86,5.24-5.55,6s-5.84-3.09-3.52-4.66" fill="#f1567b"/><polygon points="153.69 254.82 182.65 343.97 106.82 288.87 200.56 288.87 124.72 343.97 153.69 254.82" fill="#ffd400"/><polygon points="221.73 263.27 242.25 239.71 239.5 270.83 223.43 244.04 252.18 256.26 221.73 263.27" fill="#ffd400"/><polygon points="252.41 290 280.46 276.24 265.86 303.86 261.44 272.93 283.19 295.35 252.41 290" fill="#ffd400"/><polygon points="252.88 332.44 284.1 331.32 259.5 350.58 268.08 320.54 278.8 349.89 252.88 332.44" fill="#ffd400"/><polygon points="222.99 359.54 252.23 370.57 222.1 378.83 241.62 354.44 240.17 385.65 222.99 359.54" fill="#ffd400"/></svg>