<?xml version="1.0" encoding="utf-8"?>
<!-- Generator: Adobe Illustrator 25.4.1, SVG Export Plug-In . SVG Version: 6.00 Build 0)  -->
<svg version="1.1" id="Layer_1" xmlns="http://www.w3.org/2000/svg" xmlns:xlink="http://www.w3.org/1999/xlink" x="0px" y="0px"
	 viewBox="0 0 609.1 212" style="enable-background:new 0 0 609.1 212;" xml:space="preserve">
<style type="text/css">
	.st0{fill:#373A36;}
	.st1{fill:#77C5D5;}
	.st2{fill:#F1567B;}
	.st3{fill:#00A499;}
	.st4{fill:#FFD400;}
	.st5{fill:#B2B2B2;}
	.st6{fill:#FFFFFF;}
</style>
<path class="st0" d="M503.1,0h-437C42.1,0,18.8,8.2,0,23.2v165.5C18.8,203.8,42.1,212,66.2,212h437c58.5,0,106-47.5,106-106l0,0
	C609.2,47.5,561.7,0,503.1,0C503.2,0,503.2,0,503.1,0z"/>
<rect x="126.8" y="17.7" class="st1" width="59.5" height="15.8"/>
<rect x="190.4" y="17.7" class="st1" width="59.5" height="15.8"/>
<rect x="254" y="17.7" class="st2" width="59.5" height="15.8"/>
<rect x="381.2" y="17.7" class="st1" width="59.5" height="15.8"/>
<rect x="444.9" y="17.7" class="st3" width="59.5" height="15.8"/>
<rect x="126.8" y="37.8" class="st1" width="59.5" height="15.8"/>
<rect x="190.4" y="37.8" class="st3" width="59.5" height="15.8"/>
<rect x="254" y="37.8" class="st1" width="59.5" height="15.8"/>
<rect x="317.6" y="37.8" class="st2" width="59.5" height="15.8"/>
<rect x="381.2" y="37.8" class="st3" width="59.5" height="15.8"/>
<rect x="444.9" y="37.8" class="st4" width="59.5" height="15.8"/>
<rect x="126.8" y="57.9" class="st3" width="59.5" height="15.8"/>
<rect x="190.4" y="57.9" class="st2" width="59.5" height="15.8"/>
<rect x="254" y="57.9" class="st3" width="59.5" height="15.8"/>
<rect x="317.6" y="57.9" class="st1" width="59.5" height="15.8"/>
<rect x="381.2" y="57.9" class="st2" width="59.5" height="15.8"/>
<rect x="444.9" y="57.9" class="st4" width="59.5" height="15.8"/>
<rect x="126.8" y="78" class="st3" width="59.5" height="15.8"/>
<rect x="190.4" y="78" class="st4" width="59.5" height="15.8"/>
<rect x="254" y="78" class="st3" width="59.5" height="15.8"/>
<rect x="317.6" y="78" class="st2" width="59.5" height="15.8"/>
<rect x="381.2" y="78" class="st4" width="59.5" height="15.8"/>
<rect x="444.9" y="78" class="st2" width="59.5" height="15.8"/>
<rect x="126.8" y="98.1" class="st1" width="59.5" height="15.8"/>
<rect x="190.4" y="98.1" class="st4" width="59.5" height="15.8"/>
<rect x="254" y="98.1" class="st1" width="59.5" height="15.8"/>
<rect x="317.6" y="98.1" class="st4" width="59.5" height="15.8"/>
<rect x="381.2" y="98.1" class="st3" width="59.5" height="15.8"/>
<rect x="444.9" y="98.1" class="st1" width="59.5" height="15.8"/>
<rect x="126.8" y="118.2" class="st2" width="59.5" height="15.8"/>
<rect x="190.4" y="118.2" class="st2" width="59.5" height="15.8"/>
<rect x="254" y="118.2" class="st1" width="59.5" height="15.8"/>
<rect x="317.6" y="118.2" class="st3" width="59.5" height="15.8"/>
<rect x="381.2" y="118.2" class="st2" width="59.5" height="15.8"/>
<rect x="444.9" y="118.2" class="st4" width="59.5" height="15.8"/>
<rect x="126.8" y="138.3" class="st1" width="59.5" height="15.8"/>
<rect x="190.4" y="138.3" class="st1" width="59.5" height="15.8"/>
<rect x="254" y="138.3" class="st2" width="59.5" height="15.8"/>
<rect x="317.6" y="138.3" class="st3" width="59.5" height="15.8"/>
<rect x="381.2" y="138.3" class="st1" width="59.5" height="15.8"/>
<rect x="444.9" y="138.3" class="st2" width="59.5" height="15.8"/>
<rect x="126.8" y="158.4" class="st3" width="59.5" height="15.8"/>
<rect x="190.4" y="158.4" class="st4" width="59.5" height="15.8"/>
<rect x="254" y="158.4" class="st2" width="59.5" height="15.8"/>
<rect x="317.6" y="158.4" class="st1" width="59.5" height="15.8"/>
<rect x="381.2" y="158.4" class="st2" width="59.5" height="15.8"/>
<rect x="444.9" y="158.4" class="st2" width="59.5" height="15.8"/>
<rect x="126.8" y="178.4" class="st2" width="59.5" height="15.8"/>
<rect x="190.4" y="178.4" class="st1" width="59.5" height="15.8"/>
<rect x="254" y="178.4" class="st4" width="59.5" height="15.8"/>
<rect x="317.6" y="178.4" class="st2" width="59.5" height="15.8"/>
<rect x="381.2" y="178.4" class="st4" width="59.5" height="15.8"/>
<rect x="444.9" y="178.4" class="st1" width="59.5" height="15.8"/>
<rect x="13.8" y="50.3" class="st5" width="11.4" height="111.4"/>
<polygon class="st0" points="523,17.7 523,17.7 522.9,17.7 "/>
<rect x="520" y="100.1" class="st6" width="62.8" height="11.7"/>
<rect x="520" y="87.9" class="st5" width="31.4" height="3.4"/>
<rect x="520" y="120.6" class="st5" width="31.4" height="3.4"/>
<path class="st6" d="M587.8,65l-4.9-3.7v89.3l4.9-3.6c4.1-10.8,6.4-22.2,6.8-33.7V98.7C594.2,87.2,591.9,75.8,587.8,65z"/>
<polygon class="st6" points="517.1,20.5 517.1,30.1 517.1,180.3 517.1,191.5 523,187.2 523,180.3 523,30.1 523,24.8 "/>
<polygon class="st0" points="523,194.2 523,194.2 522.9,194.2 "/>
</svg>
