<svg xmlns="http://www.w3.org/2000/svg" width="73.51" height="245.83" viewBox="0 0 73.51 245.83"><polygon points="44.88 11.13 50.08 18.92 47.48 24.85 44.88 30.79 40.62 41.15 30.79 41.15 30.79 23.09 30.79 13.72 44.88 11.13" fill="#efead7"/><path d="M23.37,6.89V20.4L27.08,28l5.38,2.05H37.1s4.07-7,5.19-7.79,7.79-7,7.79-7-.74-8.48,0-8.32,1.85-2.07,0-3.18A61.7,61.7,0,0,0,40.62,0H32.46C30.79,0,23.37,6.89,23.37,6.89Z" fill="#1d1e1c"/><polygon points="8.9 102.64 10.76 113.4 23.37 118.22 24.85 112.66 8.9 102.64" fill="#efead7"/><polygon points="59.29 105.72 61.95 120.11 64.91 128.61 64.91 102.64 59.29 105.72" fill="#efead7"/><path d="M30.79,34.39l13.72,1.48a28.11,28.11,0,0,1,12.24,7.51c5.57,5.85,8.16,24.52,8.16,24.52V108l-5.19,2.27L55.64,67.9V108H19.29L14.1,76.8,10.76,89.66,16,108H6L0,88.92,11.5,43.38Z" fill="#4f4b40"/><polygon points="23.37 222.52 21.89 238.78 28.56 238.78 28.56 222.52 23.37 222.52" fill="#efead7"/><polygon points="53.04 222.52 54.53 238.78 61.95 240.63 61.5 222.52 53.04 222.52" fill="#efead7"/><polygon points="22.23 235 19.29 242.49 20.76 245.08 30.79 245.08 28.56 235 22.23 235" fill="#1d1e1c"/><polygon points="53.04 243.91 53.31 237.41 54.58 237.48 55.88 238.91 58.71 238.78 60.12 237.51 60.04 236.65 62.41 235.43 65.08 239.15 69.19 241 73.46 242.12 73.51 243.59 71.24 245.06 67.19 245.83 54.52 245.54 53.04 243.91" fill="#1d1e1c"/><path d="M19.29,108V231s14.09.74,13.17,0,7.6-84.58,7.6-84.58l9.28,84.91H62L55.64,108Z" fill="#1d1e1c"/></svg>