<svg xmlns="http://www.w3.org/2000/svg" width="64.19" height="237.35" viewBox="0 0 64.19 237.35"><polygon points="55.31 77.27 51.33 106 44.87 123.28 40.11 111.61 47.71 67.81 54.52 67.81 55.31 77.27" fill="#efead7"/><path d="M14.49,84.51,17,97.73v14.81l-5.47-4.35S5.54,96.27,6,92.48s0-20.2,0-20.2l8.48-4.47Z" fill="#efead7"/><rect x="23.02" y="28.48" width="14.84" height="16.99" fill="#efead7"/><polygon points="6.21 81.05 12.77 80.88 13.48 71.8 13.48 71.8 17.22 105.66 46 110.34 51.26 69.32 55.31 77.27 54.26 52.01 37.84 40.49 22.93 40.49 10.73 48.76 6.26 60.19 6.21 81.05" fill="#4f4b40"/><polygon points="12.92 213.89 12.92 228.56 21.52 228.56 21.52 210.96 12.92 213.89" fill="#efead7"/><polygon points="36.77 210.96 35.79 227.77 46 227.77 46 210.96 36.77 210.96" fill="#efead7"/><path d="M21.52,225.82v8.4l1.37,3.13-7-1.37L11,237.35H.22s-.5-3.78,0-4.53a34.1,34.1,0,0,0,1.49-5l4.21.79,2.19.91,5-5.22Z" fill="#1d1e1c"/><path d="M35.5,226l-.71,3.91L34.08,234l.71,1.95h2.6L42,237.35h10.3s.47-3.78,0-4.53.21-5,.21-5l-5.66.79L46,225l-6-.78Z" fill="#1d1e1c"/><path d="M47.71,21.53,46.92,13,44.45,4.15s-8.9-6.51-15.32,0c0,0-4.45,8.28-4.94,10.65S19.9,26.56,18.42,28.33s-5.59,11.9-4.11,15.45S20,57.38,21.6,59.16s7,2.36,10,0,14.33-9.47,14.33-9.47l3-5.91s3.58-6.1,1.1-7.29" fill="#1d1e1c"/><polygon points="17.22 103.33 0 217.07 57.77 217.07 46 100.85 17.22 103.33" fill="#e1dcca"/><polygon points="46.54 106.15 64.19 115.03 57.77 141.53 49.99 140.28 46.54 106.15" fill="#e75780"/><path d="M28.59,2.61,20.64,17.75s3,6.29,6.7,6.71,9,.72,11.28.72,6.93-.72,8.12-.86,2.75-2.14,3-2.85S49,10.32,49,10.32s-2.53-7.14-2.25-7.71S42.13.18,41.37,0s-7,.14-7.62,0S28.59,2.61,28.59,2.61Z" fill="#4f4b40"/></svg>