<svg xmlns="http://www.w3.org/2000/svg" width="86.16" height="237.53" viewBox="0 0 86.16 237.53"><polygon points="3.95 108.29 0 125.83 1.63 129.73 3.95 131.03 10.23 104.36 3.95 108.29" fill="#efead7"/><polygon points="36.19 12.23 31.11 18.68 31.11 30.25 39.59 33.45 47.38 24.46 36.19 12.23" fill="#efead7"/><polygon points="39.25 27.78 39.25 39.35 51.75 39.35 48.74 22.84 39.25 27.78" fill="#efead7"/><path d="M31.11,13.29s3-7.84,5.76-9.17,8.85-5,12.55-3.9a12.7,12.7,0,0,1,5.76,3.9s2,6.46,2.71,9.17.68,8.86,0,10.2a22.68,22.68,0,0,1-2.37,3.31s-3.39,3.45-7.8,3.45-8.81-1.46-10.51-3.45-4.07-5.88-4.4-7.66S31.11,13.29,31.11,13.29Z" fill="#1d1e1c"/><polygon points="69.01 125.83 82.34 123.23 85.27 76.96 69.01 80.94 69.01 125.83" fill="#1d1e1c" stroke="#1d1e1c" stroke-miterlimit="10" stroke-width="1.64"/><polygon points="30.62 183.08 30.62 228.85 39.08 230.11 37.78 183.08 30.62 183.08" fill="#efead7"/><path d="M49.49,187.63,60,225.5s5.88-1.44,6.16-2.41-6.16-40-6.16-40Z" fill="#efead7"/><polygon points="71.61 45.37 49.12 39.35 39.25 39.35 33.55 39.35 17.61 48.74 10.89 62.38 3.95 108.29 11.39 108.29 19.02 120.32 18.26 159.7 22.17 187.31 39.25 190.89 44.75 126.15 47.38 190.89 69.01 190.89 69.01 75.41 71.61 64.67 71.61 45.37" fill="#e75780"/><polygon points="39.48 233.59 39.22 227.09 37.95 227.16 36.65 228.59 33.81 228.45 32.41 227.19 32.49 226.33 30.12 225.11 27.44 228.83 23.34 230.68 19.07 231.8 19.02 233.26 21.29 234.73 25.34 235.51 38.02 235.22 39.48 233.59" fill="#1d1e1c"/><polygon points="72.03 225.05 67.78 220.12 66.83 220.97 66.7 222.9 64.39 224.56 62.51 224.44 62.04 223.71 59.42 224.24 59.64 228.81 57.58 232.81 54.93 236.35 55.81 237.53 58.49 237.27 62.15 235.35 71.89 227.24 72.03 225.05" fill="#1d1e1c"/><path d="M47.38,26.3c.93.73,3,5.67,3,5.67s5.76,1.22,5.76,0-2-4.37-2-5.67S47.38,26.3,47.38,26.3Z" fill="#1d1e1c"/><path d="M49.12,29.62V45.84s1.4,8,0,9.1-1.74,4.8-1.74,4.8,9.49,1,11,0S65,54.88,65,54.94s-12.8-25.82-12.8-25.82Z" fill="#1d1e1c"/><path d="M71.58,80.3S73.42,69,71.15,60.64,58.08,41,58.08,41" fill="none" stroke="#1d1e1c" stroke-miterlimit="10" stroke-width="1.96"/></svg>