<svg xmlns="http://www.w3.org/2000/svg" width="786.38" height="220.7" viewBox="0 0 786.38 220.7"><path d="M622.39,220.69H41V0S573,.13,622.45,0,796.16,50.76,796.16,110.35,671.07,220.69,622.39,220.69Z" transform="translate(-9.78 0)" fill="#373a36"/><path d="M636,220.69H599V0s-8.49.13,37.09,0S796.16,50.76,796.16,110.35,680.86,220.69,636,220.69Z" transform="translate(-9.78 0)" fill="#d0d1d1"/><path d="M622.45,0h-3.24V12.66c55.22,6.19,160.95,48.63,160.95,97.69S674,201.63,619.21,208v12.7h3.18c48.68,0,173.77-50.76,173.77-110.34S671.92-.12,622.45,0Z" transform="translate(-9.78 0)" fill="#373a36"/><path d="M615.21,220.69h7.18c1.83,0,3.78-.08,5.82-.22V.2c-2-.13-3.94-.2-5.76-.2h-7.24Z" transform="translate(-9.78 0)" fill="#373a36"/><rect x="8.22" width="70.21" height="220.69" fill="#373a36"/><polygon points="27.78 0 27.78 34.86 19.1 34.86 19.1 71.25 0 71.25 0 149.44 19.1 149.44 19.1 185.83 27.78 185.83 27.78 220.69 64.43 220.69 64.43 0 27.78 0" fill="#d0d1d1"/><path d="M686.75,161.45h0v-103h0A15.62,15.62,0,0,1,702.37,74v71.8a15.62,15.62,0,0,1-15.59,15.65h0Z" transform="translate(-9.78 0)" fill="#373a36"/><polygon points="758.25 103.14 718.86 103.14 701.9 73.72 698.13 73.72 698.13 147.31 701.9 147.31 718.7 117.89 758.25 117.89 758.25 103.14" fill="#373a36"/><rect x="288.83" y="33.61" width="59.5" height="15.8" fill="#77c5d5"/><rect x="288.83" y="53.71" width="59.5" height="15.8" fill="#77c5d5"/><rect x="288.83" y="73.81" width="59.5" height="15.8" fill="#00a499"/><rect x="288.83" y="93.91" width="59.5" height="15.8" fill="#77c5d5"/><rect x="288.83" y="114.01" width="59.5" height="15.8" fill="#f1567b"/><rect x="288.83" y="134.11" width="59.5" height="15.8" fill="#ffd400"/><rect x="288.83" y="154.21" width="59.5" height="15.8" fill="#00a499"/><rect x="288.83" y="174.21" width="59.5" height="15.8" fill="#77c5d5"/><rect x="85.37" y="13.51" width="59.5" height="15.8" fill="#f1567b"/><rect x="85.37" y="33.61" width="59.5" height="15.8" fill="#77c5d5"/><rect x="85.37" y="53.71" width="59.5" height="15.8" fill="#ffd400"/><rect x="85.37" y="73.81" width="59.5" height="15.8" fill="#00a499"/><rect x="85.37" y="93.91" width="59.5" height="15.8" fill="#77c5d5"/><rect x="85.37" y="114.01" width="59.5" height="15.8" fill="#77c5d5"/><rect x="85.37" y="134.11" width="59.5" height="15.8" fill="#f1567b"/><rect x="85.37" y="154.21" width="59.5" height="15.8" fill="#00a499"/><rect x="85.37" y="174.21" width="59.5" height="15.8" fill="#ffd400"/><rect x="288.83" y="194.21" width="59.5" height="15.8" fill="#ffd400"/><rect x="356" y="33.61" width="59.5" height="15.8" fill="#77c5d5"/><rect x="356" y="53.71" width="59.5" height="15.8" fill="#77c5d5"/><rect x="356" y="73.81" width="59.5" height="15.8" fill="#00a499"/><rect x="356" y="93.91" width="59.5" height="15.8" fill="#ffd400"/><rect x="356" y="114.01" width="59.5" height="15.8" fill="#f1567b"/><rect x="356" y="134.11" width="59.5" height="15.8" fill="#00a499"/><rect x="356" y="154.21" width="59.5" height="15.8" fill="#f1567b"/><rect x="356" y="174.21" width="59.5" height="15.8" fill="#ffd400"/><rect x="356" y="194.21" width="59.5" height="15.8" fill="#ffd400"/><rect x="423.4" y="33.61" width="59.5" height="15.8" fill="#00a499"/><rect x="423.4" y="53.71" width="59.5" height="15.8" fill="#ffd400"/><rect x="423.4" y="73.81" width="59.5" height="15.8" fill="#f1567b"/><rect x="423.4" y="93.91" width="59.5" height="15.8" fill="#77c5d5"/><rect x="423.4" y="114.01" width="59.5" height="15.8" fill="#77c5d5"/><rect x="423.4" y="134.11" width="59.5" height="15.8" fill="#ffd400"/><rect x="423.4" y="154.21" width="59.5" height="15.8" fill="#f1567b"/><rect x="423.4" y="174.21" width="59.5" height="15.8" fill="#00a499"/><rect x="423.4" y="194.21" width="59.5" height="15.8" fill="#77c5d5"/><rect x="490.53" y="33.61" width="59.5" height="15.8" fill="#77c5d5"/><rect x="356" y="13.51" width="59.5" height="15.8" fill="#77c5d5"/><rect x="423.4" y="13.51" width="59.5" height="15.8" fill="#77c5d5"/><rect x="152.46" y="33.61" width="59.5" height="15.8" fill="#77c5d5"/><rect x="152.46" y="53.71" width="59.5" height="15.8" fill="#00a499"/><rect x="152.46" y="73.81" width="59.5" height="15.8" fill="#00a499"/><rect x="152.46" y="93.91" width="59.5" height="15.8" fill="#ffd400"/><rect x="152.46" y="114.01" width="59.5" height="15.8" fill="#77c5d5"/><rect x="152.46" y="134.11" width="59.5" height="15.8" fill="#00a499"/><rect x="152.46" y="154.21" width="59.5" height="15.8" fill="#77c5d5"/><rect x="152.46" y="174.21" width="59.5" height="15.8" fill="#ffd400"/><rect x="152.46" y="194.21" width="59.5" height="15.8" fill="#f1567b"/><rect x="221.74" y="33.61" width="59.5" height="15.8" fill="#00a499"/><rect x="221.74" y="53.71" width="59.5" height="15.8" fill="#ffd400"/><rect x="221.74" y="73.81" width="59.5" height="15.8" fill="#f1567b"/><rect x="221.74" y="93.91" width="59.5" height="15.8" fill="#77c5d5"/><rect x="221.74" y="114.01" width="59.5" height="15.8" fill="#77c5d5"/><rect x="221.74" y="134.11" width="59.5" height="15.8" fill="#ffd400"/><rect x="221.74" y="154.21" width="59.5" height="15.8" fill="#f1567b"/><rect x="221.74" y="174.21" width="59.5" height="15.8" fill="#00a499"/><rect x="221.74" y="194.21" width="59.5" height="15.8" fill="#77c5d5"/><rect x="152.46" y="13.51" width="59.5" height="15.8" fill="#77c5d5"/><rect x="221.74" y="13.51" width="59.5" height="15.8" fill="#77c5d5"/><rect x="490.53" y="13.51" width="59.5" height="15.8" fill="#f1567b"/><rect x="490.53" y="53.71" width="59.5" height="15.8" fill="#ffd400"/><rect x="490.53" y="73.81" width="59.5" height="15.8" fill="#00a499"/><rect x="490.53" y="93.91" width="59.5" height="15.8" fill="#00a499"/><rect x="490.53" y="114.01" width="59.5" height="15.8" fill="#77c5d5"/><rect x="490.53" y="134.11" width="59.5" height="15.8" fill="#ffd400"/><rect x="490.53" y="154.21" width="59.5" height="15.8" fill="#00a499"/><rect x="490.53" y="174.21" width="59.5" height="15.8" fill="#ffd400"/><rect x="490.53" y="194.21" width="59.5" height="15.8" fill="#ffd400"/><rect x="85.37" y="194.21" width="59.5" height="15.8" fill="#77c5d5"/><polygon points="120.93 189.46 81.43 220.69 81.43 9.13 120.93 9.13 120.93 189.46" fill="#494f54" opacity="0.63" style="isolation:isolate"/><rect x="625.11" y="74.9" width="7.26" height="70" fill="#373a36"/><polygon points="643.34 138.64 636.09 143.64 636.09 76.15 643.34 81.15 643.34 138.64" fill="#373a36"/></svg>