<svg xmlns="http://www.w3.org/2000/svg" width="1164.16" height="277.71" viewBox="0 0 1164.16 277.71"><path d="M4.88,201.62a4.92,4.92,0,0,0,5-4.31H44.22a4.38,4.38,0,0,0,4.24,3.9,4.53,4.53,0,0,0,1.88-.4L66.64,229a6.67,6.67,0,0,0-.09,11.11L50.48,268a4,4,0,0,0-1.59-.33,4.34,4.34,0,0,0-4.43,4.12l0,1a4.3,4.3,0,0,0,5.71,3.33l1-.5a4.37,4.37,0,0,0,1.92-3.55,4.42,4.42,0,0,0-1.78-3.59l16.06-27.85a7.06,7.06,0,0,0,2.72.65A6.7,6.7,0,0,0,77,235.06l32.73,0a4.28,4.28,0,0,0,4.23,4,3.88,3.88,0,0,0,1.86-.38l17,29.4a5.23,5.23,0,0,0-2.31,4.26,5.34,5.34,0,0,0,2.17,4.35l.92.55a5.21,5.21,0,0,0,2.13.5,5.31,5.31,0,0,0,5.37-4.92l0-1a5.26,5.26,0,0,0-5.14-4.66,4.7,4.7,0,0,0-2.19.45l-17-29.42a4.42,4.42,0,0,0,1.72-3.36,4.34,4.34,0,0,0-1.82-3.61l16.38-28.4a6.91,6.91,0,0,0,2.69.65,6.71,6.71,0,0,0,6.78-6.12l31.61,0a5.3,5.3,0,0,0,5.14,4.67,5.65,5.65,0,0,0,2.17-.45L197.79,230a5.25,5.25,0,0,0-2.31,4.26A5.29,5.29,0,0,0,206,235h31.9a6.67,6.67,0,0,0,13.33-.31,6.78,6.78,0,0,0-2.93-5.64l16.33-28.32a3.8,3.8,0,0,0,1.59.38,4.14,4.14,0,0,0,4.17-3.88l35.15,0a4.59,4.59,0,0,0,4.47,4,4.6,4.6,0,0,0,2.82-8.33l16.44-28.54a5.41,5.41,0,0,0,2.33.53,6,6,0,0,0,6-5.45l31.77,0a5.27,5.27,0,0,0,5.16,5,5.11,5.11,0,0,0,2.81-.76l17,29.45a4.26,4.26,0,0,0-1.6,3.28,4.35,4.35,0,0,0,8.64.76h32.26a6.69,6.69,0,0,0,6.52,6.07,6.89,6.89,0,0,0,3.19-.76l16.49,28.56a4.29,4.29,0,0,0-1.59,3.26A4.36,4.36,0,0,0,460,237.8l-17.59,30.46a4.66,4.66,0,0,0-1.55-.33,4.35,4.35,0,0,0-4.38,3.74l0,1a4.34,4.34,0,0,0,4.23,4,4.66,4.66,0,0,0,1.84-.38l1-.59a4.32,4.32,0,0,0-.19-6.93l17.55-30.41a4.33,4.33,0,0,0,6.16-3.41l33.13,0a5.91,5.91,0,0,0,8.36,4.64l16.66,28.84A4.61,4.61,0,0,0,525,276l1,.53a5.14,5.14,0,0,0,1.67.36,4.62,4.62,0,0,0,4.66-4.2l0-1a4.63,4.63,0,0,0-4.48-4,5,5,0,0,0-1.76.33L509.37,239a6,6,0,0,0,2.55-4.73,6,6,0,0,0-2.41-4.88l16-27.73a5.05,5.05,0,0,0,1.9.41,5.32,5.32,0,0,0,5.38-4.95h34.15a4.41,4.41,0,0,0,4.24,3.88,4.61,4.61,0,0,0,1.79-.36l17,29.49a5.29,5.29,0,1,0,8.38,4.73v-1a5.31,5.31,0,0,0-5.16-4.76,5.62,5.62,0,0,0-2.31.5l-17-29.47a4.33,4.33,0,0,0,0-7L591,163.56a5,5,0,0,0,1.88.38,5.3,5.3,0,0,0,5.33-4.57h32.92a5.93,5.93,0,0,0,5.78,5.38,6.31,6.31,0,0,0,2.31-.4l16.47,28.49a4.32,4.32,0,0,0,.19,7.16l.95.45a4,4,0,0,0,1.34.26,4.33,4.33,0,0,0,4.35-3.59l33.63,0a5.93,5.93,0,1,0,9.52-5.6l15.62-27a6.4,6.4,0,0,0,2.31.53,6,6,0,0,0,6-5.64l33.25,0a4.62,4.62,0,0,0,4.48,3.84,4.73,4.73,0,0,0,1.71-.29l.9-.48a4.6,4.6,0,0,0,.27-7.49l16.35-28.37a6.17,6.17,0,0,0,2.16.45,5.92,5.92,0,0,0,6-5.4l32,0a5.9,5.9,0,0,0,8.57,5.07l16.59,28.75a4.48,4.48,0,0,0-1.76,3.38,4.38,4.38,0,0,0,1.71,3.52L835.28,191a6.08,6.08,0,0,0-2.72-.72,5.92,5.92,0,0,0-6,5.74l.07,1a5.92,5.92,0,0,0,11.78-.76,5.85,5.85,0,0,0-2.23-4.73l16.59-28.76a4,4,0,0,0,1.71.38,4.33,4.33,0,0,0,4.38-3.9h33.63a5.94,5.94,0,0,0,5.81,5.33,5.86,5.86,0,0,0,2.64-.57l15.9,27.28a5.93,5.93,0,1,0,9.21,5.47l33.39-.12a4.4,4.4,0,0,0,4.24,3.86,4.6,4.6,0,0,0,2-.45L982,228.18a6.68,6.68,0,0,0,0,11l-16.2,28.33a3.88,3.88,0,0,0-1.48-.31,4.37,4.37,0,1,0,1.62,8.38l.88-.53a4.26,4.26,0,0,0,1.78-3.4,4.32,4.32,0,0,0-1.88-3.69l16.16-28.28a6.24,6.24,0,0,0,2.74.65,6.68,6.68,0,0,0,6.79-6.17l31.1-.12a6,6,0,0,0,5.81,5.6,6.07,6.07,0,0,0,2.71-.62l16.64,28.56a4.3,4.3,0,0,0-1.76,3.4,4.36,4.36,0,0,0,1.81,3.62l.9.5a4.78,4.78,0,0,0,1.57.33,4.37,4.37,0,1,0,.17-8.73,4.53,4.53,0,0,0-1.81.36l-16.64-28.56a5.9,5.9,0,0,0-.19-9.72l15.81-27.68a6.06,6.06,0,0,0,2.19.48,6,6,0,0,0,6-5.38l32.11-.12a6,6,0,0,0,5.81,5.36,6.19,6.19,0,0,0,2.57-.53l16.4,28.16a5,5,0,1,0,8.13,4.52l0-1a5,5,0,0,0-7.31-4.07l-16.37-28.11a6,6,0,0,0,2.57-4.76,5.9,5.9,0,0,0-2.6-5l15.76-27.54a5.64,5.64,0,0,0,2.36.55,5.93,5.93,0,0,0,6-5.57l33.27-.14a4.36,4.36,0,0,0,4.26,4.14,4.58,4.58,0,0,0,2-.45l.88-.58a4.28,4.28,0,0,0,1.62-3.28,4.37,4.37,0,0,0-8.66-.86l-33.35.15a5.88,5.88,0,0,0-8.37-4.69l-16.62-28.52a4.88,4.88,0,1,0-7.83-4.3l-32.54.11a5.93,5.93,0,1,0-9.4,5.41l-16.2,28.3a4.79,4.79,0,0,0-2-.46,5.07,5.07,0,0,0-5.12,4.6l-33.53.12a5.05,5.05,0,0,0-4.93-4.69,5.49,5.49,0,0,0-2.26.5l-17-29.18a4.35,4.35,0,1,0-7-4.15l-34.44.15a5.06,5.06,0,0,0-4.93-4.6,4.93,4.93,0,0,0-2.26.5L900.61,86.51a4.28,4.28,0,0,0,1.84-3.45,4.34,4.34,0,0,0-1.72-3.52l-.86-.55a5.22,5.22,0,0,0-1.71-.38,4.38,4.38,0,0,0-4.43,4.14l-34.27,0a5.1,5.1,0,0,0-4.93-4.48,4.8,4.8,0,0,0-2.23.5l-.88.53a5,5,0,0,0-2,4,5.11,5.11,0,0,0,2.14,4.23l-16.4,28.42a6.05,6.05,0,0,0-2.35-.55,6,6,0,0,0-6,5.15H794.72a5.89,5.89,0,0,0-5.78-5.41,6.12,6.12,0,0,0-2.38.46L770.35,87.49a5.07,5.07,0,0,0-.05-8.21l16.4-28.42a5.77,5.77,0,0,0,2,.43,6,6,0,0,0,6-5.24l0-1A5.92,5.92,0,0,0,789,39.44a6,6,0,0,0-2.45.47l-1,.57a5.91,5.91,0,0,0,.24,9.93L769.4,78.78a4.7,4.7,0,0,0-2-.45,5.09,5.09,0,0,0-5.09,4.47H728A4.39,4.39,0,0,0,723.79,79a4.44,4.44,0,0,0-1.73.33l-.91.52a4.32,4.32,0,0,0,0,7L704,116.53a4.36,4.36,0,0,0-1.71-.36,4.59,4.59,0,0,0-4.69,4.41H662.72a4.35,4.35,0,0,0-8.66.56,4.27,4.27,0,0,0,1.76,3.55l-16.54,28.66a5.94,5.94,0,0,0-8.19,5H598.22a5.29,5.29,0,0,0-5.19-5,4.68,4.68,0,0,0-2.26.5l-16.78-29a4.35,4.35,0,0,0-.14-7.09l17.42-30.21a3.89,3.89,0,0,0,1.4.29,4.37,4.37,0,0,0,.17-8.74,4.11,4.11,0,0,0-1.52.29l-.93.43a4.37,4.37,0,0,0,0,7.28l-17.42,30.2a3.78,3.78,0,0,0-1.46-.31,4.37,4.37,0,0,0-4.37,3.67l-33.71,0a5.95,5.95,0,0,0-8.18-4.81L508.94,87.68a5.21,5.21,0,0,0,2.26-4.21A5.27,5.27,0,0,0,509,79.06l-.9-.52a5.41,5.41,0,0,0-2.07-.47,5.31,5.31,0,1,0-.19,10.61,5.18,5.18,0,0,0,2.26-.48l16.23,28.09a5.93,5.93,0,0,0-.12,9.88l-16.54,28.68a4.34,4.34,0,0,0-6.16,3.52l-34,0a5.37,5.37,0,0,0-5.17-4.76,5.59,5.59,0,0,0-2.11.41l-16.5-28.56a5.2,5.2,0,0,0,1.95-4,5.29,5.29,0,0,0-10.52-.86l-32.25,0a6,6,0,0,0-5.8-5.36,5.85,5.85,0,0,0-2.48.5l-.9.5a5.9,5.9,0,0,0-2.65,4.81,6,6,0,0,0,2.53,5L377.2,154.51a5.23,5.23,0,0,0-7.73,3.91l-31.85,0a5.91,5.91,0,0,0-5.78-5.38,5.84,5.84,0,0,0-2.5.53l-16.71-28.9a4.35,4.35,0,0,0-.07-7l16.18-28.09a7,7,0,0,0,2.79.67,6.71,6.71,0,0,0,6.78-6.29l0-1a6.67,6.67,0,0,0-6.53-6,6.41,6.41,0,0,0-2.92.61L328,78a6.67,6.67,0,0,0-.1,11.05l-16.21,28.13a4.6,4.6,0,0,0-1.54-.33,4.33,4.33,0,0,0-4.38,3.85H271.67a5.3,5.3,0,1,0-8.33,4.86l-15.9,27.56a6.56,6.56,0,0,0-2.67-.59,6.67,6.67,0,0,0-6.76,5.95H205.19a4.6,4.6,0,0,0-4.5-4.1,4,4,0,0,0-1.57.26l-16.16-28a6.68,6.68,0,1,0-10-6l-32.11,0a5.29,5.29,0,1,0-8.4,4.93l-15.68,27.18a6.78,6.78,0,0,0-2.79-.67,6.69,6.69,0,0,0-6.78,6.33H77A6.66,6.66,0,0,0,67.55,153L51.32,124.86a4.36,4.36,0,1,0-7-4.09l0,1a4.41,4.41,0,0,0,4.26,4,4.72,4.72,0,0,0,1.91-.43l16.2,28.08a6.69,6.69,0,0,0,0,11.09L50.29,192.84a4.23,4.23,0,0,0-1.66-.36,4.4,4.4,0,0,0-4.41,3.81H9.9A4.94,4.94,0,0,0,3,192.12l-.88.53a4.95,4.95,0,0,0,2.81,9Zm47.27,70.47a3.35,3.35,0,1,1-3.28-3.4A3.35,3.35,0,0,1,52.15,272.09Zm391.93.27A3.35,3.35,0,1,1,440.8,269,3.37,3.37,0,0,1,444.08,272.36ZM1116.8,229a4,4,0,1,1-.14,8.07,4,4,0,1,1,.14-8.07ZM854.44,162.18a3.34,3.34,0,1,1,3.4-3.29A3.34,3.34,0,0,1,854.44,162.18Zm65.57,39a4.91,4.91,0,1,1,5-4.81A4.92,4.92,0,0,1,920,201.17Zm65.6,38.17a5.64,5.64,0,1,1,5.76-5.54A5.65,5.65,0,0,1,985.61,239.34Zm48.69-5.52a4.9,4.9,0,1,1-4.8-5A4.89,4.89,0,0,1,1034.3,233.82Zm16.4-33.22a4.91,4.91,0,1,1,5-4.81A4.92,4.92,0,0,1,1050.7,200.6Zm65.67-47.75a4.91,4.91,0,1,1-5,4.81A4.91,4.91,0,0,1,1116.37,152.85ZM1046,120.24a4.9,4.9,0,1,1,4.81,5A4.89,4.89,0,0,1,1046,120.24Zm-13.94,33.7,16.21-28.32a5.62,5.62,0,0,0,2.52.62,5.89,5.89,0,0,0,6-5.45l32.57-.12a4.87,4.87,0,0,0,4.73,4.26,5.17,5.17,0,0,0,2.19-.5l16.61,28.47a5.92,5.92,0,0,0-.09,9.66L1097,190.12a6.1,6.1,0,0,0-2.21-.5,6,6,0,0,0-6,5.46l-32.11.14a5.92,5.92,0,0,0-5.81-5.45,5.52,5.52,0,0,0-2.45.5l-16-27.38-.45-.81a5,5,0,0,0,0-8.14Zm-8,4.62a5.07,5.07,0,0,0,4.93,4.52,5.15,5.15,0,0,0,2.19-.47l16.38,28.13a5.93,5.93,0,0,0,0,9.93l-15.8,27.66a5.47,5.47,0,0,0-2.28-.5,5.91,5.91,0,0,0-6,5.16l-31.15.12a6.64,6.64,0,0,0-9.53-5.43l-16.37-28.13a4.31,4.31,0,0,0-.05-6.78l17.19-30a4.92,4.92,0,0,0,1.78.36,5,5,0,0,0,5.09-4.41ZM985.56,154a4,4,0,1,1-4.12,4A4.06,4.06,0,0,1,985.56,154Zm-26.23-32.82a4.36,4.36,0,0,0,4.26,4,4,4,0,0,0,1.86-.37l17,29.18a5,5,0,0,0,.17,8.18l-17.16,30a4.24,4.24,0,0,0-1.65-.36,4.36,4.36,0,0,0-4.4,3.86l-33.39.12a5.93,5.93,0,0,0-5.81-5.45,5.56,5.56,0,0,0-2.5.52l-15.92-27.32a6,6,0,0,0,2.5-4.72,5.86,5.86,0,0,0-2.57-5l11-19.29,5.24-9.09a4.73,4.73,0,0,0,1.83.39,5.09,5.09,0,0,0,5.12-4.53ZM920,116.72a4,4,0,1,1-4.12,4A4,4,0,0,1,920,116.72ZM850.39,83.3a4,4,0,1,1,4,4.12A4,4,0,0,1,850.39,83.3Zm2,4.71a5,5,0,0,0,1.93.43,5.05,5.05,0,0,0,5.12-4.57h34.37A4.33,4.33,0,0,0,898,87.35a4.41,4.41,0,0,0,1.74-.31l17.16,29.68a5,5,0,0,0,.15,8.21l-16.31,28.35a5.83,5.83,0,0,0-2.26-.5,6,6,0,0,0-6,5.5H858.82a4.35,4.35,0,0,0-4.24-3.81,4.65,4.65,0,0,0-1.71.33L836.23,126a5.88,5.88,0,0,0-.21-9.57ZM784,45.27a4.9,4.9,0,1,1,4.81,5A4.92,4.92,0,0,1,784,45.27Zm-77.11,151a4.89,4.89,0,1,1-4.81-5A4.91,4.91,0,0,1,706.85,196.24Zm16.73-32.3a4.89,4.89,0,1,1,5-4.81A4.9,4.9,0,0,1,723.58,163.94Zm65.33-47.79a4.9,4.9,0,1,1-5,4.8A4.88,4.88,0,0,1,788.91,116.15Zm-68.54-32.9a3.32,3.32,0,0,1,3.4-3.26,3.34,3.34,0,1,1-3.4,3.26ZM704.87,117,722,87.32a4,4,0,0,0,1.62.36,4.34,4.34,0,0,0,4.4-3.85h34.3A5,5,0,0,0,769.44,88l16.21,28a5.86,5.86,0,0,0-2.73,4.88,6,6,0,0,0,2.68,5.1l-16.32,28.29a5,5,0,0,0-1.79-.4,4.6,4.6,0,0,0-4.69,4.38H729.55a5.91,5.91,0,0,0-5.76-5.17,6.17,6.17,0,0,0-2.35.43l-16.71-28.92a4.59,4.59,0,0,0,.14-7.61Zm-49.79,4.14a3.35,3.35,0,1,1,3.28,3.38A3.34,3.34,0,0,1,655.08,121.17Zm1.62,4a4.13,4.13,0,0,0,1.64.36,4.32,4.32,0,0,0,4.4-4h34.92a4.64,4.64,0,0,0,4.45,3.81,4.93,4.93,0,0,0,1.6-.27l16.73,29a5.91,5.91,0,0,0-.1,9.85l-15.56,27a6.21,6.21,0,0,0-2.72-.71,5.93,5.93,0,0,0-6,5.83v0l-33.51,0a4.34,4.34,0,0,0-4.24-4.12,4.57,4.57,0,0,0-1.69.31l-16.44-28.47a5.89,5.89,0,0,0,0-10Zm-19.61,28.71a4.91,4.91,0,1,1-5,4.81A4.9,4.9,0,0,1,637.09,153.92ZM505.82,87.66a4.29,4.29,0,1,1,.15-8.57,4.29,4.29,0,1,1-.15,8.57ZM440.25,202.22a5.65,5.65,0,1,1,5.76-5.55A5.65,5.65,0,0,1,440.25,202.22Zm70.64,32.05a4.9,4.9,0,1,1-4.81-5A4.91,4.91,0,0,1,510.89,234.27Zm63.72-37.55a3.35,3.35,0,0,1-6.69-.12,3.35,3.35,0,1,1,6.69.12ZM571.44,118a3.34,3.34,0,1,1-3.4,3.28A3.37,3.37,0,0,1,571.44,118Zm-46.36,8.71a5.52,5.52,0,0,0,2.33.52,5.9,5.9,0,0,0,6-5.55H567a4.38,4.38,0,0,0,4.26,4,4.13,4.13,0,0,0,1.79-.36l16.77,29a5.41,5.41,0,0,0-2.23,4.22A5.27,5.27,0,0,0,590,163l-17.07,29.58a4.43,4.43,0,0,0-1.59-.33,4.32,4.32,0,0,0-4.38,3.83H532.74a5.28,5.28,0,0,0-5.14-4.64,5.2,5.2,0,0,0-2,.36L508.51,162.2a4.43,4.43,0,0,0,1.67-3.31,4.29,4.29,0,0,0-1.69-3.49Zm-19.21,28.8a3.32,3.32,0,0,1,3.26,3.4,3.33,3.33,0,1,1-3.26-3.4Zm-43.75,8.78a5.28,5.28,0,0,0,5.36-4.83h34a4.38,4.38,0,0,0,4.24,3.76,4.72,4.72,0,0,0,1.83-.38l17.07,29.54a5.37,5.37,0,0,0-2.43,4.35,5.31,5.31,0,0,0,2.4,4.52l-16,27.69a5.7,5.7,0,0,0-2.55-.65,6,6,0,0,0-6,5.64H467a4.33,4.33,0,0,0-6.23-3.4L444.3,202a6.65,6.65,0,0,0,.07-10.71l15.8-27.39A5.47,5.47,0,0,0,462.12,164.25Zm-21.68-47.13a4.29,4.29,0,1,1-4.35,4.19A4.28,4.28,0,0,1,440.44,117.12Zm-45.91,9.5a5.59,5.59,0,0,0,2.33.52,5.89,5.89,0,0,0,6-5.45l32.21,0a5.3,5.3,0,0,0,5.16,5,5.23,5.23,0,0,0,2.59-.67l16.45,28.46a5.37,5.37,0,0,0-2.38,4.34,5.3,5.3,0,0,0,2.36,4.5l-15.78,27.34a6.23,6.23,0,0,0-3-.78,6.65,6.65,0,0,0-6.78,6.26H401.5a4.34,4.34,0,0,0-4.26-4,3.87,3.87,0,0,0-2,.45l-17-29.52a5.25,5.25,0,0,0-.12-8Zm-19.76,28.25a4.29,4.29,0,1,1-4.35,4.22A4.28,4.28,0,0,1,374.77,154.87ZM70.19,240.27a5.65,5.65,0,1,1,5.74-5.54A5.66,5.66,0,0,1,70.19,240.27Zm47.15-5.52a3.35,3.35,0,1,1-3.28-3.4A3.32,3.32,0,0,1,117.34,234.75Zm61.84-33.85a4.28,4.28,0,1,1,4.35-4.21A4.31,4.31,0,0,1,179.18,200.9Zm71,33.78a5.65,5.65,0,1,1-5.54-5.76A5.68,5.68,0,0,1,250.22,234.68Zm16-34.61a3.07,3.07,0,0,1,.1-6.14,3.07,3.07,0,1,1-.1,6.14Zm65.58-46a4.89,4.89,0,1,1-5,4.78A4.89,4.89,0,0,1,331.84,154.11Zm-21.73-36.25a3.35,3.35,0,1,1-3.41,3.28A3.35,3.35,0,0,1,310.11,117.86Zm-45.87,8.21a4.9,4.9,0,0,0,2.07.46,5.31,5.31,0,0,0,5.36-4.81h34.06a4.35,4.35,0,0,0,4.24,3.85,4.29,4.29,0,0,0,1.68-.31l16.69,28.87a5.92,5.92,0,0,0,.07,9.76L312,192.41a4.34,4.34,0,0,0-1.76-.38,4.61,4.61,0,0,0-4.66,4.16l-35.2,0a4.14,4.14,0,0,0-4-3.34,4.78,4.78,0,0,0-1.4.24l-16.47-28.49a6.65,6.65,0,0,0-.17-11Zm-19.49,27.47a5.66,5.66,0,1,1-5.74,5.55A5.63,5.63,0,0,1,244.75,153.54Zm-44.22,10.07a4.63,4.63,0,0,0,4.66-4.12H238a6.7,6.7,0,0,0,6.54,6.38,7.11,7.11,0,0,0,3-.67L264,193.62a4.08,4.08,0,0,0-.21,6.6l-16.36,28.32a6.92,6.92,0,0,0-2.73-.64,6.71,6.71,0,0,0-6.76,6.07l-31.87,0a5.29,5.29,0,0,0-5.17-5,5.16,5.16,0,0,0-2.21.43L182.22,201a5.28,5.28,0,0,0,.17-8.64l16.73-29A5.87,5.87,0,0,0,200.53,163.61Zm-20.74-48.42a5.66,5.66,0,1,1-5.75,5.55A5.68,5.68,0,0,1,179.79,115.19Zm-46.41,11a5.23,5.23,0,0,0,2.19.53,5.32,5.32,0,0,0,5.38-5h32.13a6.7,6.7,0,0,0,6.48,5.76,7,7,0,0,0,2.45-.42l16.16,28a4.68,4.68,0,0,0-2.19,3.83,4.59,4.59,0,0,0,2.17,4l-16.69,28.92a5.26,5.26,0,0,0-2.12-.48,5.34,5.34,0,0,0-5.38,4.93l-31.56,0a6.65,6.65,0,0,0-6.52-6.21,6.47,6.47,0,0,0-3,.67l-15.2-26.35a6.65,6.65,0,0,0,0-11Zm-19.35,27a5.65,5.65,0,1,1-5.76,5.54A5.67,5.67,0,0,1,114,153.21ZM64.69,159a5.64,5.64,0,1,1,5.55,5.73A5.66,5.66,0,0,1,64.69,159ZM51.22,193.41l16.31-28.3a6.92,6.92,0,0,0,2.68.62A6.69,6.69,0,0,0,77,159.54h30.27a6.72,6.72,0,0,0,6.52,6,6.58,6.58,0,0,0,2.88-.6l15.24,26.33a6.67,6.67,0,0,0,.12,11l-16.38,28.4a3.79,3.79,0,0,0-1.57-.34A4.36,4.36,0,0,0,109.7,234H77a6.7,6.7,0,0,0-6.54-6.07,6.47,6.47,0,0,0-2.88.6L51.2,200.29a4.33,4.33,0,0,0,0-6.88Zm-46.17-.69a3.94,3.94,0,1,1-4,3.85A3.93,3.93,0,0,1,5.05,192.72Z" fill="#9b9b9b" opacity="0.3"/><path d="M1043.19,60.79a3.94,3.94,0,0,0-4,3.44h-27.46a3.5,3.5,0,0,0-3.38-3.12,3.58,3.58,0,0,0-1.5.33l-13-22.56a5.27,5.27,0,0,0,2.41-4.35A5.37,5.37,0,0,0,993.93,30l12.83-22.24A3.22,3.22,0,0,0,1008,8a3.46,3.46,0,0,0,3.53-3.29l0-.81a3.51,3.51,0,0,0-3.36-2.87,3.44,3.44,0,0,0-1.2.21l-.82.4a3.49,3.49,0,0,0-1.54,2.83A3.54,3.54,0,0,0,1006,7.36L993.21,29.61a5.45,5.45,0,0,0-2.17-.52,5.35,5.35,0,0,0-5.42,5l-26.15,0a3.42,3.42,0,0,0-3.38-3.19,3.19,3.19,0,0,0-1.48.3L941.05,7.72a4.21,4.21,0,0,0,.11-6.88L940.42.4a4.12,4.12,0,0,0-1.69-.4,4.25,4.25,0,0,0-4.3,3.94l0,.81a4.21,4.21,0,0,0,4.11,3.73,3.84,3.84,0,0,0,1.75-.36l13.57,23.5a3.53,3.53,0,0,0-1.37,2.68A3.45,3.45,0,0,0,954,37.19L940.9,59.88a5.29,5.29,0,0,0-7.57,4.37l-25.25,0A4.24,4.24,0,0,0,904,60.54a4.54,4.54,0,0,0-1.73.36L889.08,38.14a4.18,4.18,0,0,0,1.85-3.4,4.23,4.23,0,0,0-8.42-.63H857a5.33,5.33,0,0,0-10.65.25,5.39,5.39,0,0,0,2.34,4.51L835.67,61.49a3.12,3.12,0,0,0-1.27-.3,3.31,3.31,0,0,0-3.33,3.1l-28.08,0a3.67,3.67,0,0,0-3.58-3.24,3.68,3.68,0,0,0-2.24,6.66L784,90.53a4.33,4.33,0,0,0-1.86-.42,4.74,4.74,0,0,0-4.81,4.35l-25.39,0a4.22,4.22,0,0,0-4.12-4,4.16,4.16,0,0,0-2.25.61L732,67.56a3.41,3.41,0,0,0,1.27-2.63,3.47,3.47,0,0,0-6.9-.6H700.62a5.35,5.35,0,0,0-5.21-4.85,5.45,5.45,0,0,0-2.55.61L679.68,37.27a3.43,3.43,0,0,0,0-5.38L693.69,7.55a3.92,3.92,0,0,0,1.24.27,3.49,3.49,0,0,0,3.5-3l0-.82A3.47,3.47,0,0,0,695.06.84a3.74,3.74,0,0,0-1.46.3l-.78.48a3.45,3.45,0,0,0-1.31,2.64A3.49,3.49,0,0,0,693,7.15l-14,24.3a3.58,3.58,0,0,0-1.43-.34,3.49,3.49,0,0,0-3.5,3.06l-26.46,0A4.74,4.74,0,0,0,643,30a4.65,4.65,0,0,0-2.08.44l-13.31-23a3.69,3.69,0,0,0,.08-6.05L626.9,1a4,4,0,0,0-1.33-.29A3.7,3.7,0,0,0,621.84,4l0,.82a3.69,3.69,0,0,0,3.57,3.23,3.88,3.88,0,0,0,1.41-.26L640.17,30.9a4.73,4.73,0,0,0-2,3.78,4.79,4.79,0,0,0,1.92,3.9L627.28,60.73a4.14,4.14,0,0,0-1.52-.32,4.23,4.23,0,0,0-4.3,4H594.17a3.5,3.5,0,0,0-3.38-3.1,3.58,3.58,0,0,0-1.43.29L575.77,38a4.22,4.22,0,1,0-6.69-3.78V35a4.24,4.24,0,0,0,4.12,3.81,4.48,4.48,0,0,0,1.85-.4L588.66,62a3.43,3.43,0,0,0-1.42,2.72,3.51,3.51,0,0,0,1.38,2.85L575,91.19a4,4,0,0,0-1.5-.3,4.23,4.23,0,0,0-4.26,3.65h-26.3a4.73,4.73,0,0,0-4.62-4.3,5.13,5.13,0,0,0-1.84.33L523.31,67.81a3.47,3.47,0,0,0-.15-5.73l-.76-.36a3.51,3.51,0,0,0-1.07-.21,3.47,3.47,0,0,0-3.48,2.87L491,64.4a4.74,4.74,0,1,0-7.61,4.47l-12.47,21.6a5.21,5.21,0,0,0-1.85-.42,4.79,4.79,0,0,0-4.83,4.51l-26.56,0a3.69,3.69,0,0,0-3.57-3.06,3.5,3.5,0,0,0-1.37.23l-.73.38a3.65,3.65,0,0,0-1.65,3,3.61,3.61,0,0,0,1.44,3l-13.06,22.67a4.73,4.73,0,0,0-6.52,4l-25.57,0a4.77,4.77,0,0,0-4.64-4.57,4.88,4.88,0,0,0-2.21.51l-13.25-23a3.45,3.45,0,0,0,0-5.52l13.23-23a5,5,0,0,0,2.17.57,4.74,4.74,0,0,0,4.83-4.58l-.06-.84a4.73,4.73,0,0,0-9.41.61,4.64,4.64,0,0,0,1.79,3.78l-13.26,23a3.27,3.27,0,0,0-1.37-.3A3.45,3.45,0,0,0,361,94.6H334.14a4.75,4.75,0,0,0-4.64-4.26,4.65,4.65,0,0,0-2.11.45L314.69,69a4.74,4.74,0,1,0-7.36-4.37l-26.68.09a3.51,3.51,0,0,0-3.38-3.08,3.6,3.6,0,0,0-1.58.37L262.63,39.57a5.32,5.32,0,0,0,0-8.82L275.58,8.12a3.07,3.07,0,0,0,1.17.25,3.49,3.49,0,1,0,.12-7,3.51,3.51,0,0,0-1.41.28l-.7.42a3.42,3.42,0,0,0-1.43,2.72,3.46,3.46,0,0,0,1.5,3L261.92,30.35a4.86,4.86,0,0,0-2.18-.52,5.33,5.33,0,0,0-5.42,4.93l-24.85.09a4.77,4.77,0,0,0-4.64-4.46,4.9,4.9,0,0,0-2.17.49L209.37,8.06a3.46,3.46,0,0,0,1.41-2.72,3.52,3.52,0,0,0-1.45-2.89l-.72-.4a4,4,0,0,0-1.26-.26,3.49,3.49,0,0,0-.13,7,3.6,3.6,0,0,0,1.44-.29L222,31.3a4.72,4.72,0,0,0,.15,7.76L209.48,61.17a5,5,0,0,0-1.75-.38,4.76,4.76,0,0,0-4.81,4.3l-25.65.09a4.75,4.75,0,0,0-4.64-4.28,4.89,4.89,0,0,0-2,.42l-13.1-22.49A4,4,0,0,0,155,31.62,4,4,0,0,0,151,35.21l0,.82a4,4,0,0,0,3.93,3.69,3.91,3.91,0,0,0,1.9-.44l13.09,22.46a4.7,4.7,0,0,0,0,7.79l-12.58,22a4.45,4.45,0,0,0-1.89-.44,4.74,4.74,0,0,0-4.81,4.45L124,95.66a3.49,3.49,0,0,0-3.4-3.31,3.76,3.76,0,0,0-1.56.36l-.7.46A3.47,3.47,0,1,0,124,96.48l26.64-.11a4.74,4.74,0,0,0,4.62,4.2,4.66,4.66,0,0,0,2.08-.46l13.27,22.78a3.9,3.9,0,0,0,2.3,7,3.9,3.9,0,0,0,3.95-3.56l26-.09a4.74,4.74,0,0,0,9.45-.42,4.81,4.81,0,0,0-1.94-3.9l12.95-22.61a3.79,3.79,0,0,0,1.61.36A4,4,0,0,0,229,96l26.79-.1a4,4,0,0,0,3.94,3.75,4.51,4.51,0,0,0,1.8-.4l13.58,23.31a3.47,3.47,0,1,0,5.55,3.31l27.51-.12a4,4,0,0,0,3.94,3.67,3.84,3.84,0,0,0,1.81-.4l13.69,23.71a3.44,3.44,0,0,0-.1,5.57l.69.44a4,4,0,0,0,1.36.31,3.5,3.5,0,0,0,3.54-3.31l27.38,0a4.07,4.07,0,0,0,3.94,3.57,3.79,3.79,0,0,0,1.79-.4l.7-.42a4,4,0,0,0,1.63-3.15,4.1,4.1,0,0,0-1.71-3.39l13.1-22.7a4.69,4.69,0,0,0,1.89.44,4.77,4.77,0,0,0,4.77-4.11h25.61a4.71,4.71,0,0,0,4.62,4.32,5,5,0,0,0,1.9-.36L431.68,152a4.05,4.05,0,0,0,0,6.56l-13.1,22.7a4.94,4.94,0,0,0-1.64-.34,4.77,4.77,0,0,0-4.79,4.19l0,.81a4.73,4.73,0,0,0,4.64,4.47,4.79,4.79,0,0,0,2-.38l.78-.45a4.72,4.72,0,0,0-.19-7.93l13.08-22.67a3.84,3.84,0,0,0,1.56.36,4.08,4.08,0,0,0,4.07-3.57h27.42a3.51,3.51,0,0,0,3.38,3.08,3.7,3.7,0,0,0,1.39-.27l.72-.41a3.45,3.45,0,0,0,0-5.61l13.69-23.73a3.71,3.71,0,0,0,5.12-3.24h27.85a3.48,3.48,0,1,0,5.52-3.29l13.21-22.89a4.74,4.74,0,0,0,6.54-4h26.26a4.24,4.24,0,0,0,4.15,4,3.8,3.8,0,0,0,1.8-.4l13.41,23.2a3.47,3.47,0,0,0,.11,5.66L574.74,152a3.24,3.24,0,0,0-1.12-.23,3.49,3.49,0,0,0-.13,7,3.1,3.1,0,0,0,1.21-.23l.75-.34a3.49,3.49,0,0,0,0-5.81L589.4,128.2a3,3,0,0,0,1.16.24,3.49,3.49,0,0,0,3.5-2.93H621a4.71,4.71,0,0,0,4.6,4.2,4.82,4.82,0,0,0,1.94-.36l13,22.47a4.18,4.18,0,0,0-1.8,3.37,4.22,4.22,0,0,0,1.78,3.51l.73.42A4.24,4.24,0,1,0,643,151a4.18,4.18,0,0,0-1.8.38l-13-22.43a4.82,4.82,0,0,0,2.17-3.9,4.74,4.74,0,0,0-2.08-4l13.22-22.92a3.46,3.46,0,0,0,4.92-2.81l27.15,0a4.27,4.27,0,0,0,4.13,3.8,4.42,4.42,0,0,0,1.69-.32l13.18,22.82a4.16,4.16,0,0,0-1.56,3.17,4.22,4.22,0,0,0,8.4.69l25.77,0a4.74,4.74,0,0,0,4.64,4.27,4.55,4.55,0,0,0,2-.39l.72-.4a4.73,4.73,0,0,0,.09-7.82l13.08-22.7a4.29,4.29,0,0,0,1.94.53,4.21,4.21,0,0,0,4.24-3.65l25.45,0a4.71,4.71,0,0,0,4.62,4.3,4.62,4.62,0,0,0,2-.42l13.35,23.08a3.49,3.49,0,0,0-1.41,2.72,3.4,3.4,0,0,0,1.47,2.91l-12.93,22.44a5.66,5.66,0,0,0-2.23-.53,5.36,5.36,0,0,0-5.42,5l0,.81a5.32,5.32,0,0,0,5.21,4.83,5.12,5.12,0,0,0,2.34-.49l.7-.4a5.32,5.32,0,0,0,.08-8.82l13-22.48a3.62,3.62,0,0,0,1.24.27,3.46,3.46,0,0,0,3.49-3.08h27.21a4.24,4.24,0,1,0,6.66-3.88l12.7-22a5.23,5.23,0,0,0,2.13.48,5.35,5.35,0,0,0,5.4-4.76h26.22a3.67,3.67,0,0,0,3.59,3.27,3.15,3.15,0,0,0,1.26-.2l12.91,22.34a5.33,5.33,0,1,0,8,4.75l25.65,0a4.23,4.23,0,0,0,8.42-.46,4.26,4.26,0,0,0-1.71-3.48l12.53-21.71a5.45,5.45,0,0,0,2.22.53,5.34,5.34,0,0,0,5.42-5h24.17a5.33,5.33,0,0,0,7.55,4.41l13,22.47a3.45,3.45,0,0,0-1.33,2.66,3.48,3.48,0,0,0,6.92.61l0-.82a3.53,3.53,0,0,0-3.41-3.23,3.68,3.68,0,0,0-1.52.34L993.85,99.24a5.34,5.34,0,0,0,0-8.86l13-22.57a3.51,3.51,0,0,0,4.85-2.76h27.42a4,4,0,0,0,5.55,3.33l.71-.42a4,4,0,0,0-2.25-7.17Zm-37.76-56.3a2.67,2.67,0,1,1,2.62,2.72A2.67,2.67,0,0,1,1005.43,4.49Zm-313.1-.21A2.67,2.67,0,1,1,695,7,2.68,2.68,0,0,1,692.33,4.28ZM154.91,38.9a3.22,3.22,0,1,1,3.29-3.17A3.24,3.24,0,0,1,154.91,38.9ZM364.5,92.3a2.66,2.66,0,1,1-2.72,2.62A2.66,2.66,0,0,1,364.5,92.3ZM312.12,61.15a3.92,3.92,0,1,1-4,3.84A3.93,3.93,0,0,1,312.12,61.15Zm-52.4-30.5a4.51,4.51,0,1,1-4.6,4.43A4.52,4.52,0,0,1,259.72,30.65Zm-38.91,4.41a3.92,3.92,0,1,1,3.85,4A3.92,3.92,0,0,1,220.81,35.06Zm-13.1,26.55a3.92,3.92,0,1,1-4,3.84A3.91,3.91,0,0,1,207.71,61.61ZM155.25,99.75a3.92,3.92,0,1,1,4-3.84A3.93,3.93,0,0,1,155.25,99.75Zm56.21,26.05a3.91,3.91,0,1,1-3.84-4A3.89,3.89,0,0,1,211.46,125.8ZM222.6,98.88,209.65,121.5a4.55,4.55,0,0,0-2-.49,4.71,4.71,0,0,0-4.79,4.35l-26,.1a3.9,3.9,0,0,0-3.78-3.41,4.24,4.24,0,0,0-1.75.4L158,99.71a4.74,4.74,0,0,0,.08-7.72l12.58-22a4.58,4.58,0,0,0,1.77.4A4.77,4.77,0,0,0,177.27,66l25.65-.12a4.73,4.73,0,0,0,4.64,4.36,4.65,4.65,0,0,0,2-.4l12.74,21.87.36.64A4,4,0,0,0,221,95.55,4,4,0,0,0,222.6,98.88ZM229,95.19a4.06,4.06,0,0,0-3.94-3.62,4.15,4.15,0,0,0-1.75.39L210.24,69.48a4.73,4.73,0,0,0,0-7.93l12.63-22.1a4.45,4.45,0,0,0,1.83.4,4.72,4.72,0,0,0,4.77-4.12l24.89-.1a5.31,5.31,0,0,0,7.6,4.34L275,62.44a3.46,3.46,0,0,0,0,5.42l-13.73,24a4,4,0,0,0-5.49,3.23Zm30.75,3.65A3.24,3.24,0,1,1,263,95.66,3.24,3.24,0,0,1,259.76,98.84Zm20.95,26.22a3.48,3.48,0,0,0-3.41-3.23,3.22,3.22,0,0,0-1.48.3L262.25,98.82a4,4,0,0,0,1.61-3.14,4,4,0,0,0-1.75-3.4l13.71-23.94a3.34,3.34,0,0,0,1.31.28,3.47,3.47,0,0,0,3.52-3.08l26.68-.09A4.73,4.73,0,0,0,312,69.8a4.32,4.32,0,0,0,2-.42l12.73,21.83a4.74,4.74,0,0,0-2,3.77,4.69,4.69,0,0,0,2.05,4l-8.82,15.4-4.18,7.27a3.83,3.83,0,0,0-1.47-.31,4.06,4.06,0,0,0-4.09,3.61Zm31.43,3.55a3.23,3.23,0,1,1,3.29-3.17A3.23,3.23,0,0,1,312.14,128.61Zm55.6,26.7a3.24,3.24,0,1,1-3.18-3.29A3.23,3.23,0,0,1,367.74,155.31Zm-1.62-3.76a4.18,4.18,0,0,0-1.54-.35,4,4,0,0,0-4.09,3.65H333a3.46,3.46,0,0,0-3.33-2.77,3.24,3.24,0,0,0-1.39.25l-13.71-23.72a4,4,0,0,0-.11-6.56l13-22.64a4.7,4.7,0,0,0,1.81.4,4.75,4.75,0,0,0,4.81-4.4H361a3.47,3.47,0,0,0,3.38,3,3.68,3.68,0,0,0,1.37-.27l13.29,23a4.7,4.7,0,0,0-1.88,3.67,4.78,4.78,0,0,0,2.05,4Zm54.68,34.14a3.91,3.91,0,1,1-3.84-4A3.91,3.91,0,0,1,420.8,185.69Zm61.61-120.6a3.91,3.91,0,1,1,3.84,4A3.92,3.92,0,0,1,482.41,65.09ZM469,90.89a3.91,3.91,0,1,1-4,3.84A3.91,3.91,0,0,1,469,90.89Zm-52.19,38.18a3.92,3.92,0,1,1,4-3.84A3.91,3.91,0,0,1,416.85,129.07Zm54.76,26.28a2.67,2.67,0,1,1-2.62-2.72A2.66,2.66,0,0,1,471.61,155.35Zm12.38-27L470.3,152.1a3.33,3.33,0,0,0-1.29-.29,3.47,3.47,0,0,0-3.52,3.08h-27.4a4,4,0,0,0-5.69-3.34l-12.95-22.4a4.69,4.69,0,0,0,2.19-3.9,4.75,4.75,0,0,0-2.15-4.07l13.05-22.61a3.89,3.89,0,0,0,1.42.33,3.7,3.7,0,0,0,3.75-3.5h26.56a4.75,4.75,0,0,0,6.48,3.78l13.35,23.1a3.68,3.68,0,0,0-.11,6.09Zm39.78-3.31a2.68,2.68,0,1,1-2.63-2.7A2.66,2.66,0,0,1,523.77,125.06Zm-1.3-3.23a3.21,3.21,0,0,0-1.31-.29,3.47,3.47,0,0,0-3.52,3.18H489.75a3.7,3.7,0,0,0-3.56-3,4.07,4.07,0,0,0-1.27.21L471.55,98.76a4.72,4.72,0,0,0,.08-7.87l12.43-21.56a5,5,0,0,0,2.17.57A4.74,4.74,0,0,0,491,65.24v0l26.77,0a3.47,3.47,0,0,0,3.39,3.29,3.6,3.6,0,0,0,1.35-.25L535.69,91a4.71,4.71,0,0,0,0,8ZM538.14,98.9a3.92,3.92,0,1,1,4-3.85A3.93,3.93,0,0,1,538.14,98.9ZM643,151.83a3.42,3.42,0,0,1,3.37,3.48,3.43,3.43,0,1,1-6.85-.13A3.42,3.42,0,0,1,643,151.83Zm52.39-91.52a4.51,4.51,0,1,1-4.6,4.43A4.51,4.51,0,0,1,695.39,60.31ZM639,34.7a3.92,3.92,0,1,1,3.84,4A3.93,3.93,0,0,1,639,34.7Zm-50.9,30a2.68,2.68,0,0,1,5.35.09,2.68,2.68,0,0,1-5.35-.09Zm2.53,62.92A2.68,2.68,0,1,1,593.3,125,2.7,2.7,0,0,1,590.58,127.63Zm37-7a4.33,4.33,0,0,0-1.86-.42,4.71,4.71,0,0,0-4.79,4.43H594.1a3.51,3.51,0,0,0-3.41-3.22,3.37,3.37,0,0,0-1.42.29L575.86,98.57a4.31,4.31,0,0,0,1.79-3.36,4.22,4.22,0,0,0-1.9-3.6L589.38,68a3.61,3.61,0,0,0,1.28.26,3.46,3.46,0,0,0,3.5-3.06H621.5a4.17,4.17,0,0,0,5.67,3.42l13.68,23.68a3.6,3.6,0,0,0-1.33,2.64,3.47,3.47,0,0,0,1.35,2.8Zm15.35-23A2.67,2.67,0,1,1,645.68,95,2.66,2.66,0,0,1,643,97.66Zm34.94-7a4.24,4.24,0,0,0-4.28,3.86H646.46a3.48,3.48,0,0,0-3.38-3,3.77,3.77,0,0,0-1.46.3L628,68.2a4.29,4.29,0,0,0,1.94-3.48A4.25,4.25,0,0,0,628,61.11L640.76,39a4.59,4.59,0,0,0,2,.51,4.77,4.77,0,0,0,4.82-4.5H674a3.45,3.45,0,0,0,5,2.71l13.16,22.8a5.32,5.32,0,0,0-.06,8.56L679.47,91A4.22,4.22,0,0,0,677.91,90.64Zm17.33,37.65a3.42,3.42,0,1,1,3.48-3.35A3.42,3.42,0,0,1,695.24,128.29Zm36.67-7.59a4.51,4.51,0,0,0-1.86-.41,4.71,4.71,0,0,0-4.81,4.35l-25.73,0a4.16,4.16,0,0,0-6.19-3.5L680.18,98.42a4.23,4.23,0,0,0,0-7.06L692.8,69.52a4.87,4.87,0,0,0,2.4.62,5.32,5.32,0,0,0,5.42-5h25.72a3.48,3.48,0,0,0,3.41,3.22,3.09,3.09,0,0,0,1.57-.37l13.62,23.58a4.2,4.2,0,0,0,.09,6.36Zm15.78-22.56a3.43,3.43,0,1,1,3.48-3.37A3.41,3.41,0,0,1,747.69,98.14ZM991,29.91a4.52,4.52,0,1,1-4.59,4.43A4.53,4.53,0,0,1,991,29.91Zm-37.67,4.41A2.67,2.67,0,1,1,956,37,2.66,2.66,0,0,1,953.35,34.32Zm-49.4,27a3.46,3.46,0,0,1,3.37,3.5,3.43,3.43,0,1,1-3.37-3.5Zm-56.75-27a4.52,4.52,0,1,1,4.43,4.6A4.53,4.53,0,0,1,847.2,34.38ZM834.38,62a2.45,2.45,0,1,1-.08,4.9,2.45,2.45,0,1,1,.08-4.9ZM782,98.74a3.91,3.91,0,1,1,4-3.82A3.92,3.92,0,0,1,782,98.74Zm17.36,29a2.67,2.67,0,1,1,2.71-2.62A2.67,2.67,0,0,1,799.36,127.7ZM836,121.14a4,4,0,0,0-1.66-.36,4.23,4.23,0,0,0-4.28,3.84H802.85a3.47,3.47,0,0,0-3.38-3.08,3.56,3.56,0,0,0-1.35.25L784.79,98.72a4.72,4.72,0,0,0-.06-7.79l13.14-22.78a3.57,3.57,0,0,0,1.41.3A3.69,3.69,0,0,0,803,65.12l28.12,0a3.3,3.3,0,0,0,3.16,2.67,3.87,3.87,0,0,0,1.12-.19l13.15,22.76a5.3,5.3,0,0,0,.14,8.78ZM851.57,99.2a4.52,4.52,0,1,1,4.58-4.43A4.51,4.51,0,0,1,851.57,99.2Zm35.33-8a3.7,3.7,0,0,0-3.73,3.29H857a5.36,5.36,0,0,0-5.23-5.1,5.67,5.67,0,0,0-2.41.53L836.2,67.18a3.26,3.26,0,0,0,.18-5.27l13.06-22.63a5.51,5.51,0,0,0,2.19.52A5.38,5.38,0,0,0,857,35l25.46,0a4.23,4.23,0,0,0,5.89,3.61l13.14,22.74a4.22,4.22,0,0,0-.13,6.91L888,91.36A4.53,4.53,0,0,0,886.9,91.16Zm16.56,38.67a4.52,4.52,0,1,1,4.6-4.43A4.53,4.53,0,0,1,903.46,129.83Zm37.07-8.78a4.09,4.09,0,0,0-1.74-.42,4.23,4.23,0,0,0-4.3,4H908.82a5.35,5.35,0,0,0-5.17-4.6,5.72,5.72,0,0,0-2,.34L888.78,98a3.74,3.74,0,0,0,1.75-3.06,3.66,3.66,0,0,0-1.73-3.17l13.33-23.11a4.18,4.18,0,0,0,1.69.38,4.25,4.25,0,0,0,4.3-3.93l25.21,0a5.31,5.31,0,0,0,5.21,5,5.05,5.05,0,0,0,2.39-.53l12.15,21a5.34,5.34,0,0,0-2.33,4.29,5.27,5.27,0,0,0,2.32,4.49ZM956,99.46a4.52,4.52,0,1,1,4.6-4.43A4.53,4.53,0,0,1,956,99.46Zm39.42-4.6A4.51,4.51,0,1,1,991,90.28,4.52,4.52,0,0,1,995.41,94.86Zm10.76-27.51L993.15,90a5.6,5.6,0,0,0-2.15-.5,5.35,5.35,0,0,0-5.42,5H961.39a5.34,5.34,0,0,0-7.51-4.32l-12.17-21a5.33,5.33,0,0,0-.09-8.79L954.7,37.59a3.13,3.13,0,0,0,1.26.27,3.47,3.47,0,0,0,3.49-3h26.17a5.35,5.35,0,0,0,5.23,4.85,5.14,5.14,0,0,0,2.3-.48l13,22.57a3.43,3.43,0,0,0-1.37,2.68A3.5,3.5,0,0,0,1006.17,67.35Zm36.89.55a3.15,3.15,0,1,1,3.21-3.08A3.14,3.14,0,0,1,1043.06,67.9Z" fill="#9b9b9b"/></svg>