<svg xmlns="http://www.w3.org/2000/svg" width="1121.71" height="115.07" viewBox="0 0 1121.71 115.07"><path d="M1035.88,64.23c-.4-.8-7.5-.8-7.5-.8s.7-6.8.2-7c-.3-.1-7,.4-14.2.8-.9-6.6-4-19-14.2-19.1-10.5-.2-14.3,12.8-15.6,19.3-5.3-.3-9.4-.7-9.4-.7s-2.6-.2-3.7-.2-.1,5.8-.4,6-5.9-.8-6.7,1.1a16.11,16.11,0,0,0,.2,2.3c-.1.1-.2.1-.3.2a2.55,2.55,0,0,1-.5.3,1,1,0,0,0-.7,1.2c0,.1.1.2.2.3l-1,2.3a.47.47,0,0,0,.2.6h0c.3.1.5,0,.7-.3l1-2.3a1.09,1.09,0,0,0,.7-.3c.8,7.4,2.5,21.6,2.6,23,.1,1.8,1.3,16.3,2.7,16.8s16.2-.5,31.3-.2,27.9.5,29.4,0,1.7-7.8,2.3-11.8C1033.48,91.83,1036.18,65,1035.88,64.23Zm-35.2-24.1c5.3.2,8.1,5.3,9.6,10.5-1.6-4.6-4.5-9-9.6-9-8-.1-11.1,10.3-12.3,16.2l-1.2-.1C988.38,51.73,991.78,39.73,1000.68,40.13Zm-10.1,17.7c1-5.3,3.8-14.9,10.6-14.6,6,.3,7.9,8.9,8.6,14.3-2.8.2-5.6.3-7.9.4a109.2,109.2,0,0,1-11.3-.1Z" transform="translate(-0.87 -5.92)" fill="#77c5d5"/><path d="M927,64.23c-.4-.8-7.5-.8-7.5-.8s.7-6.8.2-7c-.3-.1-7,.4-14.2.8-.9-6.6-4-19-14.2-19.1-10.5-.2-14.3,12.8-15.6,19.3-5.3-.3-9.4-.7-9.4-.7s-2.6-.2-3.7-.2-.1,5.8-.4,6-5.9-.8-6.7,1.1a19.64,19.64,0,0,0,.2,2.3c-.1.1-.2.1-.3.2a2.29,2.29,0,0,1-.5.3,1,1,0,0,0-.7,1.2c0,.1.1.2.2.3l-1,2.3a.49.49,0,0,0,.2.6h0c.3.1.5,0,.7-.3l1-2.3a1.06,1.06,0,0,0,.7-.3c.8,7.4,2.5,21.6,2.6,23,.1,1.8,1.3,16.3,2.7,16.8s16.2-.5,31.3-.2,27.9.5,29.4,0,1.7-7.8,2.3-11.8C924.63,91.83,927.33,65,927,64.23Zm-35.2-24.1c5.3.2,8.1,5.3,9.6,10.5-1.6-4.6-4.5-9-9.6-9-8-.1-11.1,10.3-12.3,16.2l-1.2-.1C879.53,51.73,882.93,39.73,891.83,40.13Zm-10.1,17.7c1-5.3,3.8-14.9,10.6-14.6,6,.3,7.9,8.9,8.6,14.3-2.8.2-5.6.3-7.9.4a109.25,109.25,0,0,1-11.3-.1Z" transform="translate(-0.87 -5.92)" fill="#373a36"/><path d="M272.37,106.57c-.74-1.81-1.59-9.78-1.59-9.78H250.91s-.59,7.18-1.59,9.78c-2,4.05-8.74,3.1-1.18,3.1h25.41C281.06,109.67,274.62,110.49,272.37,106.57Z" transform="translate(-0.87 -5.92)" fill="#77c5d5"/><path d="M263.78,93l-.4,6.36a2.56,2.56,0,1,1-5.1,0l-.4-6.4a2.73,2.73,0,0,1,2.94-2.71h0A2.75,2.75,0,0,1,263.78,93Z" transform="translate(-0.87 -5.92)" fill="#77c5d5"/><path d="M211.47,96.57c-2.14,0-3.38-1.52-3.38-4V22.93c0-2.45,1.24-4.08,3.38-4.08h98.76c2.14,0,3.38,1.63,3.38,4.08V92.6c0,2.45-1.24,4-3.38,4Z" transform="translate(-0.87 -5.92)" fill="#77c5d5"/><rect x="210.19" y="16.32" width="99.16" height="70.57" fill="#fff"/><rect x="187.77" y="34.93" width="33.57" height="55.32" fill="#fff"/><path d="M221.17,94.54H189.61V42.16h31.56ZM205.62,98.9a1.31,1.31,0,0,1-1.22-1.23,1.21,1.21,0,0,1,1.22-1.16,1.17,1.17,0,0,1,1.23,1.16A1.26,1.26,0,0,1,205.62,98.9ZM187.43,40v61.51h35.92V40Z" transform="translate(-0.87 -5.92)" fill="#ffd400" fill-rule="evenodd"/><rect x="170.57" y="60.2" width="21.73" height="36.49" fill="#fff"/><path d="M1101,62.7l.1,2.6a.68.68,0,0,1-.4.5h-.3a.65.65,0,0,1-.5-.4h0l-.1-2.6-2,.1.2,4.1,4.9-.3-.2-4.1Z" transform="translate(-0.87 -5.92)" fill="#ffd400"/><path d="M646.7,63.82a2.25,2.25,0,1,0,2.1,2.41h0V66a2.19,2.19,0,0,0-2.1-2.2Z" transform="translate(-0.87 -5.92)" fill="#ffd400"/><path d="M598.15,64.12a2.3,2.3,0,1,0,2.3,2.3h0A2.4,2.4,0,0,0,598.15,64.12Z" transform="translate(-0.87 -5.92)" fill="#ffd400"/><path d="M655.3,73.92c-1.4-2.7-4.8-10.4-4.8-10.4a4.75,4.75,0,0,0-2.3-.6c-1.5-5.3-2.9-10.2-3.5-12-1.7-4.3-4.6-15.7-13.4-16.3s-12.8,10.2-13.9,13.3c-.4,1.3-2.3,8.4-4.2,15.4a16.23,16.23,0,0,0-2.1.2c-.6.2-13.9,23.4-12.9,34.1.9,9.8,9.4,11.1,11.4,11.3s42.4.3,45.6-.5,6.3-8.3,6.8-13.9C662.7,86.12,656.7,76.52,655.3,73.92Zm-40.4-4.3a3.25,3.25,0,1,1,3.2-3.3h0a3.17,3.17,0,0,1-3.06,3.3Zm26.1-1.8c-1.4,1.3-4.4,1.4-9.5,1.4-5.7,0-9.6.1-10.7-1.3-.9-1.1-.2-4.1-.4-4.4s-1.8-.3-3.7-.3c.9-4.3,1.8-8.7,2.4-12,1.7-8.7,5.9-15.2,12.1-15.1s10.7,11.8,11.5,15.4c.3,1.5,1.4,6.2,2.6,11.1a9.34,9.34,0,0,0-2.3.2c-.7.3-.2,3.3-2,5Zm5.7,1.5a3.26,3.26,0,1,1,3-3.5h0V66a3.09,3.09,0,0,1-2.85,3.3Z" transform="translate(-0.87 -5.92)" fill="#ffd400"/><path d="M765.24,83.09c-1-2-3.55-7.69-3.55-7.69A3.5,3.5,0,0,0,760,75c-1.11-3.92-2.14-7.54-2.59-8.87-1.25-3.18-3.4-11.61-9.9-12.05s-9.46,7.54-10.28,9.83c-.29,1-1.7,6.21-3.1,11.39a11.45,11.45,0,0,0-1.55.14c-.45.15-10.28,17.3-9.54,25.21.67,7.24,7,8.2,8.43,8.35s31.34.22,33.7-.37,4.66-6.13,5-10.27C770.71,92.11,766.27,85,765.24,83.09Zm-29.86-3.18a2.4,2.4,0,1,1,2.36-2.44h0a2.35,2.35,0,0,1-2.26,2.44Zm19.29-1.33c-1,1-3.25,1-7,1-4.22,0-7.1.07-7.91-1-.67-.82-.15-3-.3-3.26s-1.33-.22-2.73-.22c.66-3.18,1.33-6.43,1.77-8.87,1.26-6.43,4.36-11.23,8.94-11.16s7.91,8.72,8.5,11.38c.23,1.11,1,4.59,1.93,8.21a6.06,6.06,0,0,0-1.7.15c-.52.22-.15,2.43-1.48,3.69Zm4.21,1.11a2.41,2.41,0,1,1,2.22-2.59h0v.15A2.28,2.28,0,0,1,759,79.68Z" transform="translate(-0.87 -5.92)" fill="#77c5d5"/><path d="M1067.38,77.3c-1.4-2.7-4.8-10.4-4.8-10.4a4.67,4.67,0,0,0-2.3-.6c-1.5-5.3-2.9-10.2-3.5-12-1.7-4.3-4.6-15.7-13.4-16.3s-12.8,10.2-13.9,13.3c-.4,1.3-2.3,8.4-4.2,15.4a14.64,14.64,0,0,0-2.1.2c-.6.2-13.9,23.4-12.9,34.1.9,9.8,9.4,11.1,11.4,11.3s42.4.3,45.6-.5,6.3-8.3,6.8-13.9C1074.78,89.5,1068.78,79.9,1067.38,77.3ZM1027,73a3.25,3.25,0,1,1,3.2-3.3h0a3.19,3.19,0,0,1-3.06,3.3Zm26.1-1.8c-1.4,1.3-4.4,1.4-9.5,1.4-5.7,0-9.6.1-10.7-1.3-.9-1.1-.2-4.1-.4-4.4s-1.8-.3-3.7-.3c.9-4.3,1.8-8.7,2.4-12,1.7-8.7,5.9-15.2,12.1-15.1s10.7,11.8,11.5,15.4c.3,1.5,1.4,6.2,2.6,11.1a8.84,8.84,0,0,0-2.3.2c-.6.3-.2,3.3-2,5Zm5.7,1.5a3.26,3.26,0,1,1,3-3.5h0v.2a3,3,0,0,1-2.69,3.28A1.62,1.62,0,0,1,1058.78,72.7Z" transform="translate(-0.87 -5.92)" fill="#373a36"/><path d="M763,42.94c-.12-.12-.36-.24-.48-.36C762.59,42.7,762.83,42.82,763,42.94Z" transform="translate(-0.87 -5.92)" fill="#a6abee"/><path d="M979.67,82.81c-1.1-8.8-4-22.7-5.8-23.1a91.44,91.44,0,0,0-10.6.1v-2.5a2.23,2.23,0,0,0-1.2-1.9v-.5c0-1.3-.9-2.1-1.2-3.1-.2-.8-.5-2.5-.6-3.1-.5-7.5-3.1-28.1-19-28.4-17.3-.4-21.2,21.7-22,28.3h-.2a30.85,30.85,0,0,1-.6,3.3c-.3,1-1.1,1.8-1.1,3v.5a2.23,2.23,0,0,0-1.2,1.9v2.8h-.9c-.9,0-2.3-.1-3.8-.2v-1.1H911v-.3h-2.8v.3h-.8v1a8.22,8.22,0,0,0-2.7.3,4.17,4.17,0,0,0-1.9,1.6,11.37,11.37,0,0,0-1,2.6,2.9,2.9,0,0,1-.6.5c-.2.2-.5.3-.7.5a1.49,1.49,0,0,0-1.12,1.8,1.86,1.86,0,0,0,.22.5l-1.5,3.4a.78.78,0,0,0,.3,1,.82.82,0,0,0,1-.3v-.1l1-2.3a99.07,99.07,0,0,0-2.6,17.9c-.5,11.9,1.1,23.9,2.5,25.2s6.3.7,6.3.7,24.5-.4,32.6-.4,32.9.3,32.9.3a12.38,12.38,0,0,0,5.7-1C980.87,110.81,980.77,91.61,979.67,82.81Zm-17.6-23.1v.2l-5.6.2a.63.63,0,0,1-.1-.4v-2.4a.94.94,0,0,1,.1-.5,5.21,5.21,0,0,0,.2.5,2.38,2.38,0,0,0,.4.5c.3.2.6-.2.6-.2h3.4l.5.3.4-.7Zm-44.4,0v-2.4l.4.7.5-.3H922s.4.4.6.2a1,1,0,0,0,.4-.5,1.24,1.24,0,0,0,.1-.5.72.72,0,0,1,.1.5v2.4a.76.76,0,0,1-.4.7l-5.2-.2c.2-.3.1-.4.1-.6Zm6.9.7a2,2,0,0,0,.1-.8v-2.4a2.13,2.13,0,0,0-1.1-1.9c.1-.7.2-1.5,0-1.7a8.15,8.15,0,0,1-1.3-4.3h0c.4-4.3,3.4-26.3,18.7-26.1,14.7.2,16.5,20.6,16.7,26h-.1a8.15,8.15,0,0,1-1.3,4.3,2.48,2.48,0,0,0,0,1.7,2.13,2.13,0,0,0-1.1,1.9v2.4a1,1,0,0,0,.1.5c-5.1.2-10.1.5-12.9.6-4.5.3-11.9.1-17.8-.2Z" transform="translate(-0.87 -5.92)" fill="#f1567b"/><path d="M841.92,80.32c-.91-7.45-3.4-19.12-4.89-19.45a80.62,80.62,0,0,0-8.93.08V58.8a2,2,0,0,0-1-1.65v-.42c0-1.07-.74-1.82-1-2.56a22.12,22.12,0,0,1-.5-2.65c-.41-6.29-2.65-23.67-16.05-24C795,27.18,791.68,45.81,791,51.35h-.09s-.33,1.91-.49,2.73-.91,1.49-.91,2.57v.41a1.9,1.9,0,0,0-1,1.66V61h-.74c-.75,0-1.91-.09-3.23-.17v-1h-.5v-.25h-2.4v.25h-.74v.83a5,5,0,0,0-2.24.24,4.12,4.12,0,0,0-1.57,1.33,9.67,9.67,0,0,0-.83,2.15,3.48,3.48,0,0,1-.58.5,2.84,2.84,0,0,0-.57.41,1.31,1.31,0,0,0-.83.66,1.15,1.15,0,0,0,.16,1.24l-1.32,2.9a.62.62,0,0,0,.19.85.61.61,0,0,0,.84-.2.16.16,0,0,0,0-.07v-.08l.83-1.91a93.5,93.5,0,0,0-2.23,15.07c-.42,10,.91,20.19,2.15,21.27s5.38.58,5.38.58,20.69-.33,27.56-.33,27.73.24,27.73.24a10.55,10.55,0,0,0,4.8-.82C842.83,103.91,842.83,87.69,841.92,80.32ZM827,60.79V61c-1.49.09-3.15.17-4.72.17a.56.56,0,0,1-.08-.33v-2a.82.82,0,0,1,.08-.41,3,3,0,0,0,.17.41,2.18,2.18,0,0,0,.33.42c.25.16.5-.17.5-.17h2.89l.42.25.33-.58Zm-37.41,0v-2l.33.58.41-.25h2.9s.33.33.5.17a.86.86,0,0,0,.33-.42l.16-.41a.6.6,0,0,1,.09.41v2a.56.56,0,0,1-.33.58l-4.39-.17v-.49Zm5.79.58a1.67,1.67,0,0,0,.09-.66v-2a1.76,1.76,0,0,0-1-1.57,2.89,2.89,0,0,0,0-1.49A7.42,7.42,0,0,1,793.33,52h0c.33-3.55,2.82-22.18,15.73-22,12.41.16,13.9,17.38,14.07,21.93h-.08A7,7,0,0,1,822,55.57a2.24,2.24,0,0,0,0,1.49,1.85,1.85,0,0,0-1,1.58v2a.76.76,0,0,0,.08.42c-4.3.16-8.52.41-10.84.49a129,129,0,0,1-14.82-.16Z" transform="translate(-0.87 -5.92)" fill="#77c5d5"/><path d="M878.3,72.32a87.33,87.33,0,0,0-8.7-.8c-1.5-.1-4.7-.1-8.2,0-.1-2.2-.4-4.5-.7-6.7-.8-3.4-6.7-9.9-13.6-9.9-8.1,0-11,5.9-13.2,9.2-.9,1.4-1.3,4.3-1.5,7.3h-9.2a65,65,0,0,0-8.8.9s1.4,10.4,2.7,16.1a99.44,99.44,0,0,0,6.2,16.9c1,1.8,3.3,5.4,6.8,5.9s27.1-.1,30.1-.1a25.88,25.88,0,0,0,8.4-.9c3.7-1,4.5-6.8,6.6-13s5.3-24.4,5.3-24.4A21.16,21.16,0,0,1,878.3,72.32Zm-32-.8c-1,0-4.4-.1-8.4-.1-.1-4.9-.1-9.6.3-10.2.9-1.2,5.1-2.6,9-2.8s8,1.5,8.3,2.5c.2.5.5,5.4.8,10.5-4.6.1-8.9.2-10,.1Z" transform="translate(-0.87 -5.92)" fill="#00a499"/><path d="M735.2,63a54,54,0,0,0-7.9-1c-1.4-.1-4.3-.1-7.5-.1a74.75,74.75,0,0,0-.7-7.9c-.7-4.1-6.1-11.8-12.4-11.8-7.3,0-10,7-12,11-.8,1.6-1.2,5.1-1.4,8.7h-8.4a53.82,53.82,0,0,0-8,1s1.3,12.4,2.5,19.1a143.94,143.94,0,0,0,5.6,20.1c.9,2.1,3,6.4,6.2,7.1s24.7-.1,27.4-.1a20.12,20.12,0,0,0,7.7-1c3.4-1.1,4.1-8.1,6-15.4s4.8-29,4.8-29A11.7,11.7,0,0,0,735.2,63ZM706,62c-.9,0-4-.1-7.6-.2-.1-5.8-.1-11.4.2-12.1.8-1.5,4.7-3,8.2-3.3s7.3,1.8,7.6,3c.2.6.5,6.5.7,12.5-4.2.1-8.1.2-9.1.1Z" transform="translate(-0.87 -5.92)" fill="#00a499"/><path d="M794.3,74.45a41.83,41.83,0,0,0-6.21-.78c-1.1-.08-3.38-.08-5.9-.08a58.88,58.88,0,0,0-.55-6.22c-.55-3.14-4.8-9.28-9.75-9.28-5.74,0-7.87,5.51-9.44,8.65-.63,1.26-.94,4-1.1,6.85h-6.61a41.74,41.74,0,0,0-6.29.78s1,9.75,2,15a118.33,118.33,0,0,0,4.4,15.81c.71,1.65,2.36,5,4.88,5.59s19.42-.08,21.55-.08a15.93,15.93,0,0,0,6-.79c2.68-.87,3.23-6.37,4.72-12.11S795.79,75,795.79,75A6.5,6.5,0,0,0,794.3,74.45Zm-22.88-.78c-.71,0-3.15-.08-6-.16-.08-4.56-.08-9,.16-9.52.62-1.18,3.69-2.36,6.44-2.59s5.67,1.41,6,2.36c.16.47.39,5.11.55,9.83C775.19,73.67,772.12,73.74,771.42,73.67Z" transform="translate(-0.87 -5.92)" fill="#f1567b"/><path d="M690.1,99.88a10.73,10.73,0,0,0,1.6-3.8c1.1-5.3-2.1-18.4-2.1-18.4a20.54,20.54,0,0,0-.2-2.6c0-.3-.2-.5-.5-.7v-3.1a.47.47,0,0,0-.44-.5h-.06a.64.64,0,0,0-.6.5v3.1h-.1a.54.54,0,0,0-.2.4,60,60,0,0,0-.2-6.7c-.2-.3-1-.2-1.3-.3a7.78,7.78,0,0,1-1.6-.2,41,41,0,0,0-4.7-.3c-1-3.5-1.9-6.6-2.4-7.8-1.4-3.7-3.9-13.6-11.6-14.1s-11.1,8.8-12,11.5c-.3.8-1.1,4-2.2,8a10.54,10.54,0,0,0-6-1c-5.8.9-6.9,6.3-6.3,6.9a2.32,2.32,0,0,0,1.4.4v2.2a.55.55,0,0,0,1.1-.1v-3.9a.37.37,0,0,0-.1-.3,4.14,4.14,0,0,1,4-3.2,9.83,9.83,0,0,1,4.9,1.6c-4,.1-5.6.1-5.6.1a5.07,5.07,0,0,0-1.7.6,3.52,3.52,0,0,0-1.2,1.5c-.2.6-1.2,13.8-.3,21.9s7.4,12.7,11.2,14,8.9,1.5,20.2.4a14,14,0,0,0,10.4-5.9c.6.7,1.1,1.3,1.7,1.9a7.34,7.34,0,0,1-2.2,2.1c-2.2,1.2-12.8,1.9-16.1,4.4-2.6,1.9-1.7,4.2-1.7,4.2v5.8a23.8,23.8,0,0,0,14.4,2.2,21.84,21.84,0,0,0,12.5-6.8s.7-2.4.7-8.8C692.8,103.78,691.8,102.08,690.1,99.88Zm-27.2-32.7-7,.1a15.64,15.64,0,0,0-1.8-1.2c.5-2.3.9-4.6,1.3-6.4,1.5-7.5,5.1-13.1,10.4-13s9.2,10.1,10,13.3c.2,1.1.9,3.9,1.7,7.2-3.6-.1-8.5-.1-14.6,0Zm24.4,23.3c.2-1.7.3-7.9.3-13.3a1,1,0,0,0,1.1.6s.1,10.6-.4,15.8a18.43,18.43,0,0,1-.6,3.3c-.5-.5-1-1.1-1.5-1.7A24.33,24.33,0,0,0,687.3,90.48Zm-6.9,24.2a18.59,18.59,0,0,1-13.1-1.1,13.82,13.82,0,0,1,2.6-2.8c1.4-1.2,12.1-4.3,14-5a9.83,9.83,0,0,0,2.9-2c1.8,2.2,3,3.8,3.1,4.6C690.2,110.38,688.5,112.08,680.4,114.68Z" transform="translate(-0.87 -5.92)" fill="#373a36"/><path d="M193,101.31H172V66.59H193Zm-10.5,4.47a1.46,1.46,0,0,1-1.36-1.37,1.34,1.34,0,0,1,1.36-1.28,1.29,1.29,0,0,1,1.36,1.28A1.4,1.4,0,0,1,182.45,105.78ZM169.89,64.46v43.13h25.19V64.46Z" transform="translate(-0.87 -5.92)" fill="#f1567b" fill-rule="evenodd"/><path d="M344.85,83.07V114.5c0,.18,0,.35,0,.52h31.5c0-.17,0-.34,0-.52V83.07h0a27.9,27.9,0,0,0-.75-7.77c-.76-2.75-7.75-17.26-8.74-24-1.16-7.89-1.55-23.42-1.55-23.42l-.21-7.53a1.15,1.15,0,0,0,1-1.08v-.77a1.17,1.17,0,0,0-1.23-1.1h-8.67a1.17,1.17,0,0,0-1.23,1.1v.77a1.15,1.15,0,0,0,1.11,1.09l-.21,7.52s-.38,15.53-1.55,23.42c-1,6.73-8,21.24-8.74,24a27.9,27.9,0,0,0-.75,7.77Z" transform="translate(-0.87 -5.92)" fill="#f1567b"/><path d="M397.12,114.75v-36h0s0-5.9-.45-10.78c-.64-6.89-4.79-19.41-6-26-1.63-9-2-25.69-2-25.69h0l0-2.25a.54.54,0,0,0,.33-.46V12.22a.54.54,0,0,0-.33-.45v-.4a.63.63,0,0,0-.68-.56h-6.23a.63.63,0,0,0-.68.56v.4a.54.54,0,0,0-.33.45v1.34a.54.54,0,0,0,.33.46l0,2.26h0s-.37,16.64-2,25.68c-1.18,6.56-5.32,19.08-6,26-.32,3.5-.41,7.52-.44,9.52h0v37.3Z" transform="translate(-0.87 -5.92)" fill="#ffd400"/><path d="M393.52,69.29h0l.7,38.06v0s0,.17,0,.47l0,1.74a2.15,2.15,0,0,1-.59.92h22.44a2.1,2.1,0,0,1-.6-1l.75-40.26h0V56.52h0v-.05a10.24,10.24,0,0,0-4.24-8.19,14.87,14.87,0,0,1-2.16-2.1c-.77-1.15-.88-2.66-.88-4.78V38.51h0V20.89a1.81,1.81,0,0,0,.42-1.16V17.14a1.78,1.78,0,0,0-1.74-1.82h-5.6a1.78,1.78,0,0,0-1.75,1.82v2.59a1.84,1.84,0,0,0,.39,1.13V38.69h0V41.4c0,2.12-.1,3.63-.87,4.78a18.89,18.89,0,0,1-2.46,2.35h0a10.18,10.18,0,0,0-3.92,7.94v.05h0V68.63h0v.66Z" transform="translate(-0.87 -5.92)" fill="#77c5d5"/><path d="M463.7,118.61c2.83-2.9,6.38-8.83,6-20.28C469.1,80.2,451.25,71,449.39,69.68c-3.5-2.42-3.74-5.56-3.86-10-.14-5.2-.32-14.4-.36-16.32a2.27,2.27,0,0,0,1-1.85V38.19a2.4,2.4,0,0,0-2.48-2.32h-8a2.4,2.4,0,0,0-2.48,2.32v3.29a2.32,2.32,0,0,0,1.44,2.11c0,2.38-.21,11.07-.35,16.06-.12,4.47-.36,7.61-3.87,10-1.85,1.28-19.7,10.52-20.31,28.65-.38,11.44,3.18,17.38,6,20.28Z" transform="translate(-0.87 -5.92)" fill="#ffd400"/><path d="M492.06,113.52a5.69,5.69,0,0,0,.07-.94V83.07h0c0-1.37-.06-7.07-.53-11.9-.76-7.8-6.38-22-7.93-29.39A94.25,94.25,0,0,1,482,23.54a3.47,3.47,0,0,0,1-2.45V13.44A3.31,3.31,0,0,0,479.76,10h-5.15a3.3,3.3,0,0,0-3.18,3.41v7.65a3.43,3.43,0,0,0,1.21,2.65,93.9,93.9,0,0,1-1.7,18c-1.55,7.37-7.17,21.59-7.93,29.39-.47,4.83-.52,10.53-.53,11.9h0v29.51a5.69,5.69,0,0,0,.07.94Z" transform="translate(-0.87 -5.92)" fill="#00a499"/><path d="M530.66,110.52c0-.24,0-.48,0-.74V75.17h0s0-.49,0-1.29V72.47h0c-.06-2.16-.2-5.28-.53-8.07-.81-6.88-7-19.39-8.48-25.93-2.06-9-1.54-25.67-1.54-25.67h0V11.42a.94.94,0,0,0,.42-.78V8.35a.94.94,0,0,0-.42-.78V6.88a.91.91,0,0,0-.86-1h-7.86a.91.91,0,0,0-.86,1v.69a.94.94,0,0,0-.42.78v2.29a.94.94,0,0,0,.42.78v1.4h0V13l0,2.82v0c0,5.22-.1,15.95-1.61,22.59s-7.67,19.05-8.48,25.93c-.33,2.79-.47,5.91-.53,8.07h-.08v37.31a5.9,5.9,0,0,0,0,.74Z" transform="translate(-0.87 -5.92)" fill="#77c5d5"/><path d="M528.24,115h27.43a26.82,26.82,0,0,0,.81-3.86c.66-4.68.66-27.1-.11-33.8-.83-7.25-6.34-12.6-7.33-13.94s-2.84-3.46-2.84-5.8c0-2-.16-8.92-.2-11a2.26,2.26,0,0,0,1.06-1.91v-3a2.29,2.29,0,0,0-2.31-2.27h-5.51a2.3,2.3,0,0,0-2.31,2.27v3a2.25,2.25,0,0,0,1,1.86c0,2-.21,9-.21,11,0,2.34-1.86,4.46-2.84,5.8s-6.5,6.69-7.33,13.94c-.76,6.7-.76,29.12-.11,33.8A28.25,28.25,0,0,0,528.24,115Z" transform="translate(-0.87 -5.92)" fill="#00a499"/><path d="M2.12,113.33C-.61,108,1.42,102,5.47,96.73a1.54,1.54,0,0,1,1.09-.59H23.8a1.58,1.58,0,0,1,1.1.59c4,5.26,6.07,11.26,3.34,16.6a3,3,0,0,1-2.42,1.56H4.54A3,3,0,0,1,2.12,113.33Z" transform="translate(-0.87 -5.92)" fill="#77c5d5"/><path d="M6.45,95.18a.65.65,0,0,1-.65-.64V91.46a1.14,1.14,0,0,1,1.14-1.13H23.42a1.14,1.14,0,0,1,1.14,1.13v3.08a.65.65,0,0,1-.65.64Z" transform="translate(-0.87 -5.92)" fill="#77c5d5"/><path d="M69.79,112.1c-2.26-4.42-.58-9.39,2.77-13.74a1.3,1.3,0,0,1,.9-.49H87.73a1.3,1.3,0,0,1,.91.49c3.35,4.35,5,9.32,2.77,13.74a2.51,2.51,0,0,1-2,1.29H71.8A2.5,2.5,0,0,1,69.79,112.1Z" transform="translate(-0.87 -5.92)" fill="#373a36"/><path d="M73.37,97.08a.54.54,0,0,1-.53-.54V94a.93.93,0,0,1,.93-.93H87.42a.93.93,0,0,1,.94.93v2.54a.54.54,0,0,1-.54.54Z" transform="translate(-0.87 -5.92)" fill="#373a36"/><path d="M119.84,106.53h-12a.64.64,0,0,1-.63-.59l-2.5-37a.53.53,0,0,1,.54-.58h17.2a.54.54,0,0,1,.55.58l-2.51,37A.64.64,0,0,1,119.84,106.53Z" transform="translate(-0.87 -5.92)" fill="#00a499"/><path d="M107.13,113.21v-5.16a.58.58,0,0,1,.59-.59h12.21a.58.58,0,0,1,.58.59v5.16a1.17,1.17,0,0,1-1.17,1.18h-11A1.18,1.18,0,0,1,107.13,113.21Z" transform="translate(-0.87 -5.92)" fill="#00a499"/><path d="M99.29,113.39H88.65a1.28,1.28,0,0,1-1.21-1,76,76,0,0,1,0-28.91,1.28,1.28,0,0,1,1.21-1H99.29a1.29,1.29,0,0,1,1.21,1,76,76,0,0,1,0,28.91A1.29,1.29,0,0,1,99.29,113.39Z" transform="translate(-0.87 -5.92)" fill="#77c5d5"/><path d="M97,73.09l-.75-4.91A1.4,1.4,0,0,0,95,67H93.09a1.39,1.39,0,0,0-1.26,1.23l-.75,4.91a.71.71,0,0,1-.49.51h-.21a.89.89,0,0,0-.85.83v6.24a.79.79,0,0,0,.76.72h7.59a.68.68,0,0,0,.63-.72V74.43a.78.78,0,0,0-.72-.83h-.54C97.14,73.6,97,73.37,97,73.09Z" transform="translate(-0.87 -5.92)" fill="#77c5d5"/><path d="M137.68,94.27a6,6,0,0,0-.66-4.2,9.49,9.49,0,0,0-2-1.87,12.85,12.85,0,0,1-4.14-5.63c0-.13,0-.27,0-.4a.22.22,0,0,0-.22-.17h-9.33a.22.22,0,0,0-.22.17c0,.13,0,.27,0,.4a12.85,12.85,0,0,1-4.14,5.63,9.19,9.19,0,0,0-2,1.87,5.87,5.87,0,0,0-.66,4.2c.14,1.28.33,2.55.55,3.83a104.51,104.51,0,0,0,3.43,13.49c.53,1.53,1.76,2.8,2.65,2.8H131c.89,0,2.12-1.27,2.65-2.8a104.51,104.51,0,0,0,3.43-13.49C137.34,96.82,137.53,95.55,137.68,94.27Z" transform="translate(-0.87 -5.92)" fill="#ffd400"/><path d="M130.14,81.1h-8.31a.67.67,0,0,1-.68-.64V74.57a.66.66,0,0,1,.68-.64h8.31a.65.65,0,0,1,.68.64v5.89A.66.66,0,0,1,130.14,81.1Z" transform="translate(-0.87 -5.92)" fill="#ffd400"/><path d="M48.5,102a4,4,0,0,0-.44-2.8,6.22,6.22,0,0,0-1.3-1.25A8.54,8.54,0,0,1,44,94.18l0-.26a.15.15,0,0,0-.15-.12H37.6a.13.13,0,0,0-.14.12c0,.09,0,.18,0,.26a8.39,8.39,0,0,1-2.76,3.75,6.48,6.48,0,0,0-1.3,1.25,4,4,0,0,0-.44,2.8c.1.85.22,1.7.37,2.55a70,70,0,0,0,2.29,9c.35,1,1.17,1.87,1.76,1.87h6.74c.59,0,1.42-.85,1.77-1.87a68.4,68.4,0,0,0,2.28-9C48.28,103.68,48.4,102.83,48.5,102Z" transform="translate(-0.87 -5.92)" fill="#00a499"/><path d="M43.48,93.2H37.94a.44.44,0,0,1-.45-.43V88.85a.44.44,0,0,1,.45-.43h5.54a.44.44,0,0,1,.45.43v3.92A.44.44,0,0,1,43.48,93.2Z" transform="translate(-0.87 -5.92)" fill="#00a499"/><path d="M68.17,81.76h-6.5c-.39,0-.87.53-1.08,1.15-.92,2.68-2.41,5.27-3.36,9a25.41,25.41,0,0,0-.67,11c.84,5.69,2.63,9.39,4.64,11.37a2.21,2.21,0,0,0,1.35.57h4.74a2.24,2.24,0,0,0,1.36-.57c2-2,3.8-5.68,4.64-11.37a25.25,25.25,0,0,0-.69-11c-.94-3.78-2.43-6.37-3.34-9C69,82.29,68.57,81.76,68.17,81.76Z" transform="translate(-0.87 -5.92)" fill="#ffd400"/><path d="M68.72,75.74c-.21,2.78-.17,5-1.17,5H62.3c-1,0-1-2.23-1.17-5h0c-.23-2.71.55-5.39,1.81-5.65a11,11,0,0,1,4,0c1.26.26,2,2.94,1.82,5.65Z" transform="translate(-0.87 -5.92)" fill="#ffd400"/><path d="M149.77,90.07h-4.68c-.28,0-.62.38-.77.83a65.33,65.33,0,0,0-2.42,6.5,18.37,18.37,0,0,0-.48,7.9c.6,4.09,1.89,6.76,3.33,8.18a1.63,1.63,0,0,0,1,.41h3.41a1.63,1.63,0,0,0,1-.41c1.44-1.42,2.73-4.09,3.34-8.18a18.21,18.21,0,0,0-.5-7.9,63.3,63.3,0,0,0-2.4-6.5C150.39,90.45,150.05,90.07,149.77,90.07Z" transform="translate(-0.87 -5.92)" fill="#77c5d5"/><path d="M150.16,85.75c-.15,2-.12,3.59-.84,3.6h-3.78c-.72,0-.69-1.61-.84-3.6h0c-.16-2,.4-3.88,1.31-4.07a8,8,0,0,1,2.85,0c.9.19,1.46,2.12,1.3,4.07Z" transform="translate(-0.87 -5.92)" fill="#77c5d5"/><rect x="42.41" y="85.45" width="15.61" height="24.02" rx="1.5" fill="#f1567b"/><path d="M54.5,90.62H47.68c-.3,0-.62-.39-.7-.86a26.09,26.09,0,0,1,0-7.89c.08-.48.4-.86.7-.86H54.5c.3,0,.62.38.7.86a26.09,26.09,0,0,1,0,7.89C55.12,90.23,54.8,90.62,54.5,90.62Z" transform="translate(-0.87 -5.92)" fill="#f1567b"/><path d="M43.8,77.52l2.73.64c.63.46.74,2.1,1.81,2.1h4.23c1,0,1.77.07,1.81-.79,0-.26,0-.52,0-.78v-.63a3.65,3.65,0,0,0,0-.63,2.1,2.1,0,0,0-1.79-1.68,24.84,24.84,0,0,0-9.29.38.65.65,0,0,0-.53.87c.1.29.35.32.66.44Z" transform="translate(-0.87 -5.92)" fill="#f1567b"/><path d="M1122.58,65.5a2.41,2.41,0,0,0-1.5-.9c-.3,0-4.8-.5-19.3-.8-2.7-18.1-8-44.6-15.9-44.3-7.7.2-12.1,19.2-13.3,25-.6,2.8-2.2,11.2-3.7,19.2-3.2,0-6,.1-8.4.1v-.3h-6.9a.76.76,0,0,0-.4-.2h-1.4a.64.64,0,0,0-.6.6v.2a14.54,14.54,0,0,0-2.8.3c-.7.4,2.8,17.5,3.7,22.9s2.9,14.2,3.5,17.8a14.12,14.12,0,0,0,2.4,6.3,5.39,5.39,0,0,0,2,.6l51.3-.1a1.41,1.41,0,0,0,1.1-.1c.5-.3,5.9-22.5,7.2-29.9S1122.68,65.9,1122.58,65.5Zm-50.1,3.1a.86.86,0,0,1-.8.8h0l-4.2-.2a.86.86,0,0,1-.8-.8h0l.2-3.5a.86.86,0,0,1,.8-.8h0l4.2.2a.86.86,0,0,1,.8.8h0Zm-1.1-5c2.8-17.8,7.7-42.5,14.6-42.6s10.8,25,13,42.8c-3.3-.1-6.9-.1-11.1-.1-6.3-.1-11.8-.1-16.5-.1Zm31.3,5.6-4.2.2a.76.76,0,0,1-.8-.7h0l-.2-3.5a.79.79,0,0,1,.78-.8h0l4.2-.2a.79.79,0,0,1,.8.78v0l.2,3.5A1,1,0,0,1,1102.68,69.2Z" transform="translate(-0.87 -5.92)" fill="#ffd400"/></svg>