<svg xmlns="http://www.w3.org/2000/svg" width="248.6" height="510.6" viewBox="0 0 248.6 510.6"><rect width="248.6" height="510.6" fill="#d0d1d1"/><rect x="178.7" y="252.8" width="59.5" height="15.8" fill="#77c5d5"/><rect x="178.7" y="293" width="59.5" height="15.8" fill="#00a499"/><rect x="178.7" y="333.2" width="59.5" height="15.8" fill="#f1567b"/><rect x="178.7" y="112.2" width="59.5" height="15.8" fill="#ffd400"/><rect x="178.7" y="172.4" width="59.5" height="15.8" fill="#f1567b"/><rect x="178.7" y="192.5" width="59.5" height="15.8" fill="#ffd400"/><rect x="178.7" y="212.6" width="59.5" height="15.8" fill="#ffd400"/><rect x="105" y="232.7" width="59.5" height="15.8" fill="#f1567b"/><rect x="105" y="293" width="59.5" height="15.8" fill="#f1567b"/><rect x="105" y="353.3" width="59.5" height="15.8" fill="#00a499"/><rect x="105" y="373.4" width="59.5" height="15.8" fill="#77c5d5"/><rect x="105" y="89.1" width="59.5" height="15.8" fill="#f1567b"/><rect x="105" y="112.2" width="59.5" height="15.8" fill="#77c5d5"/><rect x="105" y="152.3" width="59.5" height="15.8" fill="#ffd400"/><rect x="105" y="172.4" width="59.5" height="15.8" fill="#00a499"/><rect x="105" y="393.5" width="59.5" height="15.8" fill="#f1567b"/><rect x="32.5" y="232.7" width="59.5" height="15.8" fill="#77c5d5"/><rect x="32.5" y="252.8" width="59.5" height="15.8" fill="#ffd400"/><rect x="32.5" y="313.1" width="59.5" height="15.8" fill="#77c5d5"/><rect x="32.5" y="333.2" width="59.5" height="15.8" fill="#00a499"/><rect x="32.5" y="353.3" width="59.5" height="15.8" fill="#ffd400"/><rect x="32.5" y="89.1" width="59.5" height="15.8" fill="#00a499"/><rect x="32.5" y="132.3" width="59.5" height="15.8" fill="#77c5d5"/><rect x="32.5" y="152.3" width="59.5" height="15.8" fill="#ffd400"/><rect x="32.5" y="212.6" width="59.5" height="15.8" fill="#ffd400"/><rect x="32.5" y="393.5" width="59.5" height="15.8" fill="#77c5d5"/><circle cx="207.6" cy="445" r="17" fill="#373a36"/></svg>