<svg xmlns="http://www.w3.org/2000/svg" width="283.52" height="87.1" viewBox="0 0 283.52 87.1"><path d="M59.23,25.93V54.21H49.12V27.9c0-5-2.36-7.3-6.54-7.3-4.79,0-7.91,3-7.91,10V54.21H24.56V27.9c0-5-2.51-7.3-6.61-7.3-4.71,0-7.83,3-7.83,10V54.21H0v-42H10V18.4c1.29-3.35,4.49-6.92,10.87-6.92,5.4,0,9.58,2.58,11.56,6.92,1.6-3,4.64-6.92,12.24-6.92C53.53,11.48,59.23,16.88,59.23,25.93Z" fill="#fff"/><path d="M90.18,54.21H83.56c-7.83,0-12.85-2.43-12.85-13.69V21.36H63V12.24h7.68V2.81L80.83,0V12.24h8.36v9.12H80.83V41c0,2.51.68,4.26,4.26,4.26h5.09Z" fill="#fff"/><path d="M115.8,40.83l-9.66,13.38H93.45l15.66-20.76L93.22,12.24h13l9.43,13.15L125,12.24h12.55L122.27,32.69l16.19,21.52H125.38Z" fill="#fff"/><path d="M9.58,77.7c0,3.25-1.91,5.43-4.65,5.43A3.83,3.83,0,0,1,1.34,81v1.89H0V68.33H1.4V74.7a3.86,3.86,0,0,1,3.67-2.26C7.69,72.44,9.58,74.49,9.58,77.7Zm-1.42.08c0-2.51-1.36-4-3.35-4S1.4,75.31,1.4,77.86s1.4,4,3.37,4,3.4-1.61,3.4-4.13Z" fill="#fff"/><path d="M14.81,84.86a2.27,2.27,0,0,1-2.37,1.41h-1V85h.86a1.54,1.54,0,0,0,1.64-1.21l.48-1.32L10.54,72.6H12l3,8.11,3-8.11h1.4Z" fill="#fff"/><path d="M31.18,82.91H29.63l-5-14.35h1.59l4.15,12.61L34.6,68.56h1.45Z" fill="#fff"/><path d="M36.44,77.78c0-3.31,2-5.34,4.86-5.34s4.88,2,4.88,5.36-2,5.34-4.86,5.34S36.44,81.13,36.44,77.78Zm8.3-.06c0-2.58-1.55-4-3.46-4s-3.41,1.55-3.41,4.06,1.55,4,3.46,4S44.74,80.3,44.74,77.72Z" fill="#fff"/><path d="M56.92,75.87v7h-1.4V76a2.1,2.1,0,0,0-1.87-2.32,1.7,1.7,0,0,0-.39,0C51.5,73.71,50,75,50,77.51V82.9H48.6V72.63H50v1.91a3.74,3.74,0,0,1,3.56-2.1,3.11,3.11,0,0,1,3.37,2.83A4,4,0,0,1,56.92,75.87Z" fill="#fff"/><path d="M64.58,82.91H63.06c-1.36,0-2.58-.42-2.58-2.7V73.88h-2V72.63h2v-2.9l1.4-.4v3.31h2.49v1.24H61.88v6.31c0,.94.27,1.45,1.42,1.45h1.28Z" fill="#fff"/><path d="M65.92,77.78c0-3.31,2-5.34,4.86-5.34s4.88,2,4.88,5.36-2,5.34-4.86,5.34S65.92,81.13,65.92,77.78Zm8.3-.06c0-2.58-1.55-4-3.46-4s-3.41,1.55-3.41,4.06,1.55,4,3.46,4S74.22,80.3,74.22,77.72Z" fill="#fff"/><path d="M87.64,77.7c0,3.25-1.91,5.43-4.65,5.43A3.83,3.83,0,0,1,79.39,81v1.89H78.05V68.33h1.4V74.7a3.86,3.86,0,0,1,3.67-2.26C85.74,72.44,87.64,74.49,87.64,77.7Zm-1.42.08c0-2.51-1.36-4-3.35-4s-3.42,1.53-3.42,4.07,1.4,4.05,3.37,4.05S86.22,80.3,86.22,77.78Z" fill="#fff"/><path d="M90.74,78.1c0,2.56,1.61,3.75,3.42,3.75a2.85,2.85,0,0,0,3-2.1h1.32a4.22,4.22,0,0,1-4.4,3.38c-2.45,0-4.73-1.68-4.73-5.34s2.31-5.36,4.78-5.36,4.42,1.57,4.42,5v.69Zm0-1.19h6.37a3,3,0,0,0-2.76-3.22h-.3a3.24,3.24,0,0,0-3.27,3.21v0Z" fill="#fff"/><path d="M102.36,82.91H101V68.33h1.4Z" fill="#fff"/><path d="M119.33,78.85H112.5l-1.59,4.06h-1.57l5.76-14.35h1.55l5.95,14.35H121Zm-3.46-8.65L113,77.55h5.84Z" fill="#fff"/><path d="M132.45,80c0,2.14-1.89,3.14-4,3.14S124.26,82,124,79.75h1.49c.23,1.51,1.57,2.12,3,2.12s2.49-.54,2.49-1.7-1.19-1.43-2.39-1.64c-2-.34-4.3-.67-4.3-3,0-2.07,1.76-3,3.86-3s3.9,1,4,3.08H130.7c-.1-1.26-1.28-1.84-2.62-1.84s-2.35.63-2.35,1.72c0,1.28,1.24,1.51,2.79,1.76C130.4,77.47,132.45,77.76,132.45,80Z" fill="#fff"/><path d="M142.38,80c0,2.14-1.89,3.14-4,3.14S134.19,82,134,79.75h1.49c.23,1.51,1.57,2.12,3,2.12s2.49-.54,2.49-1.7-1.19-1.43-2.39-1.64c-2-.34-4.3-.67-4.3-3,0-2.07,1.76-3,3.86-3s3.9,1,4,3.08H140.7c-.1-1.26-1.28-1.84-2.62-1.84s-2.35.63-2.35,1.72c0,1.28,1.24,1.51,2.79,1.76C140.33,77.47,142.38,77.76,142.38,80Z" fill="#fff"/><path d="M145.39,78.1c0,2.56,1.61,3.75,3.42,3.75a2.85,2.85,0,0,0,3-2.1h1.32a4.22,4.22,0,0,1-4.4,3.38c-2.45,0-4.73-1.68-4.73-5.34s2.31-5.36,4.78-5.36,4.42,1.57,4.42,5v.69Zm0-1.19h6.37A3,3,0,0,0,149,73.69h-.3a3.24,3.24,0,0,0-3.27,3.21v0Z" fill="#fff"/><path d="M160.3,82.91h-1.51c-1.36,0-2.58-.42-2.58-2.7V73.88h-2V72.63h2v-2.9l1.4-.4v3.31h2.49v1.24h-2.5v6.31c0,.94.27,1.45,1.42,1.45h1.28Z" fill="#fff"/><path d="M181.06,82.91h-1.43V70.47L174.8,82.91h-1.15l-4.78-12.42V82.91h-1.4V68.56h2.18l4.59,12.07,4.63-12.07h2.18Z" fill="#fff"/><path d="M190.63,81A4.08,4.08,0,0,1,187,83.1a3.07,3.07,0,0,1-3.32-2.8,2.62,2.62,0,0,1,0-.28c0-1.86,1.36-2.74,3.12-3l2.43-.33c.77-.11,1.44-.34,1.44-1.28,0-1.21-1-1.86-2.49-1.86a2.42,2.42,0,0,0-2.7,1.91h-1.4c.29-2,1.93-3.08,4.19-3.08S192,73.53,192,75.81v7.1h-1.36Zm-1.7-3.12-1.57.21c-1.3.17-2.28.65-2.28,1.89a1.89,1.89,0,0,0,2.12,1.84,3.33,3.33,0,0,0,3.39-3.27V77.39a4.41,4.41,0,0,1-1.66.52Z" fill="#fff"/><path d="M203.21,75.87v7h-1.4V76a2.1,2.1,0,0,0-1.87-2.32,1.7,1.7,0,0,0-.39,0c-1.76,0-3.29,1.32-3.29,3.81v5.39h-1.4V72.63h1.4v1.91a3.74,3.74,0,0,1,3.56-2.1,3.11,3.11,0,0,1,3.39,2.8A3.32,3.32,0,0,1,203.21,75.87Z" fill="#fff"/><path d="M212.49,81a4.08,4.08,0,0,1-3.65,2.1,3.07,3.07,0,0,1-3.32-2.8,2.62,2.62,0,0,1,0-.28c0-1.86,1.36-2.74,3.12-3l2.43-.33c.77-.11,1.44-.34,1.44-1.28,0-1.21-1.05-1.86-2.49-1.86a2.42,2.42,0,0,0-2.7,1.91h-1.4c.29-2,1.93-3.08,4.19-3.08s3.75,1.09,3.75,3.37v7.1h-1.36Zm-1.7-3.12-1.57.21c-1.3.17-2.28.65-2.28,1.89a1.89,1.89,0,0,0,2.12,1.84,3.33,3.33,0,0,0,3.39-3.27V77.39a4.41,4.41,0,0,1-1.66.52Z" fill="#fff"/><path d="M225.56,82.45a4.29,4.29,0,0,1-3.92,4.63,4.45,4.45,0,0,1-.73,0c-2.28,0-4.3-1.15-4.63-3.56h1.42c.21,1.3,1.17,2.37,3.21,2.37s3.31-.94,3.31-3.37v-2a3.87,3.87,0,0,1-3.63,2c-2.51,0-4.53-1.72-4.53-5s2.14-5,4.59-5a3.93,3.93,0,0,1,3.54,1.86V72.63h1.38Zm-1.43-5c0-2.62-1.55-3.83-3.29-3.83s-3.41,1.24-3.41,3.81,1.59,3.79,3.39,3.79c1.64,0,3.31-1,3.31-3.73Z" fill="#fff"/><path d="M229.24,78.1c0,2.56,1.61,3.75,3.42,3.75a2.85,2.85,0,0,0,3-2.1H237a4.22,4.22,0,0,1-4.4,3.38c-2.45,0-4.73-1.68-4.73-5.34s2.31-5.36,4.78-5.36,4.42,1.57,4.42,5v.69Zm0-1.19h6.37a3,3,0,0,0-2.76-3.22h-.3a3.24,3.24,0,0,0-3.27,3.21v0Z" fill="#fff"/><path d="M239.46,72.63h1.38v1.7a3.09,3.09,0,0,1,3-1.89,2.94,2.94,0,0,1,3,2.14,3.43,3.43,0,0,1,3.37-2.14c1.86,0,3.33,1,3.33,3.1V82.9h-1.4V76a2.09,2.09,0,0,0-1.85-2.31H250c-1.53,0-2.79,1.19-2.79,3.35V82.9h-1.38V76A2.1,2.1,0,0,0,244,73.66h-.35c-1.51,0-2.79,1.17-2.79,3.35v5.87h-1.4Z" fill="#fff"/><path d="M257.25,78.1c0,2.56,1.61,3.75,3.42,3.75a2.85,2.85,0,0,0,3-2.1H265a4.22,4.22,0,0,1-4.4,3.38c-2.45,0-4.73-1.68-4.73-5.34s2.31-5.36,4.78-5.36,4.42,1.57,4.42,5v.69Zm0-1.19h6.37a3,3,0,0,0-2.76-3.22h-.3a3.24,3.24,0,0,0-3.28,3.2v0Z" fill="#fff"/><path d="M275.81,75.87v7h-1.4V76a2.1,2.1,0,0,0-1.87-2.32,1.7,1.7,0,0,0-.39,0c-1.76,0-3.29,1.32-3.29,3.81v5.39h-1.4V72.63h1.4v1.91a3.74,3.74,0,0,1,3.56-2.1,3.11,3.11,0,0,1,3.39,2.8A3.32,3.32,0,0,1,275.81,75.87Z" fill="#fff"/><path d="M283.46,82.91H282c-1.36,0-2.58-.42-2.58-2.7V73.88h-2V72.63h2v-2.9l1.4-.4v3.31h2.49v1.24h-2.49v6.31c0,.94.27,1.45,1.42,1.45h1.28Z" fill="#fff"/></svg>