<svg xmlns="http://www.w3.org/2000/svg" width="95.56" height="237.54" viewBox="0 0 95.56 237.54"><polygon points="32.63 15.49 43.13 23.09 44.94 39.01 34.9 35.09 34.4 29.34 26.44 27.74 23.86 13.08 28.3 11.16 32.63 15.49" fill="#efead7"/><polygon points="34.9 57.23 28.59 51.93 16.18 68.56 12.81 77.69 22.97 85.18 34.9 57.23" fill="#efead7"/><path d="M70.82,198.11l4.09,28.06s-7.1,1.51-8.1,0-7.11-28.06-7.11-28.06Z" fill="#efead7"/><polygon points="31.66 193.1 23.86 226.84 15.19 226.84 18.2 186.08 31.66 193.1" fill="#efead7"/><polygon points="77.51 231.91 75.68 224.27 74.18 224.65 72.98 226.65 69.59 227.16 67.63 225.99 67.52 224.95 64.42 224.06 62.13 229.1 57.7 232.26 52.91 234.59 53.19 236.34 56.22 237.54 61.21 237.51 76.15 234.18 77.51 231.91" fill="#1d1e1c"/><polygon points="24.08 234.13 25.43 226.39 23.91 226.14 22.01 227.5 18.69 226.62 17.36 224.76 17.67 223.77 15.18 221.73 11.07 225.44 5.76 226.58 0.43 226.82 0 228.54 2.3 230.85 6.89 232.79 21.93 235.67 24.08 234.13" fill="#1d1e1c"/><path d="M52.77,41.82,60,52.9S61.91,71.67,60,75,60.65,87.55,60,90s3,14,3,14l.57,9.63H34.9v-27l-8.61-1a45,45,0,0,1-5.77-1c-1.45-.48-7.71-7-7.71-7L28.59,56.26,34.9,35.09Z" fill="#c7c5c4"/><path d="M23.86,13.3s3.05-7.84,5.76-9.17S38.44-1,42.17.23a12.72,12.72,0,0,1,5.76,3.9s2,6.46,2.71,9.17.68,8.86,0,10.2a23.47,23.47,0,0,1-2.37,3.32s-3.39,3.45-7.8,3.44S31.66,28.8,30,26.82s-4.07-5.89-4.4-7.67S23.86,13.3,23.86,13.3Z" fill="#1d1e1c"/><path d="M43.34,30.19,40.13,45.94s-2.92,12.79-4.31,13.87,5.79.5,5.79.5,9.49,1,11,0,6.61-4.86,6.61-4.81-12.8-25.82-12.8-25.82Z" fill="#1d1e1c"/><path d="M60.08,92.56l-8.28,9.53s-.38,1.18-1,3l.33-3L34.9,96.8,12.17,182l1.93,7.7,9.12,7.7,8.45,3.33,7,.23,16,3.18h0l40.87-13.4Z" fill="#1d1e1c"/><path d="M39.65,26.87c.94.72,3,5.67,3,5.67s5.76,1.22,5.76,0-2-4.37-2-5.67S39.65,26.87,39.65,26.87Z" fill="#1d1e1c"/></svg>