<?xml version="1.0" encoding="utf-8"?>
<!-- Generator: Adobe Illustrator 25.4.1, SVG Export Plug-In . SVG Version: 6.00 Build 0)  -->
<svg version="1.1" id="Layer_1" xmlns="http://www.w3.org/2000/svg" xmlns:xlink="http://www.w3.org/1999/xlink" x="0px" y="0px"
	 viewBox="0 0 2000 2000" style="enable-background:new 0 0 2000 2000;" xml:space="preserve">
<style type="text/css">
	.st0{fill:#77C5D5;}
	.st1{fill:#00A499;}
	.st2{fill:#77A6D8;}
</style>
<circle class="st0" cx="1000" cy="1000" r="1000"/>
<path class="st1" d="M1462.8,801.8c11.2,0.5,20.6,11.6,19.4,22.7c-0.8,7.2-5.4,13.5-7,20.5c-3.8,16.9,9.3,32.3,16.2,48.2
	c9.7,22.3,6.7,49.6-7.6,69.3c-6.7,9.1-15.4,16.5-22,25.7c-3.4,4.8-6.3,10-10.2,14.3c-4.3,4.7-9.7,8.1-14.7,11.9
	c-8.2,6.1-16,13.2-20.8,22.2s-6.3,20.2-2,29.5c4.6,9.8,14.9,16.5,17.9,26.9c1.8,6,0.7,12.5-0.4,18.7c-3.5,19.7-7.6,39.2-12.5,58.6
	c8.5-9.8,14.5-21.5,17.6-34.2c2.8-12,2.9-24.5,4.2-36.8c5.4-46.3,29.6-88.4,66.9-116.4c6.1-4.5,12.6-8.7,17.7-14.4
	s8.6-13.3,7.3-20.8c-0.8-5-3.7-9.4-5.3-14.2c-5.6-15.8,1.6-34.4-5.5-49.6c-6.5-13.9-23.8-21.7-26.9-36.8c-0.6-3.1-0.5-6.6,1.5-9
	c1.4-1.7,3.4-2.6,5.3-3.7c14.9-8.6,19.9-27.4,23.4-44.2c-10.8,6.5-23.8,8.5-36.1,5.5c-5.4-1.3-10.6-3.6-16.1-4s-11.8,1.8-13.9,6.9
	L1462.8,801.8z"/>
<path class="st1" d="M1400.6,654c10,2.6,17.6,10.8,23.3,19.5s10.1,18.2,16.9,26c7.9,9,18.5,15.2,28.6,21.7c2.4,1.5,5.1,4.8,3.1,6.8
	c-0.8,0.6-1.8,1-2.8,1c-4.6,0.6-9.3,0.8-14,0.7c-3.6,6.6,0.5,14.8,5.7,20.2s11.9,9.7,15,16.5c1.2,2.5,1.1,6.5-1.7,7
	c-1.9,0.3-3.8-1.5-5.6-0.8c-1.5,0.5-2,2.3-2.9,3.5c-2,2.7-6.3,2.7-9.2,0.8s-4.6-4.9-6.2-7.9c-5.2-9.5-10.3-19-15.5-28.4
	c-2.1-3.7-3.9-7.5-5.5-11.4c-2-5.3-3-10.9-4.6-16.3c-6.2-20.3-21.8-36.7-28.7-56.8L1400.6,654z"/>
<path class="st1" d="M1525.2,779.1c-3.2-12.7,12.2-24.7,8.9-37.4"/>
<path class="st1" d="M1539.8,716.6c-0.5-3.5,0.7-7.1,1.3-10.6c1.6-8.3,0.4-16.9-3.3-24.5"/>
<path class="st1" d="M1529.7,643.2c0.2,8.2,1.3,16.3,3.2,24.3"/>
<path class="st1" d="M1180.1,371.1l-21.2,4.6c-3.2,0.7-6.4,1.4-9.2,3.1s-5,4.6-5,7.8s2.3,6.3,5.1,8s6.2,2.3,9.5,2.7
	c4.7,0.7,9.9,1,13.7-1.8c1.9-1.4,3.2-3.4,4.8-5.1c4.4-4.4,10.7-6,16.5-8.1s11.8-5.8,13.3-11.8c0.4-1.7,0.3-3.8-1.1-4.7
	c-0.7-0.4-1.5-0.6-2.4-0.6c-8.3-0.6-16.6,0.9-24.2,4.4V371.1z"/>
<path class="st1" d="M1187.6,399.2c-3.3-1-7.3,0.1-9.3,3s-1.3,7.4,1.8,9.1c1.7,0.8,3.6,1.1,5.5,0.9l11.4-0.1c3.4,0,7.6-0.7,8.5-3.9
	c0.4-1.9-0.3-3.8-1.8-5c-1.5-1.2-3.2-2-5-2.3c-5.1-1.3-10.4-1.6-15.7-0.8L1187.6,399.2z"/>
<path class="st1" d="M1316,305.6c-2.7-1.7-6.5,0.1-7.6,3s0.1,6.4,2.2,8.6s5.1,3.6,8.1,4.6c4.5,1.5,9.5,2.5,14,0.9
	c1.4-0.4,2.6-1.3,3.4-2.6c0.8-1.3,0.6-3-0.6-4c-1.4-1-3.4-0.3-5.1-0.8s-2.6-2-3.7-3.1c-4.1-4.1-10.7-4.2-16.6-4.1L1316,305.6z"/>
<path class="st1" d="M1200.7,80.3c-10.8-2-20.8-7.1-28.8-14.7c-2.6-2.5-5-5.3-8-7.2c-3.4-2.2-7.4-3.2-11.2-4.3
	c-9.4-2.8-18.9-7.1-25.1-14.8c-3.2-4-5.4-8.9-8.8-12.7c-8.8-9.9-24.2-11.8-33-21.7l-0.1-1.3c0,0,53.5,6.2,85.7,11.2
	s106.6,24.5,154.7,39.7s126.9,54.4,126.9,54.4c5.4,16.4,3.9,34.2-4.1,49.4c-2.5,4.8-5.8,9.5-6.2,14.9s2.1,10.6,4.8,15.3
	c13.8,24.7,32.5,46.3,54.9,63.5c6.8,5.2,14.5,10.9,15.9,19.4c1.3,7.4-2.8,14.6-6.7,21.1l-7.5,12.4c-1.1,1.9-2.3,3.8-4.3,4.8
	c-1.8,0.7-3.9,0.9-5.8,0.5c-10.5-1.4-20.2-6.2-27.7-13.7c-9.2-9.4-15.6-23.2-28.4-26.2c0.3,9.3-0.3,18.6-2,27.7
	c-12.7,0.6-24.9-7.2-31.5-18c-2.1-3.4-3.8-7.2-6.7-9.9s-7.6-4.2-11-2c-1.7,1.1-2.7,2.9-4.2,4.1c-3.2,2.6-8,2.4-11.8,0.5
	s-6.6-5-9.3-8.1l-18.9-21.2c-4.5-5.1-9.1-10.2-12.4-16.2c-6.7-12.1-7.5-26.7-12.7-39.5c-5.8-14.4-17-26.3-21.8-41.1
	c-3.4-10.5-4-23-12.3-30.3c-3.3-2.9-7.4-4.5-11.4-6.1l-73-29.2"/>
<path class="st1" d="M849.2,91.1c-33.2-29.6-82.1-31-126.5-30.8c-5.6,0-11.4,0.1-16.3,2.7c-4.9,2.6-8.7,8.5-6.8,13.8
	c2.8,8,14.2,8,20.6,13.5c9.5,8.2,4.4,23.7-2,34.5s-13.2,25-5.4,34.9c2.7,3.4,6.7,5.5,10.7,7c16.2,6,34.4,4.2,51,8.9
	c29.8,8.3,55.3,36.8,85.7,30.8c15.5-3.1,28.1-15,43.7-17.9c12-2.3,25.3,0.9,36-4.9c10.5-5.7,15.1-18.1,18.9-29.4l11.8-35.4
	c-24.7-8.3-52-0.1-77.5-4.9c-17.8-3.3-33.8-12.7-49.4-21.9L849.2,91.1z"/>
<path class="st1" d="M877.8,32.2c3.2,6.4-0.1,14.8,3.7,20.8c2.1,3.3,5.9,5.1,9.7,6.1c13.7,3.7,28.6-1.1,42.4,2.3
	c8.9,2.2,16.7,7.6,24.9,11.7c25,12.5,54,13.2,82,13.6c3.7,0,8.1-0.2,10.2-3.4s0.2-7.8-3-10s-7.2-2.5-11.1-2.8
	c-24.3-2-48.4-6.1-72-12.3c-3.8-1-8.6-3.9-7.1-7.5c0.7-1.7,2.6-2.6,4.4-3.2c4.5-1.5,9.3-2.3,13.5-4.6s7.7-6.7,7.1-11.4
	C947.3,28.9,877.8,32.2,877.8,32.2z"/>
<path class="st1" d="M995,109.5c-0.1,20.2-22.4,35.3-22.2,55.5c24,2,47.9-4.1,67.9-17.5c4.6-3.1,9.1-6.7,14.4-8.4
	c4.9-1.6,10.3-1.6,15.5-1.6c19.4,0.2,39.4,0.5,57.5,7.5c7.6,3,15.5,7.2,23.5,5.7s14.2-12.7,8-18c-2.4-2-5.6-2.4-8.7-2.9
	c-16.1-2.5-31.5-8.3-45.2-17c-2.1-1.4-4.4-3.1-4.8-5.6c-0.6-4,3.9-6.8,4.9-10.7c1.1-4.3-2.6-8.6-6.9-9.9s-8.8-0.3-13.2,0.7
	l-83.8,19.3L995,109.5z"/>
<path class="st1" d="M1102.8,66.4c14.7-2.3,29.8,0.7,42.5,8.5c3.4,2.1,6.7,4.6,10.3,6.4c11.6,5.9,26.3,4.9,36.5,12.9
	c7.2,5.6,11,14.7,18.3,20c5.2,3.8,12.8,6.5,13.4,13c0.5,4.9-3.8,9-8.3,10.9c-7.3,3-15.7,1.9-23.1-1s-13.9-7.4-20.6-11.6
	c-13.6-8.5-28.1-15.4-43.2-20.7c-1.2-0.3-2.4-0.9-3.4-1.7c-4.4-3.8,0.5-11.1-0.4-16.8c-1.9-11.8-24.3-8.8-27.2-20.3l3.6-1.3
	L1102.8,66.4z"/>
<path class="st1" d="M653.8,159.6c-13.4,11.2-36,8-47.1,21.5c-3.2,3.9-4.7,10.6-0.5,13.5c1.6,1,3.4,1.6,5.2,1.7
	c12.4,2,26.6,3.6,36.2-4.5c5.7-4.7,8.7-12.1,14.4-16.8c2-1.7,4.4-3.1,6.1-5.1s2.4-5.2,0.8-7.4c-1.4-1.9-4-2.3-6.4-2.4
	c-5.5-0.4-11.1-0.4-16.6-0.2L653.8,159.6z"/>
<path class="st1" d="M830.8,256.3c0.1,6.8,8.9,10,11.5,16.3c1.9,4.6,0.1,10-3.1,13.7s-7.8,6.1-12.2,8.4c-2.1,1.1-4.7,2.1-6.5,0.6
	c-1.5-1.2-1.5-3.4-2.3-5.1c-1.8-3.7-6.8-4.1-10.9-4.1l-16.5,0.2c-5.5,0.1-12.3-0.7-14.1-5.9c-1.2-3.2,0.4-7,2.9-9.3s5.9-3.6,9.1-4.7
	c12.7-4.5,25.7-8.3,38.8-11.6L830.8,256.3z"/>
<path class="st1" d="M871.5,309c15.2,0.1,30.1,3.8,43.6,10.8c2.1,1.1,4.4,2.5,5.1,4.8c1.5,4.7-4.2,8.4-9,9.6
	c-5.6,1.5-11.3,2.3-17.1,2.6c-2.5,0.1-5,0.1-7.2-1c-4.2-2.1-5.9-7.5-9.8-10c-2.9-1.9-6.7-1.9-9.7-3.7s-4.3-7-1.1-8.3L871.5,309z"/>
<path class="st1" d="M992.2,350.8c9.6,12.5,22.5,22.3,37.2,28.1c1.2,0.5,2.7,1.3,2.7,2.6c-0.1,0.6-0.3,1.2-0.8,1.6
	c-6.1,7.8-18.6,6-27,0.8s-15.1-13.1-24.3-16.7c-3.8-1.5-8.3-2.5-10.2-6c-2.4-4.6,1.6-10.4,6.6-11.8s10.3,0.3,15.2,1.9L992.2,350.8z"
	/>
<path class="st1" d="M781.6,436.9c-0.3-8.8,2.4-17.3,7.8-24.2c6.9-8.7,17.5-13.9,28.3-16.3s22.1-2.4,33.2-2.3
	c9.5,0.1,19.3,0.1,28.1-3.5c1.7-0.7,3.5-1.6,4.3-3.2c1.3-2.5-0.4-5.8-2.9-7.1s-5.4-1.5-8.3-1.5l-22-0.3c-10.1-0.2-20.6-0.3-30,3.5
	c-8.2,3.3-15.1,9.4-23.3,12.6c-6,2.3-12.6,3-18.9,4.5s-12.7,4.3-16.4,9.6s-3.8,13.6,1.4,17.5c4.2,3.2,10.3,2.7,14.6,5.6L781.6,436.9
	z"/>
<path class="st1" d="M412.5,283.5c0-8.2,8.1-14.2,16-16.5s16.4-2.6,24.8-2.9L497,263c1.8-0.2,3.7,0.1,5.4,0.8c3.1,1.6,4.1,5.8,2.9,9
	s-3.9,5.7-6.8,7.6c-6.1,4.2-13.2,6.9-20.6,7.8c-6.2,0.8-12.7,0.4-18.3,3.2c-5.1,2.5-8.6,7.3-13,10.8c-7.5,6.1-17.5,8.5-24.8,14.9
	c-4.5,3.9-7.8,9.1-12.1,13.3s-10.5,7.3-16.2,5.6c-7.7-2.2-10.6-11.5-11.4-19.4c-0.4-2.2-0.2-4.5,0.5-6.6c1.4-3.6,5.3-5.6,9.1-6.1
	s7.7,0.2,11.5,0.6c6.9,0.6,14.1-0.1,20.3-3.3s11.3-8.9,12.6-15.7c-8.4-0.4-16.7-2.1-24.7-4.9L412.5,283.5z"/>
<path class="st1" d="M673.3,1473c16.5,12.4,25,34.6,21,54.9c-0.1,1.3-0.6,2.5-1.4,3.5c-1.1,0.9-2.4,1.5-3.8,1.7
	c-6.9,1.5-13.9,1.9-20.9,1.2c-1.8,0-3.6-0.6-5.1-1.6c-2.8-2.1-2.8-6.3-2.5-9.9c0.8-9.2,1.6-18.4,2.4-27.6
	c0.8-9.6,2.3-20.4,10.1-26.1L673.3,1473z"/>
<path class="st2" d="M216.8,1571.9c7.1,7.8,20.6,8.1,28,0.6c0.7-0.7,0.7-1.7,0-2.4s-1.7-0.7-2.4,0c-6.2,6.2-17.3,5.8-23.2-0.6
	C217.7,1567.9,215.3,1570.3,216.8,1571.9L216.8,1571.9z"/>
<path class="st1" d="M250.2,1565.7c4.6,1.1,6.5,6.5,7.6,11.1l27.9,112.3c0.3,0.8,0.3,1.7,0,2.6c-1.1,2.2-4.4,0.5-5.9-1.3
	c-17.2-19.6-33.4-40-48.6-61.2c-4.4-6.2-8.9-12.7-10.4-20.1c-1-5-0.7-10.3-1.4-15.4c-1.1-8.5-5-16.4-8.9-24
	c3.6-1.5,7.8-0.9,10.8,1.6L250.2,1565.7z"/>
<path class="st1" d="M923.1,1565.5c5.6,4.8,13.3,6,20.4,7.9c17.4,4.6,33,14.1,48.4,23.4c21.4,12.9,42.9,26,61.1,43.1
	c13.1,12.3,27,27.8,45,26.9c2.4-0.1,4.9-0.5,7.2,0.2c6.3,1.9,7.4,10.6,5.5,16.9s-5.8,12.4-5,19c0.7,5.5,4.6,10.5,3.5,15.9
	s-7.3,8.8-12.9,8.6s-10.8-3-15.7-5.7l-41.1-22.8c-17-9.4-34.7-19.4-45.5-35.5c-4.4-6.6-7.5-13.9-11.5-20.8
	c-7.3-12.5-17.6-23-29.9-30.6c-9.8-6-20.9-10.4-28.5-19.1s-9.4-23.9,0-30.5L923.1,1565.5z"/>
<path class="st1" d="M883.7,1447.7c-3.5,14-6,28.2-7.8,42.6c-1.2,10.1-2,20.5,0.3,30.4s8,19.5,17,24.3
	c-11.1-30.1-12.8-62.8-4.8-93.9c0.5-1.7,0.9-3.6,0.4-5.3s-2.4-3.2-4-2.6L883.7,1447.7z"/>
<path class="st1" d="M1333.2,1337.5c6.2,15.7-9.8,33.1-5.2,49.3c0.8,2.5,1.8,4.8,3,7.1l13.7,27.2c1.3,2.7,3.5,5.8,6.4,5.2
	c2.2-0.4,3.3-2.7,4.1-4.8c5.5-15.4,3.1-32.9,9.7-47.9c1.5-3.5,3.5-6.8,5.3-10.2c5.4-10.3,7.9-21.9,7.3-33.5c-0.1-2.2-0.5-4.6-2-6.2
	c-1.4-1.2-3-2-4.8-2.3c-8.2-2.1-17.2-2.8-25,0.7s-13.6,12.1-11.8,20.4L1333.2,1337.5z"/>
<path class="st1" d="M1372.1,1394.7c12-5.6,26.6-4.6,38.3,1.6s20.7,16.9,25.9,29.1c8.4,19.8,7.2,42.1,5.9,63.5
	c-0.2,2.9-0.7,6.4-3.2,7.8c-1.3,0.8-3,0.8-4.3,1.7c-2,1.4-2.5,4.3-4.3,5.9c-2.9,2.7-7.5,1-10.8-1.1c-6.1-4.1-11.2-9.6-14.8-16
	c-8.4,6.3-17.6,11.5-27.4,15.4c-1.5,0.6-3.2,1.2-4.8,0.7c-1.7-0.7-3-2.2-3.5-4c-1.6-4.8,0.1-10.2,3.6-13.9s8.4-5.6,13.4-6.1
	c1.8-0.2,3.7-0.3,5.1-1.4c1.1-1.1,1.7-2.6,1.8-4.1c1.3-7,0.5-15.2-5.2-19.4c-4-2.9-9.7-3.4-12.9-7.1c-3.7-4.2-2.6-10.8,0-15.8
	s6.6-9.2,8.4-14.5c3.3-9.5-2-21.1-11.3-25L1372.1,1394.7z"/>
<path class="st1" d="M1295.5,1515.7c-2.6,8,7.6,13.9,15.8,15.7s18.7,5.4,18.6,13.8c-0.1,7.9-9.6,11.5-15.1,17.2
	c-5.3,5.7-6.8,13.9-3.9,21.1c2.1,4.9,6.2,9.1,6.1,14.4c-0.1,6.1-5.6,10.5-9.5,15.2c-7.7,9.2-10.1,21.5-13.9,32.8
	s-10.7,23.1-22.2,26.3c-11.8,3.3-24.1-3.6-36.4-3.6c-11.6,0-22.5,6-34.1,5.9c-20.3-0.1-36.3-19.8-38.7-40c-1.1-9.1,1.1-20,9.4-24
	c6.5-3.1,14.3-0.7,21.3-2.5c16.6-4.2,19.5-27.6,33.4-37.6c14.1-10.1,36.6-4.3,48.1-17.3c10.4-11.8,6.5-34.2,20.6-41.2L1295.5,1515.7
	z"/>
<path class="st1" d="M1337.6,1610.3c-6.5,9.4-10.6,20.3-11.8,31.6c-0.4,4.4-0.4,9,1.7,12.8c3.4,6.2,11.6,9.1,13.9,15.8
	c1.5,4.3,0.2,9,0.8,13.5s4.8,9.3,9,7.5c2.8-1.3,3.6-4.7,3.9-7.8c0.7-6.2,0.8-12.5,0.3-18.7c-0.4-4.4-0.3-10.1,3.8-11.7
	c3-1.2,6.2,0.7,8.8,2.6c6.1,4.4,14.2,9.3,20.6,5.2c3.9-2.5,5.4-7.8,4.6-12.4s-3.6-8.6-6.5-12.2c-1.5-1.8-3-3.6-3.4-5.9
	c-0.8-5,4.4-9,9.3-10.2s10.4-1.2,14.5-4.2c2.6-1.9,4.3-5.9,2.2-8.4c-1.2-1.4-3.1-1.8-5-2c-6.3-0.7-12.8-0.2-18.9,1.7
	c-6.9,2.1-13.4,5.8-20.6,6.4c-7.1,0.5-14.1-2-19.2-7L1337.6,1610.3z"/>
<path class="st1" d="M1115.6,1710.4c24.7,8.6,50.9,11.7,76.9,9c16-1.7,32.3-5.4,47.8-1.1c6,1.7,11.6,4.5,17.6,5.7
	c14.5,3,29.1-3.3,43.2-7.8c14.5-4.6,29.6-7.4,44.8-8.3c15.5-0.9,31.2,0.2,46.2-3.5c20.2-4.9,37.3-18,53.7-30.6
	c5,7.3-5.5,15.3-13.9,18.1l-43.7,14.5c-20.8,6.9-41.6,13.8-62.8,19.4c-62,16.1-126.6,20.1-190.1,11.7c-7.1-0.9-14.6-2.2-20.1-6.7
	s-8.2-13.4-3.6-19L1115.6,1710.4z"/>
<path class="st1" d="M1209.7,1903.6c10.1,6.9,16.4,18.1,16.9,30.3c0.1,3.2-0.2,6.5,1.2,9.3c3.6,7.9,15.1,6.7,23.4,4.2l63.5-19.2
	c18.1-5.4,36.2-10.9,53.4-18.7c30.9-14,59.2-35.4,92.6-41c2.9-0.5,6.2-0.8,8.6,0.9s3.4,5,6.1,6.2c2.3,1,5-0.1,7.3-1.2
	c81.8-39.1,155.7-93,217.8-158.9c9.9-10.5,19.7-21.7,24.5-35.3l-1.8-0.1c-6.7,5.2-17,2.6-23.1-3.3s-8.9-14.3-11.5-22.4l-16.3-49.9
	c-8.2,11.6-14.3,24.5-17.9,38.2c-3.8,14.3-5.2,29.9-14.3,41.5c-6.5,8.3-16.2,13.4-25.6,18.3c-7.6,3.9-15.8,7.9-24.2,6.7
	s-16.1-10.4-12.5-18.1c2-4.2,6.4-6.6,9.4-10.1s3.6-10.2-0.8-11.8c-1.8-0.7-3.9-0.1-5.8,0.4l-44,12.7c-7,2-14,4.1-20.2,7.9
	c-22.6,14.1-30.2,49.8-56.5,53.7c-5.4,0.8-11,0-16.5,0.9c-7.6,1.3-14.2,5.8-20.4,10.3c-17.9,13.1-34.6,27.8-50,43.7
	c-7.1,7.4-14,15.1-22,21.4c-10.8,8.5-23.5,14.2-36.3,19.3c-19.6,7.7-39.8,13.9-60.4,18.5c-11.9,2.7-24.5,5.1-33.8,13
	s-13.2,23.6-4.7,32.3"/>
<path class="st1" d="M1336.3,1433.1c-13.8,24-28.5,47.4-44,70.3c7.4,1.2,13.1-6.2,16.9-12.7l16.2-27.4c6-10.2,12.1-20.6,14.6-32.2
	L1336.3,1433.1z"/>
<path class="st1" d="M1344.4,1599.1c16-10.3,33.3-18.4,51.4-24.2c7.6-2.4,15.7-4.6,21.6-10.1c3.3-3.1,6-7.4,10.4-8.5
	c-0.4,12-7.2,22.8-17.9,28.3c-7.3,3.6-15.6,4.4-23.6,5.3c-12.2,1.4-24.4,3.3-36.4,5.8L1344.4,1599.1z"/>
<path class="st1" d="M1474.3,1538.8l-16,31.5c-2.4,4.8-4.3,11.8,0.3,14.5c3.6,2.1,8.2-0.7,10.4-4.2s3.1-7.8,5.5-11.1s6.3-5.6,8.7-9
	c3.2-4.7,3.2-10.8,3-16.4c-0.1-2.9-0.3-5.8-1.7-8.4s-4-4.6-6.8-4.4s-5.2,3.7-3.8,6.2L1474.3,1538.8z"/>
<path class="st1" d="M1517.6,1605.8c-11.6-6-26.4-10.9-37.1-3.2c-3.2,2.3-5.6,5.5-9.1,7.4c-4.4,2.4-11.3,4-10.8,9
	c0.4,3.8,5.4,5.3,9,4.1s6.2-4.2,9.4-6.2c11.3-7.4,27.9-3,38.2-11.8L1517.6,1605.8z"/>
<path class="st1" d="M1536.1,1552.2c-9.1-2.2-18.6-0.6-26.5,4.4c-1.8,1.2-3.8,2.9-3.7,5.2c0.2,1.4,0.9,2.8,1.9,3.8
	c12.4,15.8,28.2,33.3,48.3,31.7c17.2-1.4,34.8-17,49.7-8.1c9.6,5.7,10.9,21.2,2.5,28.5c9-5.4,19-9,29.4-10.5
	c9.2-1.3,19-1.1,26.8-6.1c14.2-9.1,15-31.2,28.7-41.1c11.9-8.6,28.2-4.7,42.9-4s33.3-6.6,32.8-21.3l-30.3,2.3
	c-2.4,0.2-5.3,0.2-6.9-1.7c-1.7-2-0.9-5-0.8-7.7c0.1-7.3-6.6-13.3-13.8-15s-14.6,0-21.8,1.7l-78.7,18.3c-7.2,1.7-14.8,3.5-20.3,8.4
	c-10.3,9.2-14,28.7-27.9,28.5c-7.5-0.1-13-6.5-18.3-11.7s-13.3-10-19.8-6.3L1536.1,1552.2z"/>
<path class="st1" d="M1792.3,1442.1c-6.5,11.1-13.1,22.3-19.6,33.4c-1.7,3.1-3.7,6-6.1,8.6c-7.5,7.6-19.5,8.7-27.9,15.3
	c-0.8,0.5-1.3,1.2-1.5,2.1c0,1.6,2,2.3,3.6,2.5c10.1,1.1,21.3,2,29.2-4.3c5.9-4.6,8.5-12.2,13.2-18c2.9-3.7,6.5-6.6,9.7-10
	c4.6-4.9,8.3-10.5,10.8-16.7c1.4-3.2,2.4-6.7,2-10.2s-2.7-6.9-6.1-7.8s-7.5,1.6-7.5,5.1L1792.3,1442.1z"/>
<path class="st1" d="M1522,282.1c36.8,35.3,67.3,76.6,90.1,122.3c-4.4-16.8-9-33.9-18.6-48.3c-6.7-10-15.7-18.5-21.6-29
	c-4.5-7.9-7.2-16.8-12.3-24.2c-8.5-12.4-22.7-19.6-36.2-26.2c-2.8-1.4-7.7-1.7-7.8,1.4c0,1.5,1.2,2.6,2.4,3.5
	c3.1,2.2,6.7,3.7,10.4,4.4L1522,282.1z"/>
<path class="st1" d="M1611.9,417.5c5.1,8.7,3.9,19.7,2.4,29.7c-1.7,11.9-3.6,24.4-11,34c-1.2,1.2-2,2.7-2.6,4.3
	c-0.4,1.6,0.2,3.7,1.8,4.2c1.2,0.2,2.5-0.1,3.5-0.9c5.8-3.6,9.3-10.1,10.8-16.7s1.4-13.5,1.2-20.3l-0.6-21
	c-0.1-4.5-0.8-9.8-4.8-11.8L1611.9,417.5z"/>
<path class="st1" d="M1817,1447.9c3.4,1.6,5.5,5.1,7.7,8.2s5.4,6.1,9.2,5.8c4.5-0.3,7.2-5.1,10.6-8.1s7.8-4.4,12.1-5.7
	s8.7-2.8,12-5.7s5.4-7.9,3.6-12s-8.2-5.7-10.9-2.1c-1.2,1.6-1.4,3.7-2.2,5.4c-1.7,3.5-5.4,5.4-8.9,7.1c-9.8,4.6-21.1,9.3-31.1,5.3
	L1817,1447.9z"/>
<path class="st1" d="M1526.9,602.1c-5.2-17.5-10.4-35-15.6-52.5c-0.9-3-1.8-6.1-4-8.4c-4.9-5.2-14.6-4.5-18.3-10.6
	c-2.4-3.9-1.3-9.1-3.1-13.3c-2.8-6.7-11.1-8.7-17.3-12.4c-9.9-6.1-15.3-17.4-13.7-28.9c1-6.2,4-11.9,6-17.9
	c6.4-19.7,2.3-41.3-10.9-57.3l1.5-0.3c-0.8-4.8,1.8-9.4,3.5-13.9s2.1-10.5-1.8-13.4c-3-2.2-7.2-1.5-11-1.9
	c-12.1-1.2-19.5-13.5-24.9-24.3c-0.8-1.7-1.7-3.5-1.4-5.3c1.1-7.8,17.5-4.3,18.1-12.1c0.2-2.4-1.4-4.4-3-6.2l-12.7-14.6
	c-2.5-2.9-5.3-6-9-7.1c-8.3-2.4-15.4,5.6-22.3,10.8c-9.4,7-21.5,9.2-32.2,14.2c-19,9.1-32.5,26.6-36.5,47.3
	c-1.1,5.7-1.4,11.8-4.4,16.8s-9.8,8.4-14.7,5.3c-1.9-1.2-3.2-3.2-5-4.5c-4.7-3.5-11.6-2-16.6,1.1s-9,7.7-14.2,10.5
	c-12.2,6.6-27.1,2.4-40.9,3.7c-6.6,0.6-13,2.5-18.9,5.6c-5.9,3.1-11.7,9.5-9.1,15.6c0.8,1.7,2.2,3.2,2.7,5c1.8,5.8-5.5,10.3-11.5,11
	s-13.4,0.7-16.6,5.9c-2.5,4-1.5,10.1-5.3,13s-9.8-0.3-12.2-4.6s-2.9-9.5-5.3-13.8c-5-8.7-16.4-11-26.5-11.7
	c-1.9-0.1-3.9-0.2-5.5,0.9s-2.3,3.2-3.2,5c-3,5.8-9.5,9.1-16,9.9s-13-0.5-19.4-1.9c-5.9-1.2-13.1-3.7-14-9.7
	c-0.8-5.3,3.9-9.8,4.8-15.1c1.5-8.8-7.8-15.7-16.5-17.6s-18.3-1.6-25.7-6.6l-2.4,1.1c-13.9-7.5-29.3,5.6-42.9,13.6
	c-9.2,5.4-19.5,8.7-29.5,12.3c-19.6,7-38.8,15.1-57.4,24.4c-17.6,8.8-35.7,19.5-44.5,37.1c-4.4,8.7-6.1,18.6-10.6,27.3
	c-4.4,8.7-12.9,16.6-22.6,15.7c2.9-5.1,5.8-10.2,8.7-15.4l40.2-71.1c0.9-1.6,1.8-3.4,1.3-5.2c-0.8-2.9-4.8-3.4-7.8-3
	c-20.9,2.5-39.4,19-44.1,39.5c-1.4,6.1-3.6,14.1-9.8,14c-5-11.9-11.4-23.1-18.9-33.6c-2.5-3.4-6.1-7.1-10.1-6.1
	c-5.8,1.4-6.5,10.8-12.3,12.3c-3.9,1-7.4-2.2-10.7-4.5c-6-4-13.3-5.4-20.4-6.5c-33.8-5.2-68.1-6.9-102.2-4.9
	c-4.3,0.2-9.5,0.1-11.6-3.7c-1.4-2.5-0.7-5.6,0.2-8.4c2.7-8.5,6.4-16.6,11.2-24.1l2.1-2.7c0.4-4.7,7.6-6,11.2-2.9s4.3,8.3,4.7,13.1
	s0.5,9.9,3.5,13.6c7.2,8.9,22.5,0.9,26.3-9.8s1.8-22.9,5.3-33.7c4.7-14.3,19-25.9,17.7-40.9c-1.4-16-19.5-24.6-35.2-28
	c-24.7-5.2-50.2-5.6-75.1-1c-4.5,0.8-9.1,1.8-13.6,0.9c-5.2-1-9.5-4.3-14.2-6.6c-12.7-6.4-28.1-5.7-41.6-1.3s-25.6,12.3-37.6,20.1
	c-6.3,4.1-12.9,13.2-6.9,17.7c2.8,2.1,7.8,2,8.7,5.4c0.5,1.9-0.7,3.8-1.9,5.3c-9.1,11.3-22.7,18-37.1,18.3l10.9-16.3
	c-14-7-33.4,2-37,17.3c-0.9,3.4-0.8,6.9,0.4,10.2c2.2,5.6,8,8.8,13.6,10.9c17.7,6.4,37.2,5.2,54-3.1c4-2,8-4.5,12.4-5.2
	c5.1-0.8,10.7,0.8,15.5-1.1c4-1.6,6.8-5.2,9.7-8.3c19.5-21,54.6-25,78.4-9c-3.8,8.1-14.2,10.7-23.1,9.9s-17.5-4.2-26.4-4.2
	c-19.6,0-35.4,15.9-35.4,35.5c0,7.4,2.3,14.5,6.6,20.5c1.7,2.4,3.8,4.8,4.5,7.7s-0.9,6.6-3.9,6.9c-1.6,0-3.2-0.6-4.4-1.6
	c-5.3-4-8.2-10.4-12.3-15.6s-10.7-9.8-17-7.8c2.1,5.5,4.1,11.7,1.8,17.1s-11.4,7.4-13.8,2c-1.1-2.4-0.4-5.3-1.1-7.9
	c-1.5-5-8.2-6.6-13.3-5.4s-9.8,4.2-15,4.9c-8,1.1-15.9-3.5-21-9.8s-7.9-14.2-10.5-21.8c-3-8.7-6.1-17.4-9.1-26.1
	c-1.2-3.5-2.6-7.2-5.3-9.8c-4.3-4-10.8-4.1-16.1-6.7c-7.8-3.7-12-11.9-17.3-18.7s-14.3-12.6-22.1-9.1l-4-0.6
	c-11.3,20.6-29.8,36.4-52,44.4c4.7-13.7,12.2-26.3,21.8-37.2c-14.1-8.1-32.8-4.3-45.6,5.7s-20.6,25.1-26.2,40.4
	c-2.9,7.9-5.3,16.1-10.8,22.5s-14.9,10.2-22.4,6.3c-2.6-1.4-4.7-3.5-7.4-4.6s0,0-7.6,2.1c-2.7,0.8-14.8,18.1-31,44.2
	c-0.1-0.3-0.3-0.3-0.5-0.1c-3.6,3.9-16.3,27.2-33.2,54.9c-11.6,19-26.6,47.4-44.4,88.9c-6,12.9-11.5,25.5-16.3,37.5
	c-1.8,5.3-3.6,10.7-5.4,16.3c-1.4,3.6-2.7,7.3-4.1,11.1c-22.3,59.6-36.5,128.8-42,158.8C6.1,874.3-0.9,927.5,0.3,974.2
	C3.2,1080.6,13,1251,71.7,1372.5s76.5,151.6,76.5,151.6s19.3,6,23.9,0l3.3-4.5c0.9-13.6-7.6-25.8-14.6-37.6
	c-16.3-27.5-25.7-58.6-27.4-90.5c-0.4-7.7-0.1-16.2,5.2-21.7l3.7,0.2c0.2-13,13.7-22,26.5-24.5s26.3-1,38.7-5.1
	c12.2-4,22.1-12.9,30.4-22.7c11-12.9,19.9-27.6,26.3-43.3c2.3-5.7,4.2-12.3,1.3-17.7c-4.1-7.6-14.6-7.9-23.2-8.8
	c-29.8-3.3-55.4-29.4-58.1-59.2c-1.2-13.2,1.5-26.9-2.4-39.6c-2.6-8.5-8.1-15.9-11.1-24.2c-3.9-10.8-3.4-22.6-3-34.1
	c0.9-21.2,1.8-42.4,2.7-63.6c0.7-17.8,1.5-35.8,5.5-53.1l-1.8-1.2c5.8-34.4,14.7-68.2,26.5-101c9.3,28.2,3.4,58.8-1,88.2
	c-10.9,72.7-11.7,146.6-2.4,219.6c0.7,5.6,1.7,11.7,5.8,15.6c2.9,2.8,7.1,4.1,11,5.1c39.6,10.6,81,13,121.5,7
	c23.4-3.4,48.1-10.8,62.2-29.7c2.5-3.3,4.6-7,5-11c0.9-9.3-7-16.8-12.5-24.3c-10.6-14.6-13.8-33.4-8.7-50.7c0.6-2,1.3-4.1,0.5-6
	c-0.9-2.3-3.5-3.3-5.9-3.8c-17.5-3.8-39.3,6.6-52-6.1c-5.7-5.6-7.2-14.2-8-22.1c-2.8-27.8-0.7-55.9,6.2-82.9
	c0.9-3.6,2.6-7.8,6.3-8.4c3.3-0.5,6.2,2.3,8,5.2c8.1,12.9,7,29.2,8.3,44.4c2.1,24.5,13.1,50.7,35.7,60.2c3.9,1.6,8,2.8,11.4,5.3
	c5.9,4.5,8,12.3,11.3,18.9c7.2,14.4,20.9,24.2,34.1,33.4l60,41.7c7.5,5.2,15.1,10.5,20.5,17.9c14.1,19.1,10.7,48.1,27.3,65
	c1.7,1.8,3.8,3.4,6.2,3.8c8.4,1.4,12-10.9,19.6-14.7l2.5-3.7c7.2,21,4,43.9,3,66.1c-2.4,60.2,12.4,119.9,42.6,172
	c2.4,4.1,5.3,8.5,9.9,9.7c6.5,1.7,12.5-3.6,17.2-8.4c14.5-15.2,29.7-31.9,32-52.7c1-9.1-0.5-18.2-0.2-27.3s3.1-18.9,10.5-24.2
	c3.9-2.8,8.8-4.1,13.5-5.1c17.6-3.4,37.6-3.8,50.1-16.6c5.5-5.6,8.7-13,13.6-19.1c10.3-13,26.7-19.3,42.3-25c18-6.6,39-13,55.5-3.1
	c12.5,7.6,18.3,22.3,27.2,33.9c7.6,10,17.8,17.8,25,28.2s10.6,24.9,3.4,35.2c5.1,4.3,12.1,5.3,18.2,2.6c3.9-1.8,7.2-5,11.4-5.4
	c6.9-0.7,12,6.1,15.1,12.3c7.4,15,11.9,31.4,13.1,48.1l-1,1.5c2.6,21.7-21.5,44-10.1,62.7c8.4,13.7,30.6,13.6,38.4,27.6
	c3.4,6.2,3.1,13.7,4.9,20.5c3.5,13.7,14.7,23.8,25.3,33.1c17.1,14.9,34.5,30,55.1,39.3c-5.3-16.4-10.6-32.8-15.9-49.2
	c-2.6-8-5.2-16.1-9.7-23.2c-6.3-10-15.9-17.4-25.3-24.6l-31.4-24c-7.5-5.7-15.6-12.6-16.3-22c-0.9-11.4,9.7-21.1,9.6-32.5
	c0-5.2-2.1-10.8,0.7-15.1c4.3-6.7,14.5-3.3,21.3,0.8c21.8,13.1,45.4,28.5,52.6,52.9c0.4,1.7,1.1,3.4,2,4.9c4.9,7,15.4,0.3,22-5.1
	c12.3-10,28.3-14.6,40.4-24.8c20.9-17.7,24.8-52.2,8.4-74.2c-14.2-19-40.5-28.5-49.3-50.6c-1.6-4-2.5-8.7-0.8-12.6
	c2.8-6.6,11.1-8.5,17.7-11.3s13.4-10.3,9.4-16.4l2,0.2c10.5-9.7,25.6-12.2,39.4-15.8c43.3-11.5,82.5-40,104-79.3
	s23.7-89.4,2.8-129.1c-10.2-19.4-25.2-35.8-35.8-54.9s-16.5-43-6.9-62.6c11.9-24.2,41.8-32.5,68.4-37.2c3.2-0.6,6.7-1.1,9.5,0.6
	c7.3,4.2,2.7,17.4,9.3,22.6l-2.4,1.6c9.9-0.8,23.6,1.7,23.6,11.6c0,2.6-1.1,5.1-0.7,7.6c1.1,8.1,12.9,7.9,19.9,12.2
	c9.2,5.6,9.1,18.5,9,29.2c-0.1,10.7,3,24.2,13.6,26.1c3.1-10.4,11.3-18.3,17.8-27s11.4-20.4,6.7-30.2c-7.3-15.3-32.3-15-39.4-30.4
	c-7.6-16.4,11.3-32.9,14-50.8c1.1-7.3-0.6-14.8,0.7-22s7.7-14.6,14.9-12.9c2.5,0.6,4.7,2.2,7.2,2.5c4.2,0.5,7.9-2.7,10.5-6
	c10.1-12.8,12.6-29.8,14.1-46c2-21.4,2.9-42.8,2.6-64.3c-0.1-10.6-0.8-22-7.4-30.4c-3.8-4.8-9.2-8.1-12.5-13.2
	c-7.2-10.8-3.5-26.4-10.9-37.2c-5.7-7.8-16-10.8-25-7.3c-5.6,2.4-10.1,7.1-15.9,8.9c-5.5,1.6-13-1.8-12.8-7.1
	c-5.5-0.4-8-8.9-7.7-15.1c0.9-23.2,4.6-46.1,10.9-68.4c1.2-4,2.4-8.1,5-11.4c3.6-4.7,9.4-7.1,14.7-9.6c16.3-7.6,31.6-17.1,45.6-28.4
	c4.9-4,10.2-10,7.7-15.8c-1.4-3.4-5-5.2-8.1-7.2c-5.7-3.7-10.5-9.1-12.2-15.6s0.4-14.2,5.9-18.2s14.4-2.7,17.8,3.2
	c3.8-3.7,3.5-9.8,3.6-15.1s1.8-11.8,7-13.1c5,21.8,10.1,43.6,15.1,65.5c2.1,9.2,4.2,18.4,8,27c5.7,13.2,14.8,24.6,23.8,35.8
	c12.8,16,26.2,32.4,44.6,41.4C1532.8,624.4,1530,612.4,1526.9,602.1z"/>
<path class="st1" d="M1346.8,678.1l-1.6-1c-0.1,0.4-0.1,0.7-0.2,1.1C1345.6,678.3,1346.2,678.2,1346.8,678.1z"/>
<path class="st0" d="M209.2,430.2c-7.5,14.1-5.7,31.2-4.8,47.2c1.2,19.8,0.6,39.7-1.6,59.5c-0.8,7.2-1.9,14.5-5.4,20.7
	c-4.5,8.2-12.6,13.7-18.4,21.1c-8.4,10.7-11.6,24.5-14.5,37.9c-6.7,30.6-13.5,61.4-13.5,92.7c5.4-6.6,12.4-13.8,20.9-13
	c9.3,0.9,15,11.3,15.3,20.7s-2.7,18.6-2.8,28c-0.2,32.8,34.9,55.6,41.5,87.7c13.7-20.8,31.6-38.6,52.5-52.2c2.5-1.7,5.3-3.4,6.7-6.1
	c2.8-5.5-1.2-12.2-6.3-15.6s-11.4-4.8-16.5-8.3c-19.5-13.4-11.3-46.1-26.8-63.9c-2.1-2.4-4.8-5.2-4-8.3c0.5-2.1,2.4-3.4,4.3-4.5
	c9.8-5.7,21.5-9.1,28.5-18s4.1-26.1-7.2-26.5c-9.2-0.3-14.5,9.9-19,18s-14.9,16-21.9,10c-2.4-2.1-3.5-5.4-3.8-8.6
	c-1.6-16.7,13.6-29.5,24.8-41.9c13.4-14.9,22.7-33,31.8-50.8c10.5-20.7,21-41.3,31.5-61.9c-2.4-3-7.1-0.3-9.8,2.4
	c-18,18.7-32.2,40.6-41.9,64.6c-3.4,8.5-6.6,17.8-13.9,23.4c-6.6,5.1-16.3,6-23.2,1.4s-9.4-15-4.6-21.8c-0.2-3.5,5.4-3.9,8-1.6
	s4.7,5.8,8.2,6.2c2.8,0.3,5.2-1.7,7.2-3.6c17.5-17,28.8-39.4,31.8-63.5l-34,7c-2.9,0.6-6.5,1-8.5-1.2c-3-3.3,0.6-8.5,4.3-10.9
	c13.8-9,33.3-9.2,43.5-22.2c11.4-14.5,0.3-39.9-18.1-41.4c-8.6-0.7-18.5,2.7-25.1-2.8c-2.9-2.4-4.6-6.3-8-8s-9,1.6-6.9,4.8
	L209.2,430.2z"/>
<path class="st0" d="M303.3,676.3c-6.7-5.7-11.9-13.5-13.3-22.2s1-18.2,7.3-24.3c7.5-7.4,18.9-9.2,27.8-14.8
	c5.5-3.4,9.9-8.3,15.4-11.7s12.8-5.1,18.3-1.8c7.1,4.3,7.8,14.6,4.9,22.4s-8.2,14.5-10.7,22.4c-0.7,1.9-0.9,3.9-0.5,5.9
	c1,4,5.2,6.2,8.5,8.8c12,9.3,13,26.8,13,41.9c0,13.1,0,26.2,0,39.4c0,3-0.1,6.4-2.1,8.7c-2.8,3.1-7.7,2.7-11.7,1.4
	c-17-5.7-27.9-23.6-29-41.5c-0.4-6.7,0.2-13.8-2.5-20c-4.8-10.9-18-14.9-29.6-17.7L303.3,676.3z"/>
<path class="st0" d="M463.7,731.7c-3.6-5.8-12.6-5.6-18-1.5s-8,10.8-10.5,17.1L410.9,811c-6.2,16.2-12.4,32.5-16,49.4
	c-1.6,7.4-2.6,15.2-0.7,22.5s7.4,14.2,14.8,15.7c7,1.4,14.2-2.1,19.6-6.8c14.1-12.1,20-31.6,19.8-50.2c-0.1-8-1.1-16.6,2.6-23.8
	c3-5.9,8.8-10.2,10.7-16.5c3.1-10-4.5-22,1-30.9c4-6.5,12.8-7.7,20.3-8.9s16.4-4.9,17.4-12.5s-6.5-13.4-13.6-16
	c-9.6-3.6-19.9-4.7-30.1-3.1L463.7,731.7z"/>
<path class="st0" d="M382,640.8c6.8-0.1,13.7,0.4,20.4,1.4c1.8,0.2,3.5,0.7,5.1,1.6c3.3,2.2,3.8,7.2,1.9,10.6s-5.6,5.6-9.4,6.8
	c-6.8,2.2-14.2,2-20.9-0.5c-4.5-1.8-9-5.2-9.6-10s5.1-9.9,9.1-7.2L382,640.8z"/>
</svg>
