<svg xmlns="http://www.w3.org/2000/svg" width="1122.58" height="129.04" viewBox="0 0 1122.58 129.04"><path d="M1120.7,156a53.34,53.34,0,0,0-7.9-1c-1.4-.1-4.3-.1-7.5-.1a73.31,73.31,0,0,0-.7-7.9c-.7-4-6.1-11.8-12.4-11.8-7.3,0-10,7-12,11-.8,1.6-1.2,5.1-1.4,8.7h-8.4a53,53,0,0,0-8,1s1.3,12.4,2.5,19.1a149.63,149.63,0,0,0,5.6,20.1c.9,2.1,3,6.4,6.2,7.1s24.7-.1,27.4-.1a20.14,20.14,0,0,0,7.7-1c3.4-1.1,4.1-8.1,6-15.4s4.8-29,4.8-29A14.58,14.58,0,0,0,1120.7,156Zm-29.2-1c-.9,0-4-.1-7.6-.2-.1-5.8-.1-11.4.2-12.1.8-1.5,4.7-3,8.2-3.3s7.2,1.8,7.6,3c.2.6.5,6.5.7,12.5-4.3.1-8.1.2-9.1.1Z" transform="translate(-0.02 -93.9)" fill="#373a36"/><path d="M951.5,157.4a2.37,2.37,0,0,0-1.5-.9c-.3,0-4.8-.5-19.3-.8-2.7-18.1-8-44.6-15.9-44.3-7.7.2-12.1,19.2-13.3,25-.6,2.8-2.2,11.2-3.7,19.2-3.2,0-6,.1-8.4.1v-.3h-6.9a.76.76,0,0,0-.4-.2h-1.4a.65.65,0,0,0-.6.6v.2a14,14,0,0,0-2.8.3c-.7.4,2.8,17.5,3.7,22.9s2.9,14.2,3.5,17.8a14.29,14.29,0,0,0,2.4,6.3,5.3,5.3,0,0,0,2,.6l51.3-.1a1.42,1.42,0,0,0,1.1-.1c.5-.3,5.9-22.5,7.2-29.9S951.6,157.8,951.5,157.4Zm-50.1,3.1a.86.86,0,0,1-.8.8h0l-4.2-.2a.86.86,0,0,1-.8-.8h0l.2-3.5a.86.86,0,0,1,.8-.8h0l4.2.2a.86.86,0,0,1,.8.8h0Zm-1.1-5c2.8-17.8,7.7-42.5,14.6-42.6s10.8,25,13,42.8c-3.3-.1-6.9-.1-11.1-.1-6.3-.1-11.8-.1-16.5-.1Zm31.3,5.6-4.2.2a.77.77,0,0,1-.8-.7h0l-.2-3.5a.79.79,0,0,1,.8-.8l4.2-.2a.79.79,0,0,1,.8.8l.2,3.5a1,1,0,0,1-.8.7Z" transform="translate(-0.02 -93.9)" fill="#ffd400"/><path d="M929.9,156.6l.1,2.6a.66.66,0,0,1-.4.5h-.3a.66.66,0,0,1-.5-.4h0l-.1-2.6-2,.1.2,4.1,4.9-.3-.2-4.1Z" transform="translate(-0.02 -93.9)" fill="#ffd400"/><path d="M505.9,139.5c-.5-1.1-10.4-1.1-10.4-1.1s.9-9.3.3-9.7c-.4-.2-9.6.5-19.6,1.2-1.3-9.1-5.6-26.2-19.6-26.4-14.4-.2-19.7,17.7-21.5,26.7-7.3-.5-13-1-13-1s-3.7-.3-5.1-.3-.1,8.1-.6,8.2-8.1-1.1-9.2,1.5c0,1,.1,2.1.2,3.1a1.38,1.38,0,0,1-.4.3c-.2.1-.4.3-.7.5a1.42,1.42,0,0,0-.9.8,1.72,1.72,0,0,0,.1,1.4l-1.4,3.2a.72.72,0,0,0,1.2.8.31.31,0,0,0,.1-.2l1.4-3.2a1.8,1.8,0,0,0,.9-.4c1.1,10.2,3.4,29.8,3.5,31.7.2,2.5,1.8,22.5,3.7,23.2s22.3-.7,43.2-.3,38.6.7,40.6.1,2.4-10.8,3.2-16.3C502.6,177.6,506.4,140.6,505.9,139.5Zm-48.5-33.3c7.4.3,11.2,7.4,13.2,14.5-2.2-6.4-6.2-12.4-13.2-12.5-11-.2-15.3,14.2-16.9,22.3l-1.6-.1C440.4,122.3,445.1,105.6,457.4,106.2Zm-14,24.5c1.4-7.4,5.2-20.6,14.6-20.1,8.2.4,10.9,12.3,11.8,19.8-3.9.2-7.7.5-10.9.6-4.4.1-10-.1-15.5-.3Z" transform="translate(-0.02 -93.9)" fill="#ffd400"/><path d="M324.3,135.8a3.51,3.51,0,1,0,3.3,3.7v-.2a3.51,3.51,0,0,0-3.3-3.5Z" transform="translate(-0.02 -93.9)" fill="#f1567b"/><path d="M275.5,136.2a3.5,3.5,0,1,0,3.5,3.5h0a3.54,3.54,0,0,0-3.5-3.5Z" transform="translate(-0.02 -93.9)" fill="#f1567b"/><path d="M337.4,151.2c-2.1-4.1-7.4-15.9-7.4-15.9a8.92,8.92,0,0,0-3.4-.9c-2.2-8.1-4.4-11.7-5.4-14.3-2.5-6.5-7-24.1-20.6-25s-19.7,15.6-21.2,20.3A172.17,172.17,0,0,0,273,135c-1.1,0-2.1.1-3.2.2-.9.3-21.3,35.8-19.7,52.2,1.4,15,14.3,16.9,17.5,17.4s64.9.5,69.8-.8,9.6-12.7,10.4-21.2C348.8,170,339.6,155.3,337.4,151.2Zm-61.8-6.5a5,5,0,1,1,4.9-5h0A4.93,4.93,0,0,1,275.6,144.7Zm40-2.8c-2.2,2-6.7,2.1-14.6,2.2-8.8,0-14.7.2-16.4-1.9-1.4-1.7-.3-6.2-.6-6.7-.3-.3-2.8-.5-5.7-.5,1.3-6.6,2.7-9.4,3.7-14.3,2.6-13.3,9-23.2,18.5-23.1s16.4,18,17.7,23.6c.5,2.3,2.2,5.4,4,13a19.83,19.83,0,0,0-3.5.3c-1.1.3-.5,4.9-3.1,7.4Zm8.7,2.4A5,5,0,1,1,329,139v.3A4.82,4.82,0,0,1,324.3,144.3Z" transform="translate(-0.02 -93.9)" fill="#f1567b"/><path d="M672.4,161.1a2.25,2.25,0,0,0-.3,4.5,2.25,2.25,0,0,0,2.4-2.1v-.2a2.19,2.19,0,0,0-2.1-2.2Z" transform="translate(-0.02 -93.9)" fill="#ffd400"/><path d="M640.6,161.4a2.3,2.3,0,1,0,2.3,2.3h0a2.4,2.4,0,0,0-2.3-2.3Z" transform="translate(-0.02 -93.9)" fill="#ffd400"/><path d="M681,171.2c-1.4-2.7-4.8-10.4-4.8-10.4a4.65,4.65,0,0,0-2.3-.6c-1.5-5.3-2.9-10.2-3.5-12-1.7-4.3-4.6-15.7-13.4-16.3s-12.8,10.2-13.9,13.3c-.4,1.3-2.3,8.4-4.2,15.4a14.92,14.92,0,0,0-2.1.2c-.6.2-13.9,23.4-12.9,34.1.9,9.8,9.4,11.1,11.4,11.3s42.4.3,45.6-.5,6.3-8.3,6.8-13.9C688.4,183.4,682.4,173.8,681,171.2Zm-40.4-4.3a3.25,3.25,0,1,1,3.2-3.3h0a3.18,3.18,0,0,1-3.2,3.3Zm26.1-1.8c-1.4,1.3-4.4,1.4-9.5,1.4-5.7,0-9.6.1-10.7-1.3-.9-1.1-.2-4.1-.4-4.4s-1.8-.3-3.7-.3c.9-4.3,1.8-8.7,2.4-12,1.7-8.7,5.9-15.2,12.1-15.1s10.7,11.8,11.5,15.4c.3,1.5,1.4,6.2,2.6,11.1a9,9,0,0,0-2.3.2c-.7.3-.2,3.3-2,5Zm5.7,1.5a3.26,3.26,0,1,1,3-3.5v.2a3.08,3.08,0,0,1-3,3.3Z" transform="translate(-0.02 -93.9)" fill="#ffd400"/><path d="M896.3,171.2c-1.4-2.7-4.8-10.4-4.8-10.4a4.65,4.65,0,0,0-2.3-.6c-1.5-5.3-2.9-10.2-3.5-12-1.7-4.3-4.6-15.7-13.4-16.3s-12.8,10.2-13.9,13.3c-.4,1.3-2.3,8.4-4.2,15.4a14.92,14.92,0,0,0-2.1.2c-.6.2-13.9,23.4-12.9,34.1.9,9.8,9.4,11.1,11.4,11.3s42.4.3,45.6-.5,6.3-8.3,6.8-13.9C903.7,183.4,897.7,173.8,896.3,171.2Zm-40.4-4.3a3.25,3.25,0,1,1,3.2-3.3h0a3.18,3.18,0,0,1-3.2,3.3Zm26.1-1.8c-1.4,1.3-4.4,1.4-9.5,1.4-5.7,0-9.6.1-10.7-1.3-.9-1.1-.2-4.1-.4-4.4s-1.8-.3-3.7-.3c.9-4.3,1.8-8.7,2.4-12,1.7-8.7,5.9-15.2,12.1-15.1s10.7,11.8,11.5,15.4c.3,1.5,1.4,6.2,2.6,11.1a9,9,0,0,0-2.3.2c-.6.3-.2,3.3-2,5Zm5.7,1.5a3.26,3.26,0,1,1,3-3.5v.2a3,3,0,0,1-3,3.3Z" transform="translate(-0.02 -93.9)" fill="#d0d1d1"/><path d="M137.3,149.4a.5.5,0,0,1-.6.5h-.4a.5.5,0,0,1-.5-.6h0l.2-3.5-2.7-.1-.2,5.4,6.5.3.2-5.4-2.3-.1Z" transform="translate(-0.02 -93.9)" fill="#00a499"/><path d="M206.6,147a3.22,3.22,0,0,0-2-1.2c-.4,0-6.4-.6-25.6-1.1-3.6-24.1-10.7-51.2-21.1-50.8-10.2.3-17,25.5-18.7,33.1-.8,3.7-1.9,6.9-3.9,17.5-4.2,0-7.9.1-11.2.1v-.4H115c-.1-.2-.4-.2-.6-.2h-1.8a.86.86,0,0,0-.8.8v.2a19.75,19.75,0,0,0-3.8.4c-.9.5,3.7,23.3,4.9,30.5s3.8,18.8,4.6,23.6,2.6,7.8,3.2,8.4,2.7.8,2.7.8l68.2-.2a2.2,2.2,0,0,0,1.4-.1c.6-.4,7.8-29.8,9.5-39.6S206.8,147.4,206.6,147Zm-66.5,4.1a1,1,0,0,1-1.1,1h0l-5.6-.2a1,1,0,0,1-1-1.1h0l.2-4.7a1,1,0,0,1,1.1-1h0l5.6.2a1,1,0,0,1,1,1.1h0Zm-1.5-6.7c3.7-23.7,10.3-48.5,19.3-48.6s14.3,25.2,17.3,48.8c-4.3-.1-9.2-.1-14.8-.2-8.2,0-15.5-.1-21.8,0Zm41.5,7.4-5.6.3a1,1,0,0,1-1.1-1h0l-.2-4.7a1,1,0,0,1,1-1.1l5.6-.3a1,1,0,0,1,1.1,1l.2,4.7a1,1,0,0,1-1,1.1Z" transform="translate(-0.02 -93.9)" fill="#00a499"/><path d="M178,145.8l.2,3.5a.56.56,0,0,1-.5.6h-.4a.56.56,0,0,1-.6-.5h0l-.2-3.5-2.7.1.3,5.4,6.5-.3-.3-5.4Z" transform="translate(-0.02 -93.9)" fill="#00a499"/><path d="M377.6,154.9a.43.43,0,0,1-.4.4h-.3a.43.43,0,0,1-.4-.4l.1-2.6-2-.1-.2,4,4.8.2.2-4-1.7-.1Z" transform="translate(-0.02 -93.9)" fill="#83de53"/><path d="M439.9,151a4.18,4.18,0,0,0-1.8-1.1c-.3,0-5.7-.6-22.9-.9-3.2-21.6-9.6-50.1-18.9-49.8-9.1.3-14.4,19.8-15.8,26.7-.7,3.3-2.6,13.3-4.4,22.8-3.8,0-7.1.1-10,.1v-.4h-8.2a.76.76,0,0,0-.5-.2h-1.6a.68.68,0,0,0-.7.7v.2a13.17,13.17,0,0,0-3.4.4c-.8.4,3.3,20.9,4.4,27.3s3.4,16.8,4.2,21.2,2.3,7,2.9,7.5a6,6,0,0,0,2.4.7l61.1-.1a2,2,0,0,0,1.3-.1c.5-.3,7-26.7,8.5-35.5C437.8,161.8,440.1,151.4,439.9,151Zm-59.6,3.7a1,1,0,0,1-1,.9l-5-.2a1,1,0,0,1-.9-1l.2-4.2a1,1,0,0,1,1-.9l5,.2a1,1,0,0,1,.9,1Zm-1.3-6c3.3-21.2,9.2-47.6,17.3-47.7s12.9,26.7,15.5,47.9c-3.9-.1-8.3-.1-13.3-.2Zm37.2,6.7-5,.3a1.06,1.06,0,0,1-1-.9l-.2-4.2a1,1,0,0,1,.9-1l5-.3a1.06,1.06,0,0,1,1,.9l.2,4.2a1,1,0,0,1-.9,1Z" transform="translate(-0.02 -93.9)" fill="#373a36"/><path d="M414.1,152.3l.1,2.6a.66.66,0,0,1-.4.5h-.3a.43.43,0,0,1-.4-.4l-.1-2.6-2,.1.2,4,4.8-.3-.2-4Z" transform="translate(-0.02 -93.9)" fill="#83de53"/><path d="M16.9,137.2c-.1-.1-.3-.2-.4-.3C16.6,137,16.8,137.1,16.9,137.2Z" transform="translate(-0.02 -93.9)" fill="#a6abee"/><path d="M290.9,182.5c-1-8.5-3.9-21.8-5.6-22.2a86.62,86.62,0,0,0-10.2.1V158a2,2,0,0,0-1.2-1.8v-.4c0-1.2-.9-2-1.1-3-.2-.8-.5-2.4-.6-3-.4-7.2-3-27-18.3-27.4-16.6-.3-20.4,20.9-21.1,27.2h-.1a25.59,25.59,0,0,1-.6,3.1c-.3.9-1.1,1.7-1.1,2.9v.4a2.12,2.12,0,0,0-1.2,1.9v2.7H229c-.8,0-2.2-.1-3.7-.2v-1.1h-.5V159h-2.7v.3h-.8v1a7.43,7.43,0,0,0-2.6.3,5.17,5.17,0,0,0-1.8,1.5,18.61,18.61,0,0,0-1,2.5,2.65,2.65,0,0,1-.6.5,3,3,0,0,0-.7.5,1.22,1.22,0,0,0-.9.8,1.39,1.39,0,0,0,.1,1.4l-1.5,3.3a.67.67,0,0,0,1.2.6v-.1l1-2.2a90.33,90.33,0,0,0-2.5,17.2c-.5,11.5,1.1,23,2.4,24.2s6.1.7,6.1.7,23.5-.4,31.4-.4,31.6.3,31.6.3a11.48,11.48,0,0,0,5.5-1C292,209.4,292,191,290.9,182.5Zm-17-22.2v.2l-5.4.2a.6.6,0,0,1-.1-.4V158c0-.2,0-.3.1-.4a1.75,1.75,0,0,1,.1.5,1,1,0,0,0,.4.5c.3.2.6-.2.6-.2h3.3l.5.3.4-.7Zm-42.6,0V158l.4.7.5-.3h3.3s.3.3.6.2a1,1,0,0,0,.4-.5,1.21,1.21,0,0,0,.1-.5.6.6,0,0,1,.1.4v2.3a.75.75,0,0,1-.4.7l-5-.2v-.5Zm6.6.7a1.7,1.7,0,0,0,.1-.7V158a1.89,1.89,0,0,0-1.1-1.8,3.17,3.17,0,0,0,0-1.7,7.67,7.67,0,0,1-1.3-4.2h0c.4-4.1,3.2-25.3,17.9-25.1,14.1.2,15.8,19.8,16.1,25h-.1a7.87,7.87,0,0,1-1.3,4.2,2.48,2.48,0,0,0,0,1.7,2.11,2.11,0,0,0-1.1,1.8v2.3a.9.9,0,0,0,.1.5l-12.4.5a162.92,162.92,0,0,1-16.9-.2Z" transform="translate(-0.02 -93.9)" fill="#ffd400"/><path d="M1091.8,169.2c-1.2-9.7-4.4-24.8-6.3-25.3a112.09,112.09,0,0,0-11.6.1v-2.8a2.33,2.33,0,0,0-1.3-2.1v-.5c0-1.4-1-2.3-1.3-3.4a29.54,29.54,0,0,1-.7-3.4c-.5-8.2-3.4-30.8-20.8-31.2-18.9-.4-23.2,23.8-24.1,31h-.2s-.4,2.5-.7,3.6-1.2,2-1.2,3.3v.5a2.33,2.33,0,0,0-1.3,2.1v3.1h-1c-1,0-2.5-.1-4.2-.2v-1.3h-.6v-.3h-3.1v.3h-.9v1.1a10.21,10.21,0,0,0-3,.3,4.94,4.94,0,0,0-2,1.8,13.59,13.59,0,0,0-1.1,2.8,4.35,4.35,0,0,1-.7.6c-.3.2-.5.4-.8.6a1.17,1.17,0,0,0-1,.9,1.57,1.57,0,0,0,.2,1.6l-1.7,3.7a.91.91,0,0,0,.3,1.1,1,1,0,0,0,1.1-.3v-.1l1.1-2.5a107.81,107.81,0,0,0-2.9,19.6c-.5,13.1,1.2,26.2,2.8,27.7s6.9.8,6.9.8,26.8-.4,35.8-.5,36.1.3,36.1.3a13.79,13.79,0,0,0,6.3-1.1C1093,199.9,1093,178.9,1091.8,169.2Zm-19.4-25.3v.2l-6.1.3a.75.75,0,0,1-.1-.5v-2.6a.76.76,0,0,1,.2-.5l.2.6a2.65,2.65,0,0,0,.5.6c.3.2.7-.2.7-.2h3.8l.6.3.4-.8Zm-48.6,0v-2.6l.4.8.6-.3h3.8s.4.4.7.2a1.21,1.21,0,0,0,.5-.5,3.22,3.22,0,0,0,.2-.6.76.76,0,0,1,.2.5V144a1.23,1.23,0,0,1-.4.8l-5.7-.2a1.08,1.08,0,0,1-.3-.7Zm7.6.8a2.35,2.35,0,0,0,.2-.8v-2.6a2.33,2.33,0,0,0-1.3-2.1,3.92,3.92,0,0,0,0-1.9,8.4,8.4,0,0,1-1.5-4.7h0c.5-4.7,3.7-28.8,20.5-28.6,16.1.2,18.1,22.6,18.3,28.6h-.1a8.85,8.85,0,0,1-1.4,4.7,3.08,3.08,0,0,0,0,1.9,2.53,2.53,0,0,0-1.3,2.1v2.6a1.27,1.27,0,0,0,.1.6c-5.6.2-11,.5-14.1.6-5,.1-13-.2-19.4-.4Z" transform="translate(-0.02 -93.9)" fill="#ffd400"/><path d="M814.3,171c-1.1-8.8-4-22.7-5.8-23.1a93.49,93.49,0,0,0-10.6.1v-2.5a2.24,2.24,0,0,0-1.2-1.9v-.5c0-1.3-.9-2.1-1.2-3.1-.2-.8-.5-2.5-.6-3.1-.5-7.5-3.1-28.1-19-28.4-17.3-.4-21.2,21.7-22,28.3h-.2a30.54,30.54,0,0,1-.6,3.3c-.3,1-1.1,1.8-1.1,3v.5a2.24,2.24,0,0,0-1.2,1.9v2.8h-.9c-.9,0-2.3-.1-3.8-.2V147h-.5v-.3h-2.8v.3H742v1a8.31,8.31,0,0,0-2.7.3,4.21,4.21,0,0,0-1.9,1.6,11.66,11.66,0,0,0-1,2.6,2.65,2.65,0,0,1-.6.5c-.2.2-.5.3-.7.5a1.5,1.5,0,0,0-.9,2.3l-1.5,3.4a.78.78,0,0,0,.3,1,.81.81,0,0,0,1-.3v-.1l1-2.3a99.08,99.08,0,0,0-2.6,17.9c-.5,11.9,1.1,23.9,2.5,25.2s6.3.7,6.3.7,24.5-.4,32.6-.4,32.9.3,32.9.3a12.29,12.29,0,0,0,5.7-1C815.5,199,815.4,179.8,814.3,171Zm-17.6-23.1v.2l-5.6.2a.6.6,0,0,1-.1-.4v-2.4a.9.9,0,0,1,.1-.5,4.2,4.2,0,0,0,.2.5,2.18,2.18,0,0,0,.4.5c.3.2.6-.2.6-.2h3.4l.5.3.4-.7Zm-44.4,0v-2.4l.4.7.5-.3h3.4s.4.4.6.2a1,1,0,0,0,.4-.5,1.21,1.21,0,0,0,.1-.5.75.75,0,0,1,.1.5V148a.75.75,0,0,1-.4.7l-5.2-.2c.2-.3.1-.4.1-.6Zm6.9.7a2,2,0,0,0,.1-.8v-2.4a2.14,2.14,0,0,0-1.1-1.9c.1-.7.2-1.5,0-1.7a8.12,8.12,0,0,1-1.3-4.3h0c.4-4.3,3.4-26.3,18.7-26.1,14.7.2,16.5,20.6,16.7,26h-.1a8.12,8.12,0,0,1-1.3,4.3,2.48,2.48,0,0,0,0,1.7,2.14,2.14,0,0,0-1.1,1.9v2.4a.9.9,0,0,0,.1.5c-5.1.2-10.1.5-12.9.6-4.5.3-11.9.1-17.8-.2Z" transform="translate(-0.02 -93.9)" fill="#f1567b"/><path d="M608.4,172.3c-1.1-9-4.1-23.1-5.9-23.5a97.28,97.28,0,0,0-10.8.1v-2.6a2.4,2.4,0,0,0-1.2-2v-.5c0-1.3-.9-2.2-1.2-3.1s-.5-2.6-.6-3.2c-.5-7.6-3.2-28.6-19.4-29-17.6-.4-21.6,22.1-22.4,28.8h-.1s-.4,2.3-.6,3.3-1.1,1.8-1.1,3.1v.5a2.27,2.27,0,0,0-1.2,2V149H543c-.9,0-2.3-.1-3.9-.2v-1.2h-.6v-.3h-2.9v.3h-.9v1a6.1,6.1,0,0,0-2.7.3,4.94,4.94,0,0,0-1.9,1.6,11.66,11.66,0,0,0-1,2.6,4.35,4.35,0,0,1-.7.6,4.23,4.23,0,0,0-.7.5,1.59,1.59,0,0,0-1,.8,1.39,1.39,0,0,0,.2,1.5l-1.6,3.5a.74.74,0,1,0,1.3.7v-.1l1-2.3a112.6,112.6,0,0,0-2.7,18.2c-.5,12.1,1.1,24.4,2.6,25.7s6.5.7,6.5.7,25-.4,33.3-.4,33.5.3,33.5.3a12.71,12.71,0,0,0,5.8-1C609.5,200.8,609.5,181.2,608.4,172.3Zm-18-23.6v.2c-1.8.1-3.8.2-5.7.2a.6.6,0,0,1-.1-.4v-2.4a.9.9,0,0,1,.1-.5,4.2,4.2,0,0,0,.2.5,2.18,2.18,0,0,0,.4.5c.3.2.6-.2.6-.2h3.5l.5.3.4-.7Zm-45.2,0v-2.4l.4.7.5-.3h3.5s.4.4.6.2a1,1,0,0,0,.4-.5l.2-.5a.75.75,0,0,1,.1.5v2.4a.67.67,0,0,1-.4.7l-5.3-.2v-.6Zm7,.7a2,2,0,0,0,.1-.8v-2.4a2.12,2.12,0,0,0-1.2-1.9,3.56,3.56,0,0,0,0-1.8,8.94,8.94,0,0,1-1.4-4.4h0c.4-4.3,3.4-26.8,19-26.6,15,.2,16.8,21,17,26.5h-.1a8.37,8.37,0,0,1-1.3,4.4,2.66,2.66,0,0,0,0,1.8,2.24,2.24,0,0,0-1.2,1.9v2.4a.9.9,0,0,0,.1.5c-5.2.2-10.3.5-13.1.6-4.4.4-11.9.1-17.9-.2Z" transform="translate(-0.02 -93.9)" fill="#77c5d5"/><path d="M228.5,156.8c-4.5-.7-9.2,2.1-11.8,4l-8.1-.1c-15.6-.2-24.1.1-25,.3-.6.1-1.2.2-1.9.3-.4.1-1.2,0-1.5.4-.1.1-.2,3.5-.2,7.8a.76.76,0,0,1-.2-.4h-.1v-3.6a.54.54,0,0,0-.7-.5.56.56,0,0,0-.5.6v3.6a.79.79,0,0,0-.5.8,15.26,15.26,0,0,0-.3,3s-3.7,15.2-2.4,21.3a11.56,11.56,0,0,0,1.9,4.4c-2,2.5-3.1,4.6-3.1,5.8,0,7.4.8,10.2.8,10.2a26,26,0,0,0,14.5,7.9,27.6,27.6,0,0,0,16.7-2.6v-6.7s1.1-2.6-2-4.8c-3.8-2.8-16.1-3.7-18.6-5.1a9.92,9.92,0,0,1-2.6-2.4c.6-.7,1.2-1.4,1.9-2.2a16.5,16.5,0,0,0,12.1,6.8c13.1,1.4,18.9,1.1,23.4-.4s12-6.8,13-16.2-.2-24.8-.3-25.4a4.89,4.89,0,0,0-1.4-1.8,6.64,6.64,0,0,0-2-.6s-1.8-.1-6.5-.1a11.24,11.24,0,0,1,5.6-1.8c2.8-.1,4,1.9,4.7,3.7a.37.37,0,0,0-.1.3v4.6a.65.65,0,0,0,1.3.1v-2.5a2.28,2.28,0,0,0,1.6-.4A8.76,8.76,0,0,0,228.5,156.8Zm-44.3,48.6c2.3.8,14.6,4.4,16.3,5.9a23.52,23.52,0,0,1,3,3.3,21.33,21.33,0,0,1-15.2,1.3c-9.4-3-11.4-4.9-11-7.4.1-.9,1.5-2.8,3.6-5.3A15.81,15.81,0,0,0,184.2,205.4Zm-4.3-10.2a17.78,17.78,0,0,1-.7-3.9c-.6-6-.5-18.3-.5-18.3a1.09,1.09,0,0,0,1.2-.7c0,6.3.1,13.5.4,15.5a26.12,26.12,0,0,0,1.4,5.5,16.18,16.18,0,0,0-1.8,1.9Z" transform="translate(-0.02 -93.9)" fill="#373a36"/><path d="M136.5,161.8a53.34,53.34,0,0,0-7.9-1c-1.4-.1-4.3-.1-7.5-.1a73.31,73.31,0,0,0-.7-7.9c-.7-4.1-6.1-11.8-12.4-11.8-7.3,0-10,7-12,11-.8,1.6-1.2,5.1-1.4,8.7H86.2a53,53,0,0,0-8,1s1.3,12.4,2.5,19.1a149.63,149.63,0,0,0,5.6,20.1c.9,2.1,3,6.4,6.2,7.1s24.7-.1,27.4-.1a20.14,20.14,0,0,0,7.7-1c3.4-1.1,4.1-8.1,6-15.4s4.8-29,4.8-29A14.58,14.58,0,0,0,136.5,161.8Zm-29.2-1c-.9,0-4-.1-7.6-.2-.1-5.8-.1-11.4.2-12.1.8-1.5,4.7-3,8.2-3.3s7.3,1.8,7.6,3c.2.6.5,6.5.7,12.5-4.2.1-8.1.2-9.1.1Z" transform="translate(-0.02 -93.9)" fill="#f1567b"/><path d="M644.9,169.6a85.22,85.22,0,0,0-8.7-.8c-1.5-.1-4.7-.1-8.2,0-.1-2.2-.4-4.5-.7-6.7-.8-3.4-6.7-9.9-13.6-9.9-8.1,0-11,5.9-13.2,9.2-.9,1.4-1.3,4.3-1.5,7.3h-9.2a64,64,0,0,0-8.8.9s1.4,10.4,2.7,16.1a99.46,99.46,0,0,0,6.2,16.9c1,1.8,3.3,5.4,6.8,5.9s27.1-.1,30.1-.1a26.17,26.17,0,0,0,8.4-.9c3.7-1,4.5-6.8,6.6-13s5.3-24.4,5.3-24.4A22.5,22.5,0,0,1,644.9,169.6Zm-32-.8c-1,0-4.4-.1-8.4-.1-.1-4.9-.1-9.6.3-10.2.9-1.2,5.1-2.6,9-2.8s8,1.5,8.3,2.5c.2.5.5,5.4.8,10.5-4.6.1-8.9.2-10,.1Z" transform="translate(-0.02 -93.9)" fill="#00a499"/><path d="M375.9,165.5a53.34,53.34,0,0,0-7.9-1c-1.4-.1-4.3-.1-7.5-.1a73.31,73.31,0,0,0-.7-7.9c-.7-4.1-6.1-11.8-12.4-11.8-7.3,0-10,7-12,11-.8,1.6-1.2,5.1-1.4,8.7h-8.4a53,53,0,0,0-8,1s1.3,12.4,2.5,19.1a145.34,145.34,0,0,0,5.6,20.1c.9,2.1,3,6.4,6.2,7.1s24.7-.1,27.4-.1a20.14,20.14,0,0,0,7.7-1c3.4-1.1,4.1-8.1,6-15.4s4.8-29,4.8-29A5.36,5.36,0,0,0,375.9,165.5Zm-29.1-1c-.9,0-4-.1-7.6-.2-.1-5.8-.1-11.4.2-12.1.8-1.5,4.7-3,8.2-3.3s7.3,1.8,7.6,3c.2.6.5,6.5.7,12.5-4.3.1-8.1.2-9.1.1Z" transform="translate(-0.02 -93.9)" fill="#77c5d5"/><path d="M1031.4,155.1a53.34,53.34,0,0,0-7.9-1c-1.4-.1-4.3-.1-7.5-.1a73.31,73.31,0,0,0-.7-7.9c-.7-4.1-6.1-11.8-12.4-11.8-7.3,0-10,7-12,11-.8,1.6-1.2,5.1-1.4,8.7h-8.4a53,53,0,0,0-8,1s1.3,12.4,2.5,19.1a149.63,149.63,0,0,0,5.6,20.1c.9,2.1,3,6.4,6.2,7.1s24.7-.1,27.4-.1a20.14,20.14,0,0,0,7.7-1c3.4-1.1,4.1-8.1,6-15.4s4.8-29,4.8-29A14.58,14.58,0,0,0,1031.4,155.1Zm-29.2-.9c-.9,0-4-.1-7.6-.2-.1-5.8-.1-11.4.2-12.1.8-1.5,4.7-3,8.2-3.3s7.3,1.8,7.6,3c.2.6.5,6.5.7,12.5-4.2,0-8.1.1-9.1.1Z" transform="translate(-0.02 -93.9)" fill="#00a499"/><path d="M760.9,160.3a53.34,53.34,0,0,0-7.9-1c-1.4-.1-4.3-.1-7.5-.1a73.31,73.31,0,0,0-.7-7.9c-.7-4.1-6.1-11.8-12.4-11.8-7.3,0-10,7-12,11-.8,1.6-1.2,5.1-1.4,8.7h-8.4a53,53,0,0,0-8,1s1.3,12.4,2.5,19.1a145.34,145.34,0,0,0,5.6,20.1c.9,2.1,3,6.4,6.2,7.1s24.7-.1,27.4-.1a20.14,20.14,0,0,0,7.7-1c3.4-1.1,4.1-8.1,6-15.4s4.8-29,4.8-29A10.66,10.66,0,0,0,760.9,160.3Zm-29.2-1c-.9,0-4-.1-7.6-.2-.1-5.8-.1-11.4.2-12.1.8-1.5,4.7-3,8.2-3.3s7.3,1.8,7.6,3c.2.6.5,6.5.7,12.5-4.2.1-8.1.2-9.1.1Z" transform="translate(-0.02 -93.9)" fill="#00a499"/><path d="M101.9,152.3c-.5-1.1-10.4-1.1-10.4-1.1s1-9.3.3-9.7c-.4-.2-9.6.5-19.6,1.2-1.3-9.1-5.6-26.2-19.6-26.4C38.1,116.1,32.9,134,31.1,143c-7.3-.5-13-1-13-1s-3.7-.3-5.1-.3-.1,8.1-.6,8.2-8.1-1.1-9.2,1.5c0,1,.1,2.1.2,3.1-.1.1-.3.2-.4.3s-.4.3-.7.5a1.4,1.4,0,0,0-1,1.7c0,.2.1.3.2.5L.1,160.7a.69.69,0,0,0,.3.9h0a.69.69,0,0,0,.9-.3l1.4-3.2a1.09,1.09,0,0,0,.9-.4c1.1,10.2,3.4,29.8,3.5,31.7.2,2.5,1.8,22.5,3.7,23.2s22.3-.7,43.2-.3,38.6.7,40.6.1,2.4-10.8,3.2-16.3S102.4,153.4,101.9,152.3ZM53.4,119c7.4.3,11.2,7.4,13.2,14.5-2.2-6.4-6.2-12.4-13.2-12.5-11-.2-15.3,14.2-16.9,22.3l-1.6-.1C36.4,135.2,41,118.5,53.4,119Zm-14,24.5c1.4-7.4,5.2-20.6,14.6-20.1,8.2.4,10.9,12.3,11.8,19.8-3.9.2-7.7.5-10.9.6-4.4.1-10,0-15.5-.3Z" transform="translate(-0.02 -93.9)" fill="#77c5d5"/><path d="M864.8,162.1c-.4-.8-7.5-.8-7.5-.8s.7-6.8.2-7c-.3-.1-7,.4-14.2.8-.9-6.6-4-19-14.2-19.1-10.5-.2-14.3,12.8-15.6,19.3-5.3-.3-9.4-.7-9.4-.7s-2.6-.2-3.7-.2-.1,5.8-.4,6-5.9-.8-6.7,1.1a17.85,17.85,0,0,0,.2,2.3c-.1.1-.2.1-.3.2a2.19,2.19,0,0,1-.5.3,1,1,0,0,0-.7,1.2c0,.1.1.2.2.3l-1,2.3a.48.48,0,0,0,.2.6h0c.3.1.5,0,.7-.3l1-2.3a1.08,1.08,0,0,0,.7-.3c.8,7.4,2.5,21.6,2.6,23,.1,1.8,1.3,16.3,2.7,16.8s16.2-.5,31.3-.2,27.9.5,29.4,0,1.7-7.8,2.3-11.8C862.4,189.7,865.1,162.9,864.8,162.1ZM829.6,138c5.3.2,8.1,5.3,9.6,10.5-1.6-4.6-4.5-9-9.6-9-8-.1-11.1,10.3-12.3,16.2l-1.2-.1C817.3,149.6,820.7,137.6,829.6,138Zm-10.1,17.7c1-5.3,3.8-14.9,10.6-14.6,6,.3,7.9,8.9,8.6,14.3-2.8.2-5.6.3-7.9.4a107.93,107.93,0,0,1-11.3-.1Z" transform="translate(-0.02 -93.9)" fill="#77c5d5"/><path d="M545,161.8a53.34,53.34,0,0,0-7.9-1c-1.4-.1-4.3-.1-7.5-.1a73.31,73.31,0,0,0-.7-7.9c-.7-4-6.1-11.8-12.4-11.8-7.3,0-10,7-12,11-.8,1.6-1.2,5.1-1.4,8.7h-8.4a53,53,0,0,0-8,1s1.3,12.4,2.5,19.1a149.63,149.63,0,0,0,5.6,20.1c.9,2.1,3,6.4,6.2,7.1s24.7-.1,27.4-.1a20.14,20.14,0,0,0,7.7-1c3.4-1.1,4.1-8.1,6-15.4s4.8-29,4.8-29A8.39,8.39,0,0,0,545,161.8Zm-29.1-1c-.9,0-4-.1-7.6-.2-.1-5.8-.1-11.4.2-12.1.8-1.5,4.7-3,8.2-3.3s7.2,1.8,7.6,3c.2.6.5,6.5.7,12.5-4.3.1-8.2.2-9.1.1Z" transform="translate(-0.02 -93.9)" fill="#373a36"/><path d="M1000.7,144.5a66.73,66.73,0,0,0-10-1.3c-1.7-.1-5.4-.1-9.5-.1-.2-4.3-.5-8.2-.8-10-.9-5.1-7.7-14.9-15.6-14.8-9.2,0-12.6,8.8-15.1,13.8-1,2.1-1.5,6.5-1.8,10.9H937.3a68,68,0,0,0-10.1,1.3s1.7,15.6,3.1,24.1,5.9,22.7,7.1,25.3,3.8,8.1,7.8,8.9,31.1-.1,34.5-.1a25.25,25.25,0,0,0,9.7-1.3c4.3-1.4,5.1-10.2,7.6-19.4s6.1-36.6,6.1-36.6C1002.4,145,1001.6,144.7,1000.7,144.5ZM964,143.3c-1.1-.1-5-.1-9.6-.2-.2-7.3-.2-14.4.3-15.2,1-1.8,5.9-3.8,10.3-4.1s9.1,2.2,9.6,3.8c.2.8.6,8.2.9,15.7-5.4,0-10.3.1-11.5,0Z" transform="translate(-0.02 -93.9)" fill="#373a36"/><path d="M715.8,200.6a10.63,10.63,0,0,0,1.6-3.8c1.1-5.3-2.1-18.4-2.1-18.4a21.12,21.12,0,0,0-.2-2.6c0-.3-.2-.5-.5-.7V172a.47.47,0,0,0-.5-.5.63.63,0,0,0-.6.5v3.1h-.1a.52.52,0,0,0-.2.4,60.59,60.59,0,0,0-.2-6.7c-.2-.3-1-.2-1.3-.3a8.75,8.75,0,0,1-1.6-.2,39.14,39.14,0,0,0-4.7-.3c-1-3.5-1.9-6.6-2.4-7.8-1.4-3.7-3.9-13.6-11.6-14.1s-11.1,8.8-12,11.5c-.3.8-1.1,4-2.2,8a10.5,10.5,0,0,0-6-1c-5.8.9-6.9,6.3-6.3,6.9a2.3,2.3,0,0,0,1.4.4v2.2a.55.55,0,0,0,1.1-.1v-3.9a.37.37,0,0,0-.1-.3,4.13,4.13,0,0,1,4-3.2,9.82,9.82,0,0,1,4.9,1.6c-4,.1-5.6.1-5.6.1a4.92,4.92,0,0,0-1.7.6,3.49,3.49,0,0,0-1.2,1.5c-.2.6-1.2,13.8-.3,21.9s7.4,12.7,11.2,14,8.9,1.5,20.2.4a14,14,0,0,0,10.4-5.9c.6.7,1.1,1.3,1.7,1.9a7.35,7.35,0,0,1-2.2,2.1c-2.2,1.2-12.8,1.9-16.1,4.4-2.6,1.9-1.7,4.2-1.7,4.2v5.8a23.83,23.83,0,0,0,14.4,2.2,21.84,21.84,0,0,0,12.5-6.8s.7-2.4.7-8.8C718.5,204.5,717.5,202.8,715.8,200.6Zm-27.2-32.7-7,.1a14,14,0,0,0-1.8-1.2c.5-2.3.9-4.6,1.3-6.4,1.5-7.5,5.1-13.1,10.4-13s9.2,10.1,10,13.3c.2,1.1.9,3.9,1.7,7.2C699.6,167.8,694.7,167.8,688.6,167.9ZM713,191.2c.2-1.7.3-7.9.3-13.3a1,1,0,0,0,1.1.6s.1,10.6-.4,15.8a19.09,19.09,0,0,1-.6,3.3c-.5-.5-1-1.1-1.5-1.7A24.72,24.72,0,0,0,713,191.2Zm-6.9,24.2a18.58,18.58,0,0,1-13.1-1.1,13.74,13.74,0,0,1,2.6-2.8c1.4-1.2,12.1-4.3,14-5a10,10,0,0,0,2.9-2c1.8,2.2,3,3.8,3.1,4.6C715.9,211.1,714.2,212.8,706.1,215.4Z" transform="translate(-0.02 -93.9)" fill="#373a36"/></svg>