<?xml version="1.0" encoding="utf-8"?>
<!-- Generator: Adobe Illustrator 25.4.1, SVG Export Plug-In . SVG Version: 6.00 Build 0)  -->
<svg version="1.1" id="Layer_1" xmlns="http://www.w3.org/2000/svg" xmlns:xlink="http://www.w3.org/1999/xlink" x="0px" y="0px"
	 viewBox="0 0 248.6 510.6" style="enable-background:new 0 0 248.6 510.6;" xml:space="preserve">
<style type="text/css">
	.st0{fill:#D0D1D1;}
	.st1{fill:#77C5D5;}
	.st2{fill:#00A499;}
	.st3{fill:#F1567B;}
	.st4{fill:#FFD400;}
	.st5{fill:#373A36;}
</style>
<rect class="st0" width="248.6" height="510.6"/>
<rect x="178.7" y="252.8" class="st1" width="59.5" height="15.8"/>
<rect x="178.7" y="293" class="st2" width="59.5" height="15.8"/>
<rect x="178.7" y="333.2" class="st3" width="59.5" height="15.8"/>
<rect x="178.7" y="72" class="st3" width="59.5" height="15.8"/>
<rect x="178.7" y="112.2" class="st4" width="59.5" height="15.8"/>
<rect x="178.7" y="172.4" class="st3" width="59.5" height="15.8"/>
<rect x="178.7" y="192.5" class="st4" width="59.5" height="15.8"/>
<rect x="178.7" y="212.6" class="st4" width="59.5" height="15.8"/>
<rect x="105" y="232.7" class="st3" width="59.5" height="15.8"/>
<rect x="105" y="293" class="st3" width="59.5" height="15.8"/>
<rect x="105" y="353.3" class="st2" width="59.5" height="15.8"/>
<rect x="105" y="373.4" class="st1" width="59.5" height="15.8"/>
<rect x="105" y="72" class="st2" width="59.5" height="15.8"/>
<rect x="105" y="92.1" class="st4" width="59.5" height="15.8"/>
<rect x="105" y="112.2" class="st1" width="59.5" height="15.8"/>
<rect x="105" y="152.3" class="st4" width="59.5" height="15.8"/>
<rect x="105" y="172.4" class="st2" width="59.5" height="15.8"/>
<rect x="105" y="393.5" class="st3" width="59.5" height="15.8"/>
<rect x="32.5" y="232.7" class="st1" width="59.5" height="15.8"/>
<rect x="32.5" y="252.8" class="st4" width="59.5" height="15.8"/>
<rect x="32.5" y="313.1" class="st1" width="59.5" height="15.8"/>
<rect x="32.5" y="333.2" class="st2" width="59.5" height="15.8"/>
<rect x="32.5" y="353.3" class="st4" width="59.5" height="15.8"/>
<rect x="32.5" y="72" class="st3" width="59.5" height="15.8"/>
<rect x="32.5" y="92.1" class="st4" width="59.5" height="15.8"/>
<rect x="32.5" y="132.3" class="st1" width="59.5" height="15.8"/>
<rect x="32.5" y="152.3" class="st4" width="59.5" height="15.8"/>
<rect x="32.5" y="212.6" class="st4" width="59.5" height="15.8"/>
<rect x="32.5" y="393.5" class="st1" width="59.5" height="15.8"/>
<circle class="st5" cx="207.6" cy="445" r="17"/>
</svg>
