<svg xmlns="http://www.w3.org/2000/svg" width="77.51" height="238.03" viewBox="0 0 77.51 238.03"><polygon points="36.84 12.02 32.99 22.12 36.84 26.64 44.55 31.27 45.62 26.64 45.62 15.39 45.62 9.61 41.18 7.68 36.84 12.02" fill="#efead7"/><path d="M28.6,2.35S23.78,11,23.3,12.94s-2.41,14-3.85,15.41-6.73,3.37-5.29,6.25,5.53,11.07,7.1,12.52,6.86,1.92,9.75,0,14-7.7,14-7.7l2.88-4.82s2.41-4.81,0-5.77-4.33-5.78-4.33-5.78l1-6.74,1.45-6.74L43.52,2.35S34.86-2.94,28.6,2.35Z" fill="#1d1e1c"/><polygon points="42.61 57.71 48.92 52.41 61.33 69.04 64.7 78.17 54.55 85.66 42.61 57.71" fill="#efead7"/><path d="M6.69,198.59,2.61,226.65s7.09,1.51,8.09,0,7.12-28.06,7.12-28.06Z" fill="#efead7"/><polygon points="45.85 193.58 53.66 227.32 62.32 227.32 59.31 186.56 45.85 193.58" fill="#efead7"/><polygon points="0 232.39 1.84 224.76 3.33 225.13 4.53 227.13 7.93 227.64 9.88 226.47 9.99 225.44 13.09 224.55 15.39 229.58 19.82 232.74 24.61 235.07 24.32 236.82 21.29 238.03 16.31 237.99 1.36 234.66 0 232.39" fill="#1d1e1c"/><polygon points="53.43 234.61 52.08 226.87 53.61 226.62 55.5 227.98 58.82 227.1 60.15 225.25 59.84 224.25 62.33 222.21 66.44 225.92 71.76 227.06 77.08 227.3 77.51 229.02 75.21 231.33 70.62 233.27 55.58 236.15 53.43 234.61" fill="#1d1e1c"/><path d="M2.61,206.45H22.82L30,165.53s1.45-32.73,2.89-33.69-7.15-27.44-7.15-27.44H14.48Z" fill="#c7c5c4"/><polygon points="36.94 202.12 54.3 199.71 63.42 192 65.34 184.3 36.94 99.11 26.35 104.4 36.94 202.12" fill="#c7c5c4"/><path d="M24.75,42.31,17.53,53.38s-1.93,18.77,0,22.14-.67,12.51,0,14.92-3.05,14-3.05,14L13.91,114h28.7v-27l8.61-1a46.74,46.74,0,0,0,5.78-1c1.44-.49,7.7-7,7.7-7L48.92,56.75,42.61,35.57Z" fill="#1d1e1c"/><path d="M48.92,48.39s-4.24-5.2-7.57,0-9.93,30.13-9.93,30.13" fill="none" stroke="#e75780" stroke-miterlimit="10" stroke-width="1.98"/><polygon points="28.05 71.54 51.22 86.11 45.85 114.03 12.3 99.11 28.05 71.54" fill="#e75780" stroke="#e75780" stroke-miterlimit="10" stroke-width="1.98"/></svg>