<svg xmlns="http://www.w3.org/2000/svg" width="224.73" height="88.44" viewBox="0 0 224.73 88.44"><path d="M0,78.43,17.71,61.6C32,48,39.38,39.05,39.38,29.15c0-8.47-6.93-13-14.63-13A20.21,20.21,0,0,0,5.28,30.91L1.43,27.72c2-16.94,16.06-25,29.26-25,12.65,0,24.42,7.15,24.42,20.79,0,12.21-9.57,22.33-25.08,36.85L16.94,72.71H49.06l5.39-8.47h3.63l-2.31,21H.88Z"/><path d="M119.57,3.85V19.69H85.47L83.38,33.44A37.54,37.54,0,0,1,94.16,31.9c13.75,0,28.71,6.93,28.71,26.84,0,19.36-14.85,27.83-30.58,27.83-8.91,0-18.15-2.64-25.08-7.7l3.08-19.8h8.36a21.2,21.2,0,0,0-.11,2.64c0,13,7.15,19.14,14.41,19.14,6.93,0,13.86-5.72,13.86-17.16,0-14.08-10.12-19.47-20.79-19.47A33.78,33.78,0,0,0,73.7,46.75l6.82-42.9Z"/><path d="M152.57,0c12.21,0,21.23,8.36,21.23,20.9,0,12.32-9,21-21.23,21-11.66,0-20.68-8.69-20.68-21C131.89,8.36,140.91,0,152.57,0Zm.22,9.46c-5.94,0-10.34,4.84-10.34,11.33s4.4,11.55,10.34,11.55,10.45-5,10.45-11.55S158.62,9.46,152.79,9.46Zm4.07,75.79h-8.8l52-82.5h8.8ZM203.5,46.53c12.21,0,21.23,8.36,21.23,20.9,0,12.32-9,21-21.23,21-11.66,0-20.68-8.69-20.68-21C182.82,54.89,191.84,46.53,203.5,46.53Zm.22,9.46c-5.94,0-10.34,4.84-10.34,11.33s4.4,11.55,10.34,11.55,10.45-5,10.45-11.55S209.55,56,203.72,56Z"/></svg>