<svg xmlns="http://www.w3.org/2000/svg" width="224.73" height="88.44" viewBox="0 0 224.73 88.44"><path d="M0,78.43,17.71,61.6C32,48,39.38,39.05,39.38,29.15c0-8.47-6.93-13-14.63-13A20.21,20.21,0,0,0,5.28,30.91L1.43,27.72c2-16.94,16.06-25,29.26-25,12.65,0,24.42,7.15,24.42,20.79,0,12.21-9.57,22.33-25.08,36.85L16.94,72.71H49.06l5.39-8.47h3.63l-2.31,21H.88Z"/><path d="M71.06,79.31c17.38,0,34.1-13,37-33.11a26.24,26.24,0,0,1-19.91,9C75.79,55.22,64,46.75,64,30.47c0-14.19,8.91-27.61,28.6-27.61,21.78,0,33.44,16.28,33.44,35,0,22.33-16.72,48.07-49.39,48.07H71.06Zm37.4-45.76c0-10.34-4.29-25.08-14.85-25.08-7.92,0-12.32,8.36-12.32,17.71,0,11.22,6.38,18.26,14.41,18.26,3.74,0,7.92-1.54,12-4.73A20.48,20.48,0,0,0,108.46,33.55Z"/><path d="M152.57,0c12.21,0,21.23,8.36,21.23,20.9,0,12.32-9,21-21.23,21-11.66,0-20.68-8.69-20.68-21C131.89,8.36,140.91,0,152.57,0Zm.22,9.46c-5.94,0-10.34,4.84-10.34,11.33s4.4,11.55,10.34,11.55,10.45-5,10.45-11.55S158.62,9.46,152.79,9.46Zm4.07,75.79h-8.8l52-82.5h8.8ZM203.5,46.53c12.21,0,21.23,8.36,21.23,20.9,0,12.32-9,21-21.23,21-11.66,0-20.68-8.69-20.68-21C182.82,54.89,191.84,46.53,203.5,46.53Zm.22,9.46c-5.94,0-10.34,4.84-10.34,11.33s4.4,11.55,10.34,11.55,10.45-5,10.45-11.55S209.55,56,203.72,56Z"/></svg>