<svg xmlns="http://www.w3.org/2000/svg" width="701.54" height="575.02" viewBox="0 0 701.54 575.02"><path d="M592.64,348.68l-2.35,1.19-2.55-2.23c-1.44.43-2.39-.8-3.86-1.34.08.71,0,1.25.2,1.55a4.54,4.54,0,0,0,3.81,2.06c1.58,0,3,.5,3.31,2.42.08.44.71.91,1.2,1.11a10.69,10.69,0,0,0,2.05.45c-.38-.39-.74-.79-1.14-1.15-1.53-1.38-1.56-1.58-.47-3.56C592.89,349.1,592.73,348.91,592.64,348.68Z" fill="#f1567b"/><path d="M594.6,353.92l-.15,0,.09.09Z" fill="#f1567b"/><path d="M598.65,353.72c.09.09.7-.14.75-.32a.9.9,0,0,0-.3-.81c-1.16-.64-2.35-1.26-3.56-1.78-.56-.24-1.26-.61-2,.42a5.48,5.48,0,0,0,1.2.95C596,352.69,597.52,352.73,598.65,353.72Z" fill="#f1567b"/><path d="M442.11,531.45a3.2,3.2,0,0,0,.42-.1c0-.07-.06-.2-.07-.2s-.29.07-.43.1C442.06,531.32,442.09,531.45,442.11,531.45Z" fill="#f1567b"/><path d="M701.33,67c.07-1.06.14-2.13.21-3.17-1-.87-2.07-1.45-2.53-2.8-.39-1.19-.61-2.43-1-3.56-.52-1.4,1.27-2.16.74-3.37-1.32.35-2.51.71-3.72,1a1.71,1.71,0,0,0-1.52,1.43,5.75,5.75,0,0,1-.4,1.45c-.39.73-.85,1.51-1.89,1.32-1.64-.29-2.46.54-3,2a13,13,0,0,1-1,1.79,4.65,4.65,0,0,1-.78-.08c-2.42-1.07-2.41-1.07-4.24.87a16.22,16.22,0,0,0-1.2,1.29,2.36,2.36,0,0,0-.46,1.11,38.08,38.08,0,0,0-.2,5,6.86,6.86,0,0,1-1,4.06A16,16,0,0,0,680,73.4c.17-.82.32-1.74-.43-2.34A2.36,2.36,0,0,0,677,70.6a8,8,0,0,0-1.49.87c-1.32,1-2.61,2.07-4,3.18a4.5,4.5,0,0,0-4.74.16c-1.79,1-2.92.73-4-1a7.48,7.48,0,0,0-3.3-3c-2-1-2.19-1.59-1.52-3.82-.76-.68-1.65-1.27-1.6-2.59a2.2,2.2,0,0,0-1-1.6c-1.59-.93-2.33-2-1.68-3.92.28-.8-.48-1.44-1.33-1.32a2.33,2.33,0,0,0-.94.32,3.27,3.27,0,0,1-3.35.23c-2.22-.94-4.55-1.72-6.29-3.52a2.06,2.06,0,0,0-2.22-.8,6.84,6.84,0,0,1-3.7,0,4.85,4.85,0,0,0-2.18.29,3.08,3.08,0,0,1-2.63-.18,23,23,0,0,0-3-1.18c-.31.18-.41.21-.45.27a3.5,3.5,0,0,0-.24.42c-.87,1.61-1,1.65-2.69,1a10.72,10.72,0,0,0-1.66-.54c-3.33-.67-5-3-5.53-6.07a4.1,4.1,0,0,0-2.93-3.56c-1.37-.53-3-1.3-2.6-3.46.08-.46-.44-1-.74-1.54-.43-.72-1-1.37-1.37-2.1a5.47,5.47,0,0,0-2-2.15,4.2,4.2,0,0,1-2.07-2.38l1.86-2.46a8.89,8.89,0,0,1-2.45-1.52c-1.25-1.59-2.46-3.15-4.38-4-.14-.06-.33-.23-.33-.35-.1-1.63-1.56-2.56-2-4a7.62,7.62,0,0,0-3-4.09c-.12-.07-.13-.3-.19-.45.73-2,.54-2.64-1.1-3.75a6.26,6.26,0,0,0-.89-.47C592,11.06,591,10.47,590.77,9a1.3,1.3,0,0,0-.58-.76c-1.3-.9-2.6-1.82-4-2.6s-2.6-1.16-3.81-1.88-2.36-.91-3.61.21a2.38,2.38,0,0,1-3.6-.07,6.83,6.83,0,0,0-4-2.27,3.52,3.52,0,0,1-1.52-.84,2.49,2.49,0,0,0-3.21-.36,9.28,9.28,0,0,1-5.31,1.2,3.19,3.19,0,0,0-2.5.86,4.64,4.64,0,0,1-5.12,1,2.35,2.35,0,0,0-3.17,1c-1.76-.69-3.17-.91-4.1,1.12a3.12,3.12,0,0,1-2.69,1.65c-2.81.19-4.39,1.89-5.28,4.33a3.68,3.68,0,0,1-2.41,2.33c-.57.21-1.13.46-1.91.77,1.06.49,1.87.9,2.72,1.24a4.94,4.94,0,0,0,1.23.2c2.38.28,2.89.68,3.09,3.07a11.68,11.68,0,0,0,.93,3.06,17.91,17.91,0,0,1,.87,4.11,3.21,3.21,0,0,1-1.31,2.86,21.05,21.05,0,0,1-2.36,1.87,2.53,2.53,0,0,0-1.46,2.39,5.3,5.3,0,0,1-1.41,3.68,2.27,2.27,0,0,0-.46,2.51c.66,2.33.34,3-1.81,4.22a1.85,1.85,0,0,0-1.1,1.54,13.1,13.1,0,0,0-.28,1.72,4.37,4.37,0,0,1-1,3,4.38,4.38,0,0,0-.44,1,3.69,3.69,0,0,0,.43.47c1.47,1.08,1.51,1.42.6,2.77A9,9,0,0,0,530.78,57c-.84,3.14-2.88,4.74-6,5.26a4.56,4.56,0,0,0-2.14,1.14c-1.3,1.17-2.48,2.48-3.67,3.76a7.38,7.38,0,0,0-.76,1.15l2.5,2c-1-.25-2-.76-3-.57a3.1,3.1,0,0,1-3.44-1.29A4.52,4.52,0,0,0,511,66.37a7.78,7.78,0,0,1-5.24-1.78c-1.36,1-1.53,1-1.51,1.9a5.41,5.41,0,0,1-1.52,3.58,5.75,5.75,0,0,0-.74,1.3,59.5,59.5,0,0,0-3.14,12,6,6,0,0,1-1.13,2.95,12,12,0,0,0-1.3,1.83c-.52,1-.09,1.67,1.08,1.93-.05,1.28-1.16,1.76-1.91,2.5-.46.44-.95.85-1.51,1.34a9.21,9.21,0,0,0,4.08,3.6,2.64,2.64,0,0,0,.58-.33c1.14-1.27,2.39-2,4.2-1.29a2.76,2.76,0,0,0,1.71-.14c3-1,5.79-.34,8.55.82.6.25,1.21.48,1.83.72,1.36-1.4,2.35-2.7,2-4.73-.25-1.67,1-2.63,2.69-2.31a3.77,3.77,0,0,1,.72.23,9.71,9.71,0,0,0,4.62.87,28.56,28.56,0,0,1,4,.41c.21,2.06,1.55,2.61,3.12,3a11.59,11.59,0,0,1,2.39.73c.39.18.91.73.88,1.06-.18,1.89,1.2,2.41,2.49,3a6.34,6.34,0,0,1,3.28,3,4.64,4.64,0,0,0,1.67,1.82,6.79,6.79,0,0,1,2.68,4.11c.84,2.69-.72,4.94-3.26,5a6,6,0,0,1-1.94-.14,5.23,5.23,0,0,0-3.45.11,3.71,3.71,0,0,1-3.37-.07,2.67,2.67,0,0,0-2.86,0,3,3,0,0,1-2.65.33c-1.33-.51-2.23.09-2.91,1.22a3.55,3.55,0,0,1-4.09,1.67,13.29,13.29,0,0,0-2-.28c-1.46,0-1.93.3-1.83,1.69.11,1.6-.76,2.31-2,2.82-1.39.58-2.79,1.17-4.22,1.61a3.13,3.13,0,0,0-2.27,2.11c-.42,1.26-.89,2.49-1.37,3.73s-.95,2.25-1.55,3.68a8.35,8.35,0,0,1-1.66.9,20.43,20.43,0,0,0-6.31,3.57c-.45.36-1,.56-1.49.92a4.26,4.26,0,0,1-3.82.59,26.14,26.14,0,0,0-4-.59,5,5,0,0,0-1.64.49c.26,1,.48,1.73.67,2.41a13.08,13.08,0,0,1-2,2.1c-1.86,1.18-2.74,3.66-5.28,3.92-.25,0-.49.41-.69.66a6.07,6.07,0,0,1-7.55,1.91,3.65,3.65,0,0,0-2.38-.54,5.09,5.09,0,0,1-1.61-.21c-1.09-2.15-2.35-2.87-4.46-2.31a7.78,7.78,0,0,1-3.22.08,9.56,9.56,0,0,0-4.89.44,5,5,0,0,0-.36,1.29,7.85,7.85,0,0,1-2.39,6.55,3,3,0,0,0-.62,1.36,1.61,1.61,0,0,0,.93,2.06,4.83,4.83,0,0,0,1.22.28,2.57,2.57,0,0,1,2.31,2.28,16.57,16.57,0,0,0,1,3.61c1.1,2.41,1.17,2.47-.73,4.24-.43.4-.94.7-1.39,1.07-3.13,2.52-6.24,5.06-9.37,7.57q-3.72,3-7.49,5.88a4.27,4.27,0,0,1-3.21,1.2,6.7,6.7,0,0,0-4.09.94,18.92,18.92,0,0,1-6.77,1.74c-3.67.32-7.35.56-11,.75-1.92.1-3.85,0-5.77.06-3.3.17-4.62,1.37-5.16,4.64A3.09,3.09,0,0,1,401,194.4a23,23,0,0,1-6.35,2.22,7.71,7.71,0,0,0-5.72,3.29c-.85,1.32-1.79,1.28-3,1-2.19-.57-4.37-1.16-6.57-1.68a2.73,2.73,0,0,1-1.91-1.05,2.62,2.62,0,0,0-2.61-1.16c-.75,0-1.51,0-2.26.05a12.24,12.24,0,0,1-7.91-1.87,15.22,15.22,0,0,0-3.27-1.23c-1-.38-2.3-.53-3-1.25-1.5-1.6-3.42-2.06-5.33-2.59a7.23,7.23,0,0,1-4.08-2.75,12.23,12.23,0,0,0-7-4.63c-2.91-.75-5.88-1.28-8.82-1.92a12.26,12.26,0,0,0-4.71.17c-2.53.42-5,1.2-7.66.75a65.21,65.21,0,0,1-6.4-1.26c-4.27-1.17-8.76-1.44-12.86-3.27a6,6,0,0,0-.73-.19,49.83,49.83,0,0,0-10.07-2c-2.16-.19-4.3-.66-6.29-1-.54-1.79-1-3.61-1.65-5.4-.66-2-2.76-2.51-4.19-3.89.36-.52.66-.9.91-1.31,1-1.67.91-2.34-.54-3.71l-1.59-1.54c1.65-3,.5-5.13-1.69-7a12.27,12.27,0,0,1-1.15-1.34c.71-.62,1.32-1.14,1.87-1.63-.33-1.26-1.38-1.33-2.13-1.79-1.08-.67-1.83.54-2.95.55-.54-.7-1.07-1.44-1.66-2.13a21.78,21.78,0,0,0-2.85-3.12c-3-2.38-6.16-4.62-9.26-6.9a19.48,19.48,0,0,0-2.1-1.38,7.17,7.17,0,0,0-4.33-1,11.92,11.92,0,0,1-3.44-.42c-2-.4-3.89-.91-5.83-1.34a2,2,0,0,0-1,.08c-3,.93-5.13-.68-6.8-2.66a5.19,5.19,0,0,0-4.27-2.06c-2.27-.06-2.8-.84-2.25-3,.32-1.25.27-2.36-.83-3.15s-1-1.93-.58-3.14l2.67-.42c.45-1.78.45-1.78,1.59-2.42a2.39,2.39,0,0,0,1.32-3.3c-.76-2.55-.72-2.74,1.6-3.82.88-.41,1.42-1,1.31-1.89a13.3,13.3,0,0,1,.28-4.22,3.47,3.47,0,0,0-.71-2c-.79-1.38-1.7-2.69-2.56-4a4.88,4.88,0,0,1-.81-4.28,3.48,3.48,0,0,0-.66-3.29,19.22,19.22,0,0,1-1.89-3.26c-.69-1.42-1.43-2.65-3.26-2.7A2.14,2.14,0,0,1,224,80.6a2.65,2.65,0,0,0-3-.49,1.78,1.78,0,0,1-2.68-1.66c0-1.53-.89-2.25-1.86-3a7.66,7.66,0,0,1-1.33-1.12c-.28-.36-.57-1-.41-1.33.66-1.32-.1-2-.95-2.78-1.06-.94-2.11-1.88-3.17-2.84S209.41,66,210,64.5c.11-.3.27-.58.34-.75-.36-1.54-2.4-2-2-3.74,1.77-1.75,1.77-1.75,1.44-3a20.8,20.8,0,0,0-3.82-1.26c-1.58-.21-3.26.53-4.81-.4,0,0-.16,0-.23.06a4.7,4.7,0,0,0-2.85,2.3c-.53,1.22-1.21,2.38-1.73,3.6a2,2,0,0,1-1.93,1.25,16,16,0,0,0-4.41.85c-2.09.83-4.09,1.86-6.43,1.17a10.53,10.53,0,0,0-1.74,5.33A3.92,3.92,0,0,1,180,73.27c-1.76,1.29-1.8,1.41-.73,3.5a5,5,0,0,1,.39,3.17,1.71,1.71,0,0,1-1.61,1.63,35.47,35.47,0,0,0-8,2.06,3.72,3.72,0,0,1-4.24-.66,6.53,6.53,0,0,0-4-2,18.87,18.87,0,0,1-2.16-.62c-1.68-.51-3.36-1-5-1.55a12.09,12.09,0,0,1-2.49-1c-1.68-1-2.36-1-3.7.44-.34.37-.61.8-.93,1.18-2.59,3.07-5,6.34-7.85,9.13-2.16,2.1-3.2,4.85-5.07,7.07a2.73,2.73,0,0,0-.37,1.68c0,1.08.15,2.15.26,3.23a2,2,0,0,1-.9,1.94,1.49,1.49,0,0,1-1.86-.12,27.46,27.46,0,0,1-2.23-1.61,7.55,7.55,0,0,0-6-2c-2.25.24-4.51.43-6.73.79a42.72,42.72,0,0,1-8.73.93,9.7,9.7,0,0,0-1.71.27c.23.74.42,1.28.56,1.83.59,2.38,1.1,4.75-.72,6.88a2.38,2.38,0,0,0-.23.45c-.62,1.18-.88,2.28.11,3.48a2.89,2.89,0,0,1,.22,3.32,7,7,0,0,0-.39,1.81,11.12,11.12,0,0,1,2.61,0c1.35.37,2.64,1,3.95,1.45-1.06.72-2.14.2-3-.3a3.32,3.32,0,0,0-4.06.27,11.78,11.78,0,0,0,.22,1.63c.22.89.55,1.75.77,2.64a4.58,4.58,0,0,1-2.59,5.53c-1.22.52-2.52.75-2.95,2.36-.12.48-1,.82-1.57,1.12a12.17,12.17,0,0,1-1.76.57c-.55,2.38-1.13,4.72-1.62,7.09-.15.76-.23,1.56-1,1.94-2.46,1.29-5,2.52-7.86,2.18a18.16,18.16,0,0,0-6.2.51,5.49,5.49,0,0,1-1.72.29A4.06,4.06,0,0,0,76,147c-2.38,2.07-5.34,3.12-8,4.66a6.7,6.7,0,0,1-1.91.56,2.16,2.16,0,0,1-2.39-.93,3.56,3.56,0,0,0-4.81-1.11c-.45.23-.83.6-1.29.78-1.38.55-2.77.83-3.92-.48a2.19,2.19,0,0,0-2.28-.66c-1,.19-2,.29-3,.41a4.63,4.63,0,0,0-3.92,2.75c-.28.61-.51,1.25-.84,1.82-1.25,2.18-3.19,2.46-4.82.59a3.32,3.32,0,0,0-3.59-1.1,18.47,18.47,0,0,1-3.21.5c-1,0-1.49-.58-1.34-1.65s.41-2.25.72-3.89a9.7,9.7,0,0,0-1.38,1.3,5.11,5.11,0,0,1-2.77,2.05c-1,.37-1.72-.47-2.55-.81-3.25-1.32-3.74-1.42-6.48.43a5.93,5.93,0,0,1-4.94,1.07,2.58,2.58,0,0,0-2.94,1.4,6.82,6.82,0,0,1-1.91,2.23A4.89,4.89,0,0,0,6,160.16c-.44,1.85-1.44,3.42-3.61,3.66A2.23,2.23,0,0,0,.66,165.1a4.74,4.74,0,0,0-.57,2.65c0,2.09-.08,4.18-.09,6.27a4.34,4.34,0,0,0,.19,1.48,1.2,1.2,0,0,0,2.17.34,11.2,11.2,0,0,0,.85-1.45A14.76,14.76,0,0,1,7.67,176a1.48,1.48,0,0,1,.55.8c.11,1,.84,1.55,1.51,2.19,1.62,1.55,1.53,2.51-.27,3.84-.34.25-.78.36-1.08.63a2.44,2.44,0,0,0-.84,1.13c-.24,1.39-.33,2.79-.47,4.1l1.83,1.67c-.1.36-.1.58-.2.67-1.25,1.07-1.29,2.2-.31,3.5a2.24,2.24,0,0,1,.5,1.63,46.14,46.14,0,0,1-1.66,4.66c-.34.86-1.06,1-1.89.72s-1.62-.44-2.43-.65a1.84,1.84,0,0,0-2.36.77c.94,1.8,2,3.34,4.13,3.75,1.11.21,1.43,1.33,1.65,2.33.15.71.26,1.43.41,2.21l2.19.1c1.82.1,2.05.29,2.7,2a51.5,51.5,0,0,1,1.92,7.52c.33,1.64.25,3-1.28,3.74.14.93.23,1.68.35,2.42.23,1.51.5,1.67,2,1.19,2.33-.76,2.55-.64,3.1,1.67,0,.16.06.33.11.49a15.57,15.57,0,0,0,.79,2.36c.69,1.37,2.83,1.41,3.11,3.27,0,.23.7.38,1.09.54a7.58,7.58,0,0,1,3.61,2.6c.54.79,1.26.83,2.21.63a6.68,6.68,0,0,1,2.69.2c.71.16,1.3.84,1,1.5-.77,1.81.22,3.44.26,5.16,0,.65-.08,1.3-.08,2a19.89,19.89,0,0,0,.11,2.18c.08.65.48,1.33.37,1.93A2.57,2.57,0,0,0,34.14,254a16.17,16.17,0,0,0,2,1.55,6.29,6.29,0,0,1,3.11,6.73c-1,.59-2.07,1.25-3.17,1.83a2.74,2.74,0,0,0-1.62,2.36c-.12,1.58-.28,3.15-.36,4.74-.1,2.1-.06,4.18,1.56,5.84a5.51,5.51,0,0,1,.62,1.09,5,5,0,0,1-.2,5.85,4.22,4.22,0,0,0-1,3.26c.23,1.32-.62,2.22-1.19,3.2a2.22,2.22,0,0,1-2.35,1.13,2.26,2.26,0,0,1-2.08-1.87c-.24-1-.52-2-.86-3.37a9.3,9.3,0,0,0-1.19,1.19c-.35.55-.47,1.51-.92,1.69-2.07.79-1.54,2.31-1.24,3.77.25,1.23.73,2.41.88,3.65.09.76,0,1.94-.47,2.31-1.52,1.16-1.22,2.43-.6,3.79.37.82.65,1.69.05,2.37a3.31,3.31,0,0,0-.35,4.15A4.24,4.24,0,0,1,25,311,2.11,2.11,0,0,0,26.34,313q2.81,1.33,5.62,2.62c.72.33,1.32.7,1.28,1.64a2.24,2.24,0,0,0,.19,1.22,14.88,14.88,0,0,0,1.79,2.37c.61.63,1.37.24,2.12.09a1.89,1.89,0,0,1,2.28,2,30.21,30.21,0,0,1-.28,3c.41.24.76.45,1.12.64,2,1.13,3.65,2.88,5.9,3.69.51.18.89.95,1.16,1.53a12.21,12.21,0,0,1,.54,2.06c1.75,0,2.64,1.24,3.34,2.37,1.27-.09,2.34-.22,3.41-.21a1.84,1.84,0,0,0,2-1.16,8.84,8.84,0,0,1,.69-1.33,1.29,1.29,0,0,1,1.74-.53,2.48,2.48,0,0,1,1.86,2.14,17.68,17.68,0,0,1,0,1.79c2.68,1.41,3.79,4.05,5.3,6.33.58.89,1.06,1.65,2.18,1.83a2.51,2.51,0,0,1,2,1.75,6.29,6.29,0,0,0,2.7,3.16c2.22,1.58,3.52,4,5.24,6a1.56,1.56,0,0,1,.27,1.17c-.35,1.67.71,2.42,1.93,3.25.49-.38,1-.7,1.39-1.08.64-.58,1.32-1.16,2.23-.76s.84,1.35,1,2.16c.18,1,.34,2,.59,2.93s.71,2.06.92,3.12a4.51,4.51,0,0,0,2.23,3.19,15,15,0,0,1,4.29,3.42,1.71,1.71,0,0,0,1.76.67,2.43,2.43,0,0,1,2.65,1.51,22.19,22.19,0,0,1,1.07,2.94c.84.64,1.69,1.59,3.12,1.53a1.91,1.91,0,0,1,1.75,1.21,3.84,3.84,0,0,0,1.51,1.58c2.06.94,3.21,2.32,3,4.68,0,.37.37.76.58,1.16a3.45,3.45,0,0,0,.52-.47c1.06-1.77,1.07-1.76,2.78-.66.75.48,1.56.87,2.35,1.31l2.21-2.11a2.92,2.92,0,0,1,2.4,1.83c1,1.94,3.14,2.66,4.54,4.18.1.1.31.1.47.15l8.07,2.09a2.37,2.37,0,0,0,.53-.36,2.15,2.15,0,0,1,3.14-.25c.62.42,1.28.77,2,1.2.72-.67,1.35-1.33,2.07-1.88s1.49-1.1,2.29-.55a2.72,2.72,0,0,0,2.32.23,3.56,3.56,0,0,1,4.31,3.92c0,.49-.18,1-.23,1.48-.13,1.2-.24,2.4-.36,3.68.48-.05.78,0,1-.12,1.52-1,3.07-2,4.49-3.21,1-.82,2.19-1.44,2.8-2.79a2.68,2.68,0,0,1,2.71-1.49,2.43,2.43,0,0,0,1.63-.38c1.93-1.83,4.3-1.8,6.63-1.55,3.08.34,5.73,1.46,6.19,5,1.15.28,2.19.6,3.26.78,3,.47,5.62,2,8.7,2.19,1.89.1,2.91,2.19,2.45,4.16-.2.9-.49,1.79-.63,2.69a10.39,10.39,0,0,0,0,1.85c1.63.34,3.09.39,4.05,1.7,1.2,1.62-.32,2.81-.65,4.28,2.51,2,.41,4.29.24,6.7a11.49,11.49,0,0,0,2.17.51,29.49,29.49,0,0,0,3.76-.06c4.17-.29,8.35-.6,12.52-1,2.54-.22,5.28.09,7.07-2.4.13-.19.43-.25.66-.36,1.31-.66,2.4-1.44,2.61-3.1a1.54,1.54,0,0,1,1.84-1.32c1.09.07,2.18.07,3.26.1a3.46,3.46,0,0,0,3.13-1.63c1.42-1.89,3-3.73,5.86-3.61a3.3,3.3,0,0,0,3.49-2.68c-.43-.45-.79-.91-1.23-1.29a6.68,6.68,0,0,1-1.82-4c-.12-.63.07-1.17.87-1.15.25,1.28.17,2.81.87,3.78,1.3,1.81,3,3.46,5.69,2.55a14.49,14.49,0,0,1,2.49-.31,9.13,9.13,0,0,1,5.87.87c3.37,1.84,6.7,3.76,9.95,5.79.78.49,1.21,1.54,1.79,2.35.22.31.4.66.84,1.38.69-2.82,2.58-3.92,4.88-4.59.17-1.14.28-2.22.52-3.27.14-.63.35-1.59.75-1.73,1.26-.42,1.73-1.42,2.39-2.38,1.17-1.72,2.86-1.66,4,0a6.91,6.91,0,0,0,1.55,1.55c1.66,1.18,1.68,1.15,1.24,3.3a5.88,5.88,0,0,0-.07.71c3.31,2.5,3.29,2.52,2.84,7a18.93,18.93,0,0,0,.14,2.68l2-.82,1.7,1.22a4,4,0,0,0-.12-3.59,8,8,0,0,1-.89-4.85,5.5,5.5,0,0,0-2.18-5.07V403c.42.57,1.2,1.27,1.06,1.63-.62,1.65.5,2.67,1.06,3.92a5.46,5.46,0,0,1,.63,3.61,5.67,5.67,0,0,0,.22,2.67c.33,1.19,1.21,2.32,1.26,3.5a7.14,7.14,0,0,0,2,4.42,6.94,6.94,0,0,1,1.45,6.1c-.38,1.7-.6,3.44-.91,5.16a4.39,4.39,0,0,0,.38,3.16,3.28,3.28,0,0,1,.06,2.9c-.07.18-.43.26-.69.37a10.5,10.5,0,0,0,0-2.86,11.71,11.71,0,0,1-.21-4.71c.23-1.74.55-3.47.81-5.21.15-1,.33-2.08-.9-3a11.59,11.59,0,0,0-.64,2.87c.22,3.49-1.16,6.92-.34,10.43a1.37,1.37,0,0,1-.06,1c-1.18,2-1.07,4.17-1.24,6.39l-2.31,1.27c1.47,3.14,1.42,3.37-.93,4.38l-2-1.15c-1.08.51-.85,1.29-.7,2,.19,1-.35,1.53-1.12,2a3.4,3.4,0,0,1-3.34.08c-.14,3.06-1,3.05-2.85,3l-1,1.41-2-.35-1.15,1.63c.16.37.24.6.36.82.7,1.35.69,1.34-.43,2.59-.21.23-.48.56-.46.83.14,1.84-1.08,3.12-1.8,4.58a2.29,2.29,0,0,0,.24.47,3.43,3.43,0,0,1,.41,4.77,5.27,5.27,0,0,0-.76,2.08,1.11,1.11,0,0,0,1.11,1.39c1.52-.12,3.18.52,4.55-.76a1.84,1.84,0,0,1,2.7.05,2,2,0,0,0,1.6.32,4.31,4.31,0,0,1,4.8,1.45c0,.69,0,1.44,0,2.19,0,1.07.95,1.23,1.53,1.77a3.36,3.36,0,0,1,.6,1.34,11.47,11.47,0,0,0,.74,2.09,1.82,1.82,0,0,1,0,2.08,3.07,3.07,0,0,0,2.83,4.77c1.09,0,2.18,0,3.26.05a3.45,3.45,0,0,1,3.25,2.38,3.27,3.27,0,0,1-1.21,3.8c-.45.35-.92.69-1.39,1v2.26c-1.42,1.44-1.53,1.45-1.48,2.23a4,4,0,0,1-.66,2.33,1.57,1.57,0,0,0,1.25,2.42,3.36,3.36,0,0,0,1,0,3.46,3.46,0,0,1,4.27,2.53c1-.18,1.94-.35,2.68.47s.13,1.56,0,2.35c-.43,2.29.46,3.64,2.77,4.25,1.52.41,3,.86,4.58,1.19a3.82,3.82,0,0,0,1.71-.1c2.26-.6,3.74-2.38,5.48-3.76.09-.07,0-.32,0-.42-.81-.72-1.93-1.28-2.3-2.15a3.72,3.72,0,0,0-2.18-2.18c-1.68-.72-1.95-2.06-.9-3.88,0,1-.32,2,.09,2.59,1.28.84,2.56,1.22,3,2a6.54,6.54,0,0,0,3.07,2.83c-.76,1.32.14,2.32.73,3.4a40,40,0,0,1,2.75,5.05,2.58,2.58,0,0,0,3,1.88c.5,0,1,0,1.51,0a1.21,1.21,0,0,0,1.37-1.14,2,2,0,0,0-.21-.46c-1.43-1.47-1.67-3-.33-4.69.56-.69.29-1.44.06-2.15a5.18,5.18,0,0,1,.09-4.37,4,4,0,0,0,.15-1.49c.17-2.85,2.19-3.78,4.4-3.75.91,0,1.82.23,2.74.32,1.75.17,3.33-.1,4.48-1.64a6.37,6.37,0,0,1,1.51-1.32,4.45,4.45,0,0,1,6,.27,6,6,0,0,0,3.06,1.46l3.4-2.31,1.84.87,1-.85c-.47-.82-.8-1.42-1.1-2a23,23,0,0,0,3.23,1.27,4.2,4.2,0,0,1,2.79,2.33c.23.43.28,1,.62,1.34a1.93,1.93,0,0,0,1.48.54,1.6,1.6,0,0,0,.92-1.24,2.68,2.68,0,0,1,1.5-2.91c1.22-.68,2.26,0,3.25.67a5.56,5.56,0,0,0,.81.59,14.27,14.27,0,0,0,1.61.44c.52-2.55,2.4-2.83,4.45-2.82h.25c1.64-.17,1.9-.48,1.66-2a8.86,8.86,0,0,1-.23-1.23,1.64,1.64,0,0,1,1.34-1.86,6.39,6.39,0,0,0,2.66-1.25,3.63,3.63,0,0,1,2.36-.53,17.56,17.56,0,0,1,3.18,1c-.72,2.43.62,3.49,2.49,4a3.88,3.88,0,0,1,3.06,2.55c.94-.29,1.77-.83,2.47-.69a48.6,48.6,0,0,0,6.38,1.1A2.2,2.2,0,0,1,397,506.3a7.92,7.92,0,0,1-.91,1.7,1.54,1.54,0,0,0,0,2.21c1.28,1.69,1.16,2.05-.48,3.44a4.17,4.17,0,0,0-.49.67l.56,2.63c1.58,1,3.66.2,4.53,1.88a41.56,41.56,0,0,1,1.76,4.69c1.76.41,3-1.3,4.59-1.38,1.9-.1,3.16-1.33,4.78-1.87.34-1-.5-2.57,1.18-3,1.43-.34,2.66,0,3.19,1.6,1.95-.5,3.44-.17,4.14,1.84a1.3,1.3,0,0,0,.61.74c1.84.68,3.64,1.76,5.81.75.17-1,.35-1.93.52-2.84,1.91-.27,2-.31,2.9.89.69.87,1.28,1.76,2.56,1.77.29,0,.58.3.86.49,2.27,1.5,2.21,2.56-.19,3.81-.06,0-.1.13-.07.1-.11.73,0,1.61-.34,1.94-1,.93-1,2.24-1.56,3.2.77,1.57,2.89,2.29,2.13,4.17.63.69,1.61,1.34,1.52,1.75-.37,1.68.91,2.39,1.59,3.43,3.62.2,5.74-.86,6.52-3.23l-2.32-1.14c.17-.71.29-1.18.37-1.54-.91-.89-1.76-1.69-2.57-2.52a1.7,1.7,0,0,1,0-2.3c.57-.9,1.24-.57,1.92-.12.08,0,.27-.07.51-.14-.22-1.44-1.91-1.79-2.38-3.33.93-.52,1.88-1.42,2.91-1.52s1.89.72,3,1.19c.95-1.89,3.25-1.71,4.72-2.94a1.39,1.39,0,0,1,1-.1,3.23,3.23,0,0,0,2.53-.83c.51-.34,1.33-.74,1.79-.56,1.43.56,2.64-.14,3.91-.41a2.24,2.24,0,0,0,1.2-1.08c1-1.91,1-1.93,3.27-1.33a.37.37,0,0,0,.28-.07l2.42-2.13c2.1,1.18,2.1,1.18,4.7.81,1.31-3.38,1.31-3.38,4.93-3.12.14,0,.27.17.43.26.86,1.19-.34,2.36-.15,3.54,1.45.13,1.45.13,1.91-.87.72-1.53.91-1.76,2.41-1.52a3,3,0,0,0,2.09-.49,4.21,4.21,0,0,1,1.89-.31,6.71,6.71,0,0,1,1.43.25c.77-2.76,0-5.38,0-8l0,0c.29.95.57,1.91.92,3.05l2.45-2.78c.47-2.27-.06-4.1-2.44-5a7.69,7.69,0,0,0-1.66-.37,1.89,1.89,0,0,1-1.83-2l.07.05h0a3.11,3.11,0,0,0,3.95.68,4,4,0,0,1,5.52,1.34c.28.39.79.63,1.1,1a9.07,9.07,0,0,1,1.18,1.83c.55,1.19.89,1.41,2.07.79.69-.36,1.37-.9,2.09-.47a2.78,2.78,0,0,0,3.64-.23c.43-.36,1.23-.27,1.83-.37.36-2.51.84-3.05,3-3.45,1.82-.34,2-.24,2.43,1.57a9.2,9.2,0,0,1,1.93-1.7c1-.49,2.24-.55,3.27-1,1.24-.58,2.35-.75,3.26.28,1-.29,1-1.68,2.12-1.36s1.57-.42,2.31-.72c1-.43,1.37.7,2,.95a8.32,8.32,0,0,0,3.3-1.74A12.83,12.83,0,0,1,531.6,496a2.36,2.36,0,0,0,1.72-1.27c.3-.67.71-1.3,1-1.86-.39-.9-.71-1.66-1.11-2.61a4.61,4.61,0,0,0,2-2.41c.11-.4.89-.76,1.42-.86a8.42,8.42,0,0,1,2.08.1c.25-1.81,1.22-2.7,3.12-2.29a1.16,1.16,0,0,0,1-.16c1.09-1.24,2.81-1.92,3.4-3.56a2.71,2.71,0,0,1,2.9-1.89c1.71,0,2.69-1.3,3.57-2.38,1.1-1.34.8-2.68-.38-4.08-.63-.75-1.31-1.46-1.92-2.14l4.77-2.16c.08,0,.19-.07.24,0,1.38.73,1.87-.63,2.4-1,1.2,0,2.19.22,2.93-.11a5,5,0,0,1,2.59-.61c1,.09,1.3-.45,1.1-1.44a7.11,7.11,0,0,0-.33-1c.69-1.59,2.14-1,3.24-1.49l1.41-4.43,3.07-.79c-.32-1.5-.59-2.77-.82-3.83l6-3.35c.47-1.84.84-3.26,1.23-4.75l-2.89-2.08,2.39-1.65c-.2-1.29-.41-2.59-.64-4.09l1.09-1.49-3.23.28a3.17,3.17,0,0,1,.43-3.77c.3-.4.69-.73,1-1.13,1.24-1.7,1.65-1.86,3.51-1.06,1.2.53,2.36,1.14,3.56,1.72.35-1.16.43-1.21.15-1.67a1.94,1.94,0,0,1,.4-2.69,10,10,0,0,0,1-1.5c-.69-1.15-2.58-1.33-1.77-3.14l5.91-1.09,1.41-2.44c-1.48-1.47-1.63-2-.93-3.61.4-.91.9-1.77,1.35-2.65l-1.46-2c.37-.94.86-1.69,1.8-1.68,1.57,0,2.47-.92,3.28-2s1.49-2.22,2.27-3.31a14.16,14.16,0,0,1,1.15-1.26l1.61,2c2.4-.75,2.4-.75,2.37-3.54l-2.22-2.12c.55-1,1.91-1.05,1.75-2.4L600,396.05l1.25-2.12c-1.43-.24-2.06-1-1.87-2.3.17-1.16.67-2.31,1.85-2.42,1.67-.17,2.77-1.34,4.29-1.74-.23-1.47-.44-2.78-.63-4L603,382.12l1-2.08c-2.55-1.79-5-3.58-7.47-5.21-.81-.53-2-1-2.84-.23-1.48,1.23-3.43,1.62-4.83,3s-2.74,1.36-4.14-.06a3,3,0,0,0-1.93-.94c-1.8-.23-2.11-1.07-.93-2.48a3.75,3.75,0,0,1,1.61-1,21.29,21.29,0,0,1,4.54-1.3,3.48,3.48,0,0,0,2.91-2.05,4.94,4.94,0,0,1,2.72-2.42,6.13,6.13,0,0,0,2.74-2.11,8.09,8.09,0,0,1,1.32-1.13c.49-.45,1-.9,1.42-1.38a1.59,1.59,0,0,0,0-2.27,6.48,6.48,0,0,1-1.38-2.06c-.37-1.81-1.68-2.39-3.14-2.86s-3-.92-4.55-1.38c-.2-2.2-1.43-3-3.44-2.76a2.51,2.51,0,0,1-2.35-1.15c-.81-1-1.78-1.94-2.77-3a21.53,21.53,0,0,1-2.41.91c-1.06.28-2.19.88-3.16-.2h0l-.06-.07a8.82,8.82,0,0,0,5.95-2.15c1.85-1.51,2-1.41,4.09-.07.21.13.44.37.64.35,1.68-.14,2.69,1.18,4,1.88,1.21-.67,2.43-1.17,3.81-.51a1.18,1.18,0,0,0,1-.13,4.72,4.72,0,0,1,3.66-.35,1.58,1.58,0,0,0-.76-.79c-2.42-.93-3.74-3-4.83-5.1a3.58,3.58,0,0,0-3.52-2.26c-.5,0-1,0-1.5-.08-1.65-.13-1.93-.49-2.08-2.17s-.44-3.58-.7-5.36a2.33,2.33,0,0,0-.41-.91c-.89-1.4-1.8-2.79-2.66-4.11h-2.07c1-2.1.06-3.58-1.23-4.88l1.23-2.49-1.62-1.9c-1-1.2-2.09-2.36-3-3.64-.79-1.11-.93-1.27-2.19-.72a7.61,7.61,0,0,0-1,.69c.15-.63.31-1.27.44-1.79L571,308.8c-3.52.72-3.52.72-5-2.18a4.84,4.84,0,0,1-3.64-1.65,2.31,2.31,0,0,0-1-.7c-1.29-.34-1.4-1.28-1.33-2.35a10.45,10.45,0,0,1,1.81-5.83,5.08,5.08,0,0,0,1.08-3.24,4,4,0,0,1,1-2.43c1.15-1.29,2.49-2.4,3.73-3.57-.11-.61-.21-1.16-.33-1.77a16.23,16.23,0,0,1,1.62-.86c2.17-.87,3.93-2,3-4.88l2.63-.54c.24-1,.5-1.94.71-2.91.29-1.32,1.76-1.08,2.5-1.82-.2-.84-.38-1.61-.58-2.44A13.12,13.12,0,0,1,579,271a5.77,5.77,0,0,0,4.26-2.7c.6-.95,1.53-2.07,3.12-1.45.27.1.75-.22,1.08-.42,1.85-1.12,3.68-2.27,5.61-3.48l2.3,1.79a10.58,10.58,0,0,0,1.4-1.7,6.1,6.1,0,0,0,.84-2.55c0-1.23.7-2.63-.52-3.82a4.3,4.3,0,0,1-4.27-.35c-.25-.18-.68-.13-1-.3a3.21,3.21,0,0,0-3.93.29,4,4,0,0,1-3.29.88c-1.62-.34-3.21-.81-4.81-1.24-.15,0-.36-.12-.42-.25-.84-1.74-3-1.68-4-3.1a5.25,5.25,0,0,0-1,.49,17,17,0,0,0-1.6,1.58,4,4,0,0,1-2.67,1.74,2.88,2.88,0,0,0-2.21,1.42,7.08,7.08,0,0,1-1.5,1.67c-1.87,1.27-2.39,2.85-1.43,4.91,0,.06,0,.16-.07.36a3.38,3.38,0,0,1-2.79,1.14,19.93,19.93,0,0,0-3.67.53,17.71,17.71,0,0,1-2.18.53,2.17,2.17,0,0,1-1.55-.55,17.8,17.8,0,0,0-5.4-4.51,15.1,15.1,0,0,1,1.27-1.42,5.07,5.07,0,0,0,1.49-3.36,1.78,1.78,0,0,0-.45-1.32,27.31,27.31,0,0,0-2.24-2l-1.29.78v0l-1.92-2.58H544c-1.3,1.36-1.44,3.86-4.15,3.18-.44-.82-.38-2-1.66-2.27a1,1,0,0,1-.46-.81c.17-1.19-.6-1.84-1.33-2.53a3.71,3.71,0,0,1-1.38-2.53,2.71,2.71,0,0,0-2-2.61,10.64,10.64,0,0,1-1.27-.84c1.1-1.28,1-2.8,1.22-4.24a4.05,4.05,0,0,1,1.65-2.7c1.42-1,2.72-2.2,4-3.24l3.48,1.82c1.62-.59,3-1,4.41-1.63a15.15,15.15,0,0,0,2.36-1.38c.76-.51,1.44-1.16,2.23-1.61a2.5,2.5,0,0,0,1.36-2.47c0-1.07,0-2.15,0-3.25a20.26,20.26,0,0,0,5.38-5.58,5.14,5.14,0,0,1,3.24-2.19,6.26,6.26,0,0,0,4.75-4.38,7.87,7.87,0,0,1,1.53-2.53C569,208.37,570,206,572,204.42c.06,0,.07-.15.1-.23a3.58,3.58,0,0,1,4.29-2.6,3.08,3.08,0,0,0,3.17-1.53,3.29,3.29,0,0,1,3.11-1.69c-.3,2,1,3.52,1.71,5.21a1.66,1.66,0,0,0,.7.69c1.84,1,2.07,2.62,1.37,4.3-1,2.33-.81,5.15-2.93,7a1.91,1.91,0,0,0-.33.67l-2.24,5.09c.52,1,1.2,2.34,1.91,3.7a3.39,3.39,0,0,0,.68.16c.68,0,1.41,0,1.68.82a1.65,1.65,0,0,1-.8,1.93,3,3,0,0,0-1.17,2.39,2.32,2.32,0,0,1-.59,1.54c-1.17.89-2.47,1.6-3.71,2.39a3.69,3.69,0,0,0-.45.45c-.07.57-.17,1.26-.26,1.94,1.83.14,3.17-.22,4-1.79a8.73,8.73,0,0,1,1.35-1.8,2.53,2.53,0,0,1,1.16-.83c1.87-.44,2.68-2.16,4-3.22a1.12,1.12,0,0,0,.22-.93c-.2-1,.44-1.49,1.07-2.09,2.05-1.95,4.25-3.73,6.48-5.49,1.32-1.05,2.54-2.1,4.22-2.2.68-1.7,1.46-2.95,3.55-2.4.46.12,1.08-.32,1.61-.54,1.22-.49,2.47-1.5,3.64-1.4,1.79.14,2.32-.58,2.88-2a9.7,9.7,0,0,1,2-2.87c2.66-2.88,5.52-5.58,8.07-8.55a34.12,34.12,0,0,1,6.27-5.69,8.88,8.88,0,0,0,3.76-4.85,6,6,0,0,1,1.41-2.59,8.42,8.42,0,0,0,2.47-4.27,5.53,5.53,0,0,1,3-3.94c1.58-.77,2.31-.88,3.62.31.85.78,1.59,1.68,2.3,2.44a23,23,0,0,0,9.43-1.68,1.8,1.8,0,0,0,.62-3.17l-3.62-3.39c.2-.38.28-.81.51-.93,1.66-.84,1.78-2.26,1.56-3.84a7,7,0,0,1,0-.92c1.15.58-.06,2.18,1.19,2.76,1,.09,1.66-.62,2.39-1.13a4.77,4.77,0,0,1,4.47-.93,1.28,1.28,0,0,0,1.71-.59c1.13-2,3.06-3.57,3.55-6a2,2,0,0,1,1.85-1.77,3.11,3.11,0,0,0,1.6-1,3.31,3.31,0,0,0,.94-3.63c-.61-1.81.17-3.5,1.24-4.92s2.32-1.25,3.24.15c.45.69.79,1.46,1.27,2.13a6.27,6.27,0,0,1,1.66,3.57,1.19,1.19,0,0,0,1.32,1.27,3.57,3.57,0,0,0-.3-3.06c-1-2-.7-2.82,1.16-3.88.22-.12.51-.14.69-.3a4.21,4.21,0,0,0,1.84-3.11c0-1.56-.33-3.11-.36-4.67-.08-4.6,0-9.2-1.35-13.67a2.75,2.75,0,0,1-.11-1,7.39,7.39,0,0,0-2.6-6,6.39,6.39,0,0,1-2-3.4,20.51,20.51,0,0,0,5.47-5.51c1.22-2.16,2.57-3,4.86-2.47s4.62.89,7.07-.12a3.3,3.3,0,0,0,2.41-2.44c1-3.81,2-7.6,3-11.4a2.65,2.65,0,0,0-.29-2.36,3.12,3.12,0,0,1,0-3.56,7.26,7.26,0,0,0,1.1-4.79c-.1-1.74,0-3.51-.18-5.23-.27-2-.22-4.12-1.56-6-1.11-1.51-.88-2.78.61-4.25A5.62,5.62,0,0,0,701.33,67Z" fill="#f1567b"/><path d="M452,547.71a1.94,1.94,0,0,0-1.23-2c-1.21-.56-2.41-1.1-3.62-1.64-1.49-.66-1.5-.65-2.36,1.18-1.71-.78-3.74-.48-5.39-1.69a2.52,2.52,0,0,0-1.67-.1,17.66,17.66,0,0,0-2.16.64c-.45-.32-.81-.76-1.25-.87-.71-.17-1.84-.43-2.14-.09-.95,1.08-2.8,1.31-2.94,3.15-.07.94-.75,1.23-1.62,1.1-.33,0-.65-.16-1-.23-2.3-.53-2.64-.41-3.38,1.67a4,4,0,0,1-1.21,1.82c-.69.6-1.22,1.37-1.87,2a5.67,5.67,0,0,1-1.67,1.4,4.08,4.08,0,0,0-2.59,3.4,4.66,4.66,0,0,1-.41,1.45,4.86,4.86,0,0,0,.16,5,3.71,3.71,0,0,1,.35,2.61,2.69,2.69,0,0,0,.12,2.34,2.63,2.63,0,0,0,2,1.29,5.7,5.7,0,0,1,3.62,2,2.27,2.27,0,0,0,2.66.83,5,5,0,0,1,2.66.3c1.12.35,2.14,1,3.23,1.39a9.87,9.87,0,0,0,1.81.3c.21-1.11.39-2.06.59-3.09,1.95,0,3.52-1.65,5.48-.79.32-.39.54-.63.73-.9,1.29-1.83,2.27-4,4.72-4.64a.78.78,0,0,0,.36-.34c2-2.92,3.4-6,3.25-9.75l2.42-2.79a9.1,9.1,0,0,0,1.75.31c.69,0,1.25-.57.94-1.15C451.59,550.5,451.87,549.12,452,547.71Z" fill="#f1567b"/><path d="M612.7,455.26a8.36,8.36,0,0,0-2.2-.45,1.85,1.85,0,0,1-1.48-.7,2,2,0,0,0-3.2-.31,5.93,5.93,0,0,0-1.33,1.5,3.07,3.07,0,0,1-2.36,1.66c-1.9.25-2.88,1.53-3.54,3.17a21.82,21.82,0,0,1-1.21,2.75c-1.63,2.82-3.33,5.59-5,8.39a4.1,4.1,0,0,0-.6,1.1,13.35,13.35,0,0,1-2.76,5,7.12,7.12,0,0,0-1.39,6.6,3.69,3.69,0,0,1,0,1.48,12.33,12.33,0,0,0,.15,5.47,4,4,0,0,1,.07,2.24c-.45,1.66.14,3.1.62,4.68a3.59,3.59,0,0,1,3.92,3.1,2.5,2.5,0,0,0,.78,1.22,7,7,0,0,1,2.12,4.17,14.3,14.3,0,0,0,.39,2,.94.94,0,0,0,1.63.3,7.82,7.82,0,0,0,1.85-3.78,46.66,46.66,0,0,1,1.16-5.37,4.24,4.24,0,0,1,1.2-1.8,8.26,8.26,0,0,0,2.65-4.15,5.09,5.09,0,0,1,1.31-2.08,2.93,2.93,0,0,0,1-2.68,3.49,3.49,0,0,1,.88-3,1.93,1.93,0,0,0,.43-2.11,5.06,5.06,0,0,1-.17-3.65c.34-1.8.57-3.62.89-5.43a2.52,2.52,0,0,1,.53-1.09c1.42-1.75,1.29-4.23,2.84-5.91,0,0,0-.16,0-.24a40.11,40.11,0,0,0,.26-4.51,7.59,7.59,0,0,1,1.35-5.18A1.43,1.43,0,0,0,612.7,455.26Z" fill="#f1567b"/><polygon points="122.47 195.55 151.43 284.7 75.6 229.6 169.34 229.6 93.5 284.7 122.47 195.55" fill="#ffd400"/><polygon points="190.51 204 211.03 180.44 208.28 211.56 192.21 184.77 220.96 196.99 190.51 204" fill="#ffd400"/><polygon points="221.19 230.73 249.24 216.97 234.64 244.59 230.22 213.66 251.97 236.08 221.19 230.73" fill="#ffd400"/><polygon points="221.66 273.17 252.88 272.05 228.28 291.31 236.86 261.27 247.58 290.62 221.66 273.17" fill="#ffd400"/><polygon points="191.77 300.27 221.01 311.3 190.88 319.56 210.4 295.17 208.95 326.38 191.77 300.27" fill="#ffd400"/></svg>