<svg xmlns="http://www.w3.org/2000/svg" width="61.2" height="241.26" viewBox="0 0 61.2 241.26"><polygon points="61.2 79.9 57.22 108.64 50.76 125.92 46 114.25 53.6 70.44 60.4 70.44 61.2 79.9" fill="#efead7"/><path d="M11.49,85,14,98.18V113l-5.47-4.35S2.55,96.72,3,92.93s0-20.2,0-20.2l8.48-4.47Z" fill="#efead7"/><rect x="23.02" y="32.39" width="14.84" height="16.99" fill="#efead7"/><path d="M48.73,14.65s-1.37-3.83-1.49-4.2S42.3,6.87,42.3,6.87H38L32.87,0,18.17,10.19,14,23.43l10,14.94h8.18l5.74-6,6.41,2.26a15.91,15.91,0,0,0-.86-3.21c-.23-.3.82-3.88,1.65-6.56l3.67-3.83-1.37-1.82,1.37-2.73Z" fill="#373a36"/><polygon points="3.04 84.96 11.49 84.96 11.49 73.23 13.48 75.71 11.49 108.64 53.13 115.41 51.26 73.23 61.2 73.23 54.24 48.87 37.84 44.4 22.93 44.4 7.52 52.85 3.04 64.28 3.04 84.96" fill="#b8e0ed"/><polygon points="12.92 217.8 12.92 232.47 21.52 232.47 21.52 214.87 12.92 217.8" fill="#efead7"/><polygon points="36.77 214.87 35.79 231.68 46 231.68 46 214.87 36.77 214.87" fill="#efead7"/><path d="M21.52,229.73v8.4l1.37,3.13-7-1.37L11,241.26H.22s-.5-3.78,0-4.53a34.1,34.1,0,0,0,1.49-5l4.21.79,2.19.91,5-5.22Z" fill="#1d1e1c"/><path d="M35.5,229.92l-.71,3.91-.71,4.11.71,1.95h2.6L42,241.26h10.3s.47-3.78,0-4.53.21-5,.21-5l-5.66.79L46,228.94l-6-.78Z" fill="#1d1e1c"/><polygon points="11.49 108.64 32.37 103.59 52.25 108.64 54.24 123.93 47.78 222.42 32.87 222.42 32.87 145.8 22.43 222.42 11.49 222.42 11.49 108.64" fill="#4f4b40"/></svg>